{
.appVersion = "3260";
.formatVersion = 3;
DisplayStrings = (
"",
Z
);
axes = (
{
name = Weight;
tag = wght;
}
);
customParameters = (
{
name = vendorID;
value = XXXX;
},
{
name = panose;
value = (
0,
0,
0,
0,
0,
0,
0,
0,
0,
0
);
},
{
name = unicodeRanges;
value = (
0,
1,
2,
31,
35,
38
);
},
{
name = codePageRanges;
value = (
"1252",
"1250"
);
},
{
name = fsType;
value = (
);
},
{
name = glyphOrder;
value = (
.notdef,
.null,
controlLF,
controlCR,
space,
exclam,
quotedbl,
numbersign,
dollar,
percent,
ampersand,
quotesingle,
parenleft,
parenright,
asterisk,
plus,
comma,
hyphen,
period,
slash,
zero,
one,
two,
three,
four,
five,
six,
seven,
eight,
nine,
colon,
semicolon,
less,
equal,
greater,
question,
at,
A,
B,
C,
D,
E,
F,
G,
H,
I,
J,
K,
L,
M,
N,
O,
P,
Q,
R,
S,
T,
U,
V,
W,
X,
Y,
Z,
bracketleft,
backslash,
bracketright,
asciicircum,
underscore,
grave,
a,
b,
c,
d,
e,
f,
g,
h,
i,
j,
k,
l,
m,
n,
o,
p,
q,
r,
s,
t,
u,
v,
w,
x,
y,
z,
braceleft,
verticalbar,
braceright,
asciitilde,
nonbreakingspace,
exclamdown,
cent,
sterling,
section,
ordfeminine,
softhyphen,
paragraph,
ordmasculine,
bullet,
trademark,
infinity
);
}
);
date = "2023-11-17 23:21:28 +0000";
familyName = "Kringles-fills";
fontMaster = (
{
axesValues = (
0
);
customParameters = (
{
name = typoAscender;
value = 700;
},
{
name = typoDescender;
value = -200;
},
{
name = typoLineGap;
value = 0;
},
{
name = winAscent;
value = 703;
},
{
name = winDescent;
value = 57;
},
{
name = hheaAscender;
value = 700;
},
{
name = hheaDescender;
value = -200;
},
{
name = strikeoutPosition;
value = 258;
},
{
name = strikeoutSize;
value = 49;
}
);
id = "FB7D8E3D-7C75-4663-899C-C1BEB8CD7630";
metricValues = (
{
pos = 700;
},
{
pos = 432;
},
{
pos = 568;
},
{
},
{
pos = -200;
},
{
}
);
name = Fills;
visible = 1;
}
);
glyphs = (
{
glyphname = exclam;
lastChange = "2024-06-01 14:57:49 +0000";
layers = (
{
layerId = "FB7D8E3D-7C75-4663-899C-C1BEB8CD7630";
shapes = (
{
closed = 1;
nodes = (
(173.16,253.64,o),
(225.5,270.07,o),
(277.52,287.48,cs),
(283.52,289.49,o),
(287.71,296.89,o),
(292.73,301.8,c),
(289.21,304.54,o),
(284.98,310.13,o),
(282.31,309.47,cs),
(282.32,309.48,ls),
(275.24,307.73,o),
(268.04,304.22,o),
(262.42,299.56,cs),
(258.26,296.11,o),
(256.52,289.76,o),
(253.27,283.92,c),
(240.15,296.19,o),
(228.73,322.26,o),
(222.36,283.4,cs),
(221.35,277.21,o),
(207.97,273.04,o),
(196.5,265.4,c),
(196.5,299.09,l),
(153.12,287.86,o),
(111.19,277.28,o),
(69.45,266.05,cs),
(54.33,261.98,o),
(47.25,250.19,o),
(56.94,237.56,cs),
(115.55,161.16,o),
(192.23,151.08,o),
(259.02,238.87,cs),
(265.2,246.99,o),
(264.16,260.62,o),
(266.46,271.68,c),
(263.63,273.18,o),
(260.8,274.69,o),
(257.97,276.19,c),
(217.77,242.53,o),
(180.34,198.43,o),
(116.17,235.39,c)
);
},
{
closed = 1;
nodes = (
(160.45,21.73,o),
(166.86,30.38,o),
(165.57,33.76,cs),
(155.78,59.46,o),
(167.35,78.79,o),
(180.32,99.28,cs),
(183.52,104.33,o),
(179.59,120.69,o),
(175.14,122.5,cs),
(163.18,127.36,o),
(149.12,128.74,o),
(135.99,128.34,cs),
(129.38,128.14,o),
(122.98,121.05,o),
(116.49,117.08,c),
(121.61,111.91,o),
(126.25,106.09,o),
(132.05,101.86,cs),
(135.02,99.7,o),
(140.08,100.38,o),
(151.07,98.76,c),
(146.08,79.61,o),
(140.86,62.98,o),
(137.7,45.96,cs),
(136.3,38.43,o),
(137.62,29.51,o),
(140.61,22.46,cs),
(141.86,19.5,o),
(152.02,17.16,o),
(155.64,19.12,cs)
);
},
{
closed = 1;
nodes = (
(150.01,370.35,o),
(159.36,375.78,o),
(159.54,381.51,cs),
(160.82,422.14,o),
(160.22,462.84,o),
(160.22,503.52,c),
(156.06,504.11,o),
(151.9,504.7,o),
(147.74,505.29,c),
(142.27,464.39,o),
(136.23,423.54,o),
(132.04,382.51,cs),
(131.49,377.1,o),
(140.38,370.71,o),
(144.9,364.78,c)
);
}
);
width = 345;
}
);
note = exclam;
unicode = 33;
},
{
glyphname = quotedbl;
lastChange = "2024-06-01 14:57:49 +0000";
layers = (
{
layerId = "FB7D8E3D-7C75-4663-899C-C1BEB8CD7630";
shapes = (
{
closed = 1;
nodes = (
(302.9,-49.8,o),
(321.24,-45.85,o),
(336.14,-30,cs),
(338.95,-27,o),
(342.04,-23.42,o),
(342.95,-19.61,cs),
(351.48,15.63,o),
(360.5,50.8,o),
(367.31,86.38,cs),
(370.09,100.92,o),
(367.47,116.43,o),
(367.92,131.48,cs),
(369.05,168.96,o),
(372.94,172.92,o),
(408.37,183.53,cs),
(441.78,193.53,o),
(476.39,201.6,o),
(507.54,216.61,cs),
(550.53,237.32,o),
(559.45,287.99,o),
(529.32,324.57,cs),
(529.31,324.56,ls),
(525.96,319.57,o),
(522.2,315.3,o),
(519.94,310.35,cs),
(501.76,270.47,o),
(469.93,249.44,o),
(427.74,241.48,cs),
(353.22,227.43,o),
(305.42,168.57,o),
(308.16,94.48,cs),
(309.09,69.42,o),
(310.35,44.29,o),
(309.33,19.27,cs),
(308.33,-5.26,o),
(297.83,-11.79,o),
(274.65,-3.76,cs),
(262.3,0.51,o),
(250.7,6.97,o),
(238.77,12.44,c),
(233.58,6.59,l),
(239.89,-18.99,o),
(261.28,-31.05,o),
(283.52,-41.07,cs)
);
},
{
closed = 1;
nodes = (
(166.46,60.82,o),
(194.87,67.03,o),
(222.79,73.64,c),
(210.12,110.05,o),
(191.12,121.82,o),
(152.67,112.07,cs),
(152.65,112.07,ls),
(143.08,109.64,o),
(134.49,103.24,o),
(124.92,100.94,cs),
(113.69,98.24,o),
(96.11,92.85,o),
(91.61,97.88,cs),
(84.25,106.09,o),
(81.81,122.32,o),
(83.67,134.18,cs),
(85.59,146.52,o),
(93.76,158.65,o),
(101.57,169.1,cs),
(110.55,181.13,o),
(122.14,191.21,o),
(132.59,202.13,c),
(128.04,207.32,l),
(111.38,193.23,o),
(94.58,179.31,o),
(78.09,165.02,cs),
(49.05,139.86,o),
(45.24,115.4,o),
(64.18,78.26,cs),
(76.7,53.72,o),
(104.71,44.78,o),
(138.34,53.52,cs)
);
},
{
closed = 1;
nodes = (
(248.78,143.88,o),
(262.9,152.67,o),
(269.34,162.92,cs),
(278.09,176.84,o),
(282.82,194.53,o),
(284.55,211.1,cs),
(285.5,220.18,o),
(276.74,230.28,o),
(272.36,239.92,c),
(270.07,238.81,o),
(267.79,237.71,o),
(265.51,236.61,c),
(265.51,211.63,l),
(257.12,218.78,o),
(251.29,223.75,o),
(245.47,228.72,c),
(243.14,227.21,o),
(240.8,225.69,o),
(238.46,224.18,c),
(243.37,215.4,o),
(246.38,204.38,o),
(253.57,198.33,cs),
(268.12,186.11,o),
(264.4,175.56,o),
(251.47,168.91,cs),
(239.74,162.88,o),
(225.36,162.01,o),
(205.91,157.39,c),
(217.82,150.85,o),
(228.42,140.1,o),
(236.74,141.65,cs)
);
},
{
closed = 1;
nodes = (
(219.68,251.78,o),
(225.15,298.46,o),
(209.21,332.45,cs),
(192.51,368.06,o),
(166.93,400.5,o),
(171.21,445.41,c),
(162.35,435.79,o),
(154.73,425.23,o),
(155.25,415.09,cs),
(156.38,393.01,o),
(159.11,370.34,o),
(165.78,349.37,cs),
(178.2,310.31,o),
(203.02,274.67,o),
(195.16,229.96,c)
);
},
{
closed = 1;
nodes = (
(297.3,259.08,o),
(308.86,266.98,o),
(309.98,272.89,cs),
(311.56,281.17,o),
(305.36,290.93,o),
(302.48,300.07,c),
(300.36,299.3,o),
(298.24,298.54,o),
(296.13,297.77,c),
(295.45,289.12,o),
(294.76,280.46,o),
(293.63,266.15,c),
(283.17,276.04,o),
(277.56,281.33,o),
(268.28,290.11,c),
(268.81,270.86,o),
(274.39,259,o),
(290.38,259.06,cs),
(290.37,259.05,ls)
);
},
{
closed = 1;
nodes = (
(345.59,337.14,ls),
(349.2,340.06,o),
(356.68,346.09,o),
(364.15,352.13,c),
(357.96,358.09,o),
(352.35,364.87,o),
(345.43,369.8,cs),
(337.83,375.22,o),
(329.01,378.94,o),
(320.72,383.4,cs),
(316.69,385.57,o),
(310.57,390.52,o),
(309.06,389.37,cs),
(305.11,386.37,o),
(301.36,380.94,o),
(300.76,376.08,cs),
(298.45,357.64,o),
(316.6,339.88,o),
(345.6,337.13,cs)
);
},
{
closed = 1;
nodes = (
(358.91,286.07,o),
(377.57,302.03,o),
(391.77,318.93,cs),
(407.24,337.33,o),
(424.92,354.08,o),
(438.88,373.52,cs),
(450.19,389.27,o),
(451.51,407.96,o),
(440.12,428.65,c),
(436.03,423.31,o),
(431.63,420.19,o),
(431.82,417.38,cs),
(433.92,385.36,o),
(413.03,367.97,o),
(391.56,349.8,cs),
(379.07,339.22,o),
(366.86,326.78,o),
(358.92,312.7,cs),
(345.91,289.62,o),
(352.87,269.98,o),
(379.01,257.6,c)
);
}
);
width = 600;
}
);
note = quotedbl;
unicode = (34,8220,8221);
},
{
glyphname = numbersign;
lastChange = "2024-06-01 14:57:49 +0000";
layers = (
{
layerId = "FB7D8E3D-7C75-4663-899C-C1BEB8CD7630";
shapes = (
{
closed = 1;
nodes = (
(194.96,91.34,o),
(209.94,91.39,o),
(215.59,98.67,cs),
(243.62,134.83,o),
(269.2,172.89,o),
(297.05,212.29,c),
(257.66,217.91,o),
(250.96,242.94,o),
(253.13,272.73,cs),
(253.14,272.74,ls),
(219.41,276.8,o),
(220.02,276.24,o),
(202.13,256.96,cs),
(196.17,250.54,o),
(186.22,247.81,o),
(178.09,243.4,c),
(175.47,251,o),
(172.85,258.59,o),
(169.75,267.57,c),
(160.79,266.31,o),
(149.34,266.74,o),
(139.8,262.68,cs),
(132.81,259.71,o),
(128.33,250.86,o),
(122.73,244.63,c),
(129.04,239.06,o),
(134.55,231.5,o),
(141.9,228.53,cs),
(148.21,225.98,o),
(156.65,228.56,o),
(164.14,229.08,cs),
(192.53,231.08,o),
(220.9,233.17,o),
(252.37,235.45,c),
(242.08,216.13,o),
(234.3,201.53,o),
(226.51,186.93,c),
(226.63,186.96,ls),
(212.19,165.09,o),
(196.4,144.01,o),
(184.28,121.01,cs),
(179.74,112.39,o),
(184.03,99.11,o),
(184.29,87.95,c)
);
},
{
closed = 1;
nodes = (
(100.5,114.11,o),
(117.19,128.48,o),
(117.73,136.48,cs),
(118.33,145.53,o),
(105.84,155.45,o),
(95.57,169.85,c),
(77.35,156.42,o),
(64.92,147.26,o),
(52.48,138.1,c),
(66.1,130.07,o),
(79.01,118.62,o),
(93.67,115.54,cs)
);
},
{
closed = 1;
nodes = (
(274.25,-10.59,o),
(289.04,-1.47,o),
(286.5,16.75,cs),
(285.24,25.77,o),
(266.99,40.6,o),
(260.22,38.77,cs),
(249.59,35.89,o),
(238.59,22.34,o),
(234.77,10.96,cs),
(232.59,4.48,o),
(244.36,-6.69,o),
(248.06,-12.8,c)
);
},
{
closed = 1;
nodes = (
(123.3,274.58,o),
(132.41,282.7,o),
(132.46,287.22,cs),
(132.45,287.21,ls),
(132.53,293.68,o),
(126.12,300.22,o),
(119.42,312.23,c),
(112.07,300.58,o),
(105.24,294.37,o),
(105.11,288.01,cs),
(105.01,283.38,o),
(113.56,275.08,o),
(118.58,274.82,cs)
);
},
{
closed = 1;
nodes = (
(234.85,151.07,o),
(232.07,152.03,o),
(229.29,152.98,c),
(228.62,164.38,o),
(227.94,175.77,o),
(227.22,187.1,c),
(236.77,189.48,o),
(246.31,191.87,o),
(255.86,194.24,c),
(257.58,191.15,o),
(259.3,188.06,o),
(261.02,184.97,c),
(253.22,173.35,o),
(245.43,161.73,o),
(237.63,150.11,c)
);
},
{
closed = 1;
nodes = (
(361.61,45.92,o),
(368.4,52.56,o),
(374.14,60,cs),
(375.66,61.96,o),
(373.93,66.42,o),
(373.69,69.74,c),
(383.37,67.3,o),
(398.23,63.12,o),
(395.01,78.7,cs),
(390.21,101.94,o),
(380.03,124.37,o),
(369.77,146.01,cs),
(369.8,146.02,ls),
(366.71,152.54,o),
(355.35,154.8,o),
(348.48,159.95,cs),
(340.79,165.71,o),
(333.9,172.54,o),
(321.47,183.48,c),
(337.85,184.96,o),
(345.42,185.63,o),
(354.44,186.45,c),
(347.21,203.28,o),
(340.75,218.31,o),
(334.27,233.39,c),
(321.34,225.25,o),
(310.3,218.31,o),
(297.27,210.11,c),
(321.71,164.49,o),
(346.12,118.92,o),
(370.52,73.36,c),
(367.23,73.47,o),
(363.89,73.25,o),
(360.65,73.75,cs),
(347.34,75.8,o),
(337.95,70.42,o),
(339.69,56.96,cs),
(340.54,50.41,o),
(349.78,44.94,o),
(355.21,38.98,c)
);
},
{
closed = 1;
nodes = (
(110.34,377.39,o),
(118.63,387.32,o),
(132.81,397.02,c),
(118.72,408.53,o),
(110.19,415.5,o),
(101.67,422.47,c),
(94.2,412.86,o),
(85.21,403.91,o),
(80.5,393.1,cs),
(79.51,390.81,o),
(94.44,376.69,o),
(101.63,377.01,cs),
(101.62,377,ls)
);
},
{
closed = 1;
nodes = (
(333.43,251.86,o),
(333.84,270.63,o),
(310.87,303.59,c),
(278.21,290.76,o),
(262.65,266.06,o),
(274.39,245.65,cs),
(283.27,230.19,o),
(296.31,229.95,o),
(310.67,238.42,cs)
);
},
{
closed = 1;
nodes = (
(551.4,36.6,o),
(558.16,52.56,o),
(559.39,71.24,cs),
(560.63,90.06,o),
(549.55,100.39,o),
(530.79,101.5,cs),
(511,102.65,o),
(493.55,87.68,o),
(493.14,69.78,cs),
(492.73,52.04,o),
(507.28,38.9,o),
(529.25,38.58,cs)
);
},
{
closed = 1;
nodes = (
(362.87,243.07,o),
(384.45,245.53,o),
(405.33,247.93,c),
(403.84,258.26,o),
(402.82,265.39,o),
(401.39,275.28,c),
(340.32,275.28,l),
(340.32,240.48,l)
);
},
{
closed = 1;
nodes = (
(276.49,303.5,o),
(287.43,310.87,o),
(298.98,318.66,c),
(293.19,334.46,o),
(287.56,349.8,o),
(279.56,371.63,c),
(278.38,355.97,o),
(277.74,347.44,o),
(277.1,338.92,c),
(275.39,338.2,o),
(273.68,337.48,o),
(271.97,336.76,c),
(265.46,347.12,o),
(258.95,357.49,o),
(252.25,368.14,c),
(261.04,373.71,o),
(267.77,377.98,o),
(275.08,382.61,c),
(265.35,409.8,o),
(257.36,436.25,o),
(246.01,461.17,cs),
(242.68,468.47,o),
(229.8,471.42,o),
(221.29,476.36,c),
(217.07,468.28,o),
(207.59,458.65,o),
(209.46,452.38,cs),
(225.23,399.29,o),
(243.06,346.82,o),
(260.71,292.87,cs),
(260.7,292.86,ls)
);
},
{
closed = 1;
nodes = (
(355.89,317.43,o),
(389.29,344.98,o),
(375.51,389.22,c),
(357.19,366.92,o),
(338.2,343.8,o),
(320.06,321.73,c),
(325.48,308.38,o),
(330.49,296.02,o),
(338.18,277.09,c)
);
},
{
closed = 1;
nodes = (
(454.13,258.34,o),
(492.38,251.55,o),
(525.06,274.83,c),
(495.6,277.88,o),
(466.34,277.6,o),
(437.47,274.14,cs),
(428.55,273.07,o),
(420.66,263.37,o),
(412.3,257.62,c),
(414.59,254.81,o),
(416.89,252,o),
(419.18,249.19,c)
);
},
{
closed = 1;
nodes = (
(285.12,452.14,o),
(294.6,460.25,o),
(311.17,470.71,c),
(297.98,480.89,o),
(288.85,491.01,o),
(286.13,489.5,cs),
(275.69,483.74,o),
(266.73,474.72,o),
(258.98,465.44,cs),
(258.17,464.48,o),
(270.99,447.64,o),
(274.16,448.65,cs)
);
},
{
closed = 1;
nodes = (
(593.66,198.31,o),
(610.31,215.69,o),
(608.92,218.77,cs),
(604.2,229.22,o),
(594.87,239.32,o),
(584.74,244.74,cs),
(580.83,246.83,o),
(570.02,236.01,o),
(554.98,226.33,c),
(569.99,213.36,o),
(577.96,201.87,o),
(588.03,199.59,cs)
);
},
{
closed = 1;
nodes = (
(356.37,497.2,o),
(364.6,507.03,o),
(368.58,518.36,cs),
(369.63,521.32,o),
(357.45,528.93,o),
(351.35,534.4,c),
(343.52,525.24,o),
(333.87,516.94,o),
(328.84,506.44,cs),
(327.11,502.81,o),
(336.87,493.68,o),
(345.77,480.63,c)
);
},
{
closed = 1;
nodes = (
(562.9,421.95,o),
(573.25,430.77,o),
(577.79,441.95,cs),
(579.08,445.15,o),
(560.86,462.39,o),
(556.11,460.67,cs),
(544.67,456.53,o),
(534.37,446.04,o),
(527.28,435.62,cs),
(525.71,433.31,o),
(539.32,420.68,o),
(550.58,407.26,c)
);
}
);
width = 662;
}
);
note = numbersign;
unicode = 35;
},
{
glyphname = dollar;
lastChange = "2024-06-01 14:57:49 +0000";
layers = (
{
layerId = "FB7D8E3D-7C75-4663-899C-C1BEB8CD7630";
shapes = (
{
closed = 1;
nodes = (
(118.25,164.85,o),
(128.74,174.17,o),
(139.24,183.48,c),
(158.14,182.21,o),
(176.41,175.44,o),
(187.8,181.53,cs),
(218.08,197.72,o),
(246.42,218.21,o),
(273.35,239.73,cs),
(287.55,251.08,o),
(291.83,273.49,o),
(315.33,275.81,cs),
(320.42,276.31,o),
(327.02,286,o),
(328.64,292.53,cs),
(334.47,315.95,o),
(338.46,339.83,o),
(343.14,363.53,cs),
(343.13,363.52,ls),
(322.3,344.09,o),
(315.04,314.88,o),
(285.81,307.34,c),
(269.19,336.39,o),
(253.44,363.92,o),
(236.01,394.4,c),
(257.99,403.61,o),
(284.12,414.56,o),
(310.26,425.5,c),
(309.94,428.21,o),
(309.62,430.92,o),
(309.3,433.64,c),
(300.69,433.64,o),
(291.83,434.94,o),
(283.5,433.42,cs),
(243.8,426.17,o),
(204.99,407.14,o),
(163.56,425.46,cs),
(162.15,426.08,o),
(159.94,426.24,o),
(158.63,425.57,cs),
(139.61,415.97,o),
(127.31,428.4,o),
(114.37,438.84,cs),
(107.21,444.62,o),
(100.17,454.79,o),
(92.79,455.05,cs),
(81.74,455.46,o),
(67.04,451.97,o),
(60.21,444.42,cs),
(53.53,437.05,o),
(53.89,422.59,o),
(52.74,411.09,cs),
(50.75,391.3,o),
(61.85,384.58,o),
(80.78,391.45,cs),
(92.87,395.84,o),
(105.92,397.85,o),
(118.7,400.02,cs),
(128.88,401.75,o),
(139.29,402.13,o),
(154.38,403.57,c),
(164.6,398.63,o),
(179.19,391.61,o),
(193.75,384.52,cs),
(228.76,367.47,o),
(233.45,359.01,o),
(223.75,322.66,cs),
(218.38,302.51,o),
(212.49,281.96,o),
(202.9,263.65,cs),
(195.46,249.45,o),
(183.33,236.72,o),
(170.72,226.51,cs),
(157.3,215.65,o),
(132.87,222.5,o),
(132.74,237.98,cs),
(132.49,267.16,o),
(113.55,269.7,o),
(91.65,273.25,c),
(91.65,313.26,l),
(64.87,304.99,o),
(66,283.88,o),
(64.11,266.35,cs),
(61.47,241.86,o),
(68.73,221.72,o),
(96.39,217.23,c),
(97.2,209.37,o),
(97.37,202.67,o),
(98.66,196.2,cs),
(101.38,182.58,o),
(104.69,169.08,o),
(107.76,155.53,c)
);
},
{
closed = 1;
nodes = (
(224.54,39.95,o),
(225.89,80.33,o),
(221.27,121.31,c),
(246.31,123.4,o),
(260.44,129.18,o),
(263.67,138.65,c),
(239.72,149.01,o),
(216.09,159.24,o),
(189.57,170.71,c),
(190.81,162.98,o),
(190.21,156.9,o),
(192.71,152.67,cs),
(208.15,126.57,o),
(201.54,101.08,o),
(189.49,77.01,cs),
(175.89,49.83,o),
(160.53,47.33,o),
(136.56,64.83,c),
(131.53,55.2,o),
(126.46,45.5,o),
(121.26,35.56,c),
(137.23,19.01,o),
(156.8,12.91,o),
(178.17,21.44,cs)
);
},
{
closed = 1;
nodes = (
(276.49,21.16,o),
(273.49,38.43,o),
(270.38,56.38,c),
(263.93,47.26,o),
(257.49,38.18,o),
(248.48,25.45,c),
(259.25,17.96,o),
(269.37,10.92,o),
(279.48,3.89,c)
);
},
{
closed = 1;
nodes = (
(312.27,-8.21,o),
(313.4,-6.42,o),
(314.53,-4.62,c),
(302.7,5.71,o),
(314.17,30.25,o),
(293.77,34.86,cs),
(293.76,34.87,ls),
(288.11,22.24,o),
(283.93,12.93,o),
(279.79,3.67,c),
(279.68,3.74,o),
(279.58,3.82,o),
(279.48,3.89,c),
(279.52,3.67,o),
(279.56,3.45,o),
(279.6,3.23,c),
(279.6,3.23,o),
(279.6,3.23,o),
(279.6,3.22,cs),
(279.95,3.55,l),
(290.35,-0.97,o),
(300.74,-5.48,o),
(311.14,-10,c)
);
},
{
closed = 1;
nodes = (
(141.25,185.23,o),
(141.39,185.31,o),
(141.01,185.04,cs)
);
},
{
closed = 1;
nodes = (
(357.26,1.51,o),
(369.78,16.27,o),
(370.14,43.03,cs),
(370.36,59.71,o),
(367.3,76.54,o),
(368.72,93.04,cs),
(369.59,103.15,o),
(374.36,114.14,o),
(380.55,122.33,cs),
(396.59,143.56,o),
(414.7,163.21,o),
(431.42,183.95,cs),
(453.47,211.3,o),
(443.3,237.89,o),
(422.65,267.95,c),
(403.25,237.23,o),
(383.84,206.51,o),
(361.39,170.96,c),
(363.3,189.51,o),
(364.55,201.7,o),
(365.8,213.9,c),
(363.91,214.69,o),
(362.03,215.47,o),
(360.14,216.25,c),
(356.78,210.96,o),
(351.36,206.02,o),
(350.39,200.33,cs),
(344.51,166.02,o),
(338.71,131.64,o),
(334.79,97.07,cs),
(332.55,77.29,o),
(341.83,50.32,o),
(331.84,38.66,cs),
(315.97,20.13,o),
(325.04,8.6,o),
(327.72,-7.1,c)
);
},
{
closed = 1;
nodes = (
(363.25,386.08,o),
(379.54,394.91,o),
(386.93,405.22,cs),
(397.8,420.35,o),
(386.11,434.77,o),
(374.23,446.32,cs),
(368.24,452.15,o),
(358.44,457.34,o),
(357.1,464.15,cs),
(348.11,509.88,o),
(324.82,509.31,o),
(286.24,496.14,cs),
(261.98,487.86,o),
(237.12,480.91,o),
(212.07,475.5,cs),
(201.28,473.17,o),
(189.33,476.23,o),
(177.9,476.83,c),
(177.22,473.74,o),
(176.53,470.65,o),
(175.85,467.56,c),
(185.84,464.11,o),
(195.88,457.59,o),
(205.8,457.77,cs),
(238.93,458.38,o),
(272.75,457.93,o),
(304.85,464.76,cs),
(304.85,464.74,ls),
(325.23,469.07,o),
(333.15,460.67,o),
(341.87,450.6,c),
(336.02,436.5,o),
(325.94,423.36,o),
(327.01,411.22,cs),
(327.86,401.6,o),
(342.47,385.91,o),
(350.86,385.98,cs)
);
},
{
closed = 1;
nodes = (
(485.45,73.05,o),
(493.49,94.46,o),
(492.53,116.07,cs),
(489.88,175.79,o),
(483.51,235.35,o),
(479.33,295.01,cs),
(478.73,303.62,o),
(478.93,316.65,o),
(484.12,320.56,cs),
(508.47,338.95,o),
(513.13,366.52,o),
(521.18,392.46,cs),
(522.79,397.67,o),
(520.06,405.59,o),
(516.82,410.65,cs),
(508.9,423.01,o),
(500.05,434.9,o),
(490.53,446.09,cs),
(482.59,455.42,o),
(473.16,463.47,o),
(464.38,472.09,c),
(462.19,470.2,o),
(460.01,468.31,o),
(457.83,466.41,c),
(462.95,458.54,o),
(468.02,450.64,o),
(473.19,442.8,cs),
(490.5,416.56,o),
(492.63,358.77,o),
(472.64,344.46,cs),
(451.69,329.46,o),
(454.91,313.72,o),
(458.05,293.14,cs),
(465.96,241.42,o),
(471.58,189.33,o),
(477.01,137.27,cs),
(477.76,130.09,o),
(472.58,122.12,o),
(469.58,114.74,cs),
(463.8,100.51,o),
(457.61,86.44,o),
(449.53,67.47,c)
);
},
{
closed = 1;
nodes = (
(350.59,409.67,o),
(340.59,416.1,o),
(340.9,421.99,cs),
(341.3,429.53,o),
(349.99,436.65,o),
(359.38,450.05,c),
(367.01,436.52,o),
(375.25,428.4,o),
(373.75,422.99,cs),
(371.64,415.42,o),
(362.27,409.87,o),
(356,403.47,c)
);
}
);
width = 574;
}
);
note = dollar;
unicode = 36;
},
{
glyphname = percent;
lastChange = "2024-06-01 14:57:49 +0000";
layers = (
{
layerId = "FB7D8E3D-7C75-4663-899C-C1BEB8CD7630";
shapes = (
{
closed = 1;
nodes = (
(421.63,282.01,o),
(438.39,306.04,o),
(443.49,339.94,c),
(466.06,335.37,o),
(489.31,328.5,o),
(502.25,353.33,cs),
(502.23,353.31,ls),
(511.06,370.26,o),
(511.31,388.83,o),
(497.63,410.78,c),
(496.68,396.27,o),
(498.56,386.01,o),
(494.87,378.47,cs),
(490.2,368.94,o),
(480.97,354.93,o),
(473.75,354.95,cs),
(462.72,354.99,o),
(448.2,362.79,o),
(441.47,371.93,cs),
(428.5,389.58,o),
(436.97,407.94,o),
(459.38,417.82,cs),
(467.9,421.58,o),
(476.91,424.22,o),
(485.7,427.38,c),
(485.22,429.24,o),
(484.74,431.1,o),
(484.26,432.95,c),
(472.28,431.63,o),
(460.31,430.31,o),
(453.24,429.54,c),
(440.01,443.09,o),
(428.97,454.39,o),
(415.04,468.65,c),
(420.08,447.62,o),
(430.36,425.83,o),
(425.33,421.39,cs),
(414.52,411.85,o),
(394.79,405.62,o),
(380.58,408.24,cs),
(355.04,412.94,o),
(359.41,436.44,o),
(364.02,459.58,c),
(338.25,444.55,o),
(348.02,424.72,o),
(349.02,413.13,c),
(326.25,397.71,o),
(306.63,384.43,o),
(287.82,371.69,c),
(287.82,427.01,l),
(285.42,427.13,o),
(283.01,427.25,o),
(280.61,427.38,c),
(279.36,410.94,o),
(278.11,394.5,o),
(276.83,377.8,c),
(264.72,383.24,o),
(252.81,388.59,o),
(240.65,394.06,c),
(239.81,430.29,o),
(229.16,439.4,o),
(190.8,432.6,c),
(201.44,429.5,o),
(211.2,429.39,o),
(216.26,424.46,cs),
(222.16,418.72,o),
(228.99,403.68,o),
(226.72,401.43,cs),
(210.21,385,o),
(193.59,364.55,o),
(172.91,357.64,cs),
(152.97,350.98,o),
(139.78,371.51,o),
(134.38,391.95,cs),
(134.04,393.23,o),
(130.65,393.7,o),
(128.4,394.67,c),
(125.74,363.75,o),
(132.53,356.35,o),
(178.83,338.85,c),
(179.67,314.56,o),
(183.43,288.65,o),
(210.78,282.55,cs),
(249.3,273.97,o),
(275.2,297.79,o),
(296.95,327.27,c),
(318.21,294.08,o),
(347.02,274.15,o),
(386.81,278.34,cs)
);
},
{
closed = 1;
nodes = (
(85.43,211.41,o),
(87.28,213.51,o),
(89.14,215.61,c),
(85.35,225.36,o),
(83.4,236.6,o),
(77.13,244.36,cs),
(72.77,249.76,o),
(62.49,250.37,o),
(54.85,253.12,c),
(54.4,244.38,o),
(50.23,232.53,o),
(54.35,227.59,cs),
(61.34,219.2,o),
(73.55,215.17,o),
(83.57,209.31,c)
);
},
{
closed = 1;
nodes = (
(330.71,28.23,o),
(343.8,41.67,o),
(334.87,59.15,c),
(331.37,59.76,o),
(327.87,60.37,o),
(324.37,60.98,c),
(316.94,14.82,l),
(319.47,14.38,o),
(321.99,13.95,o),
(324.52,13.52,c)
);
},
{
closed = 1;
nodes = (
(102.55,280.98,o),
(119.95,305.38,o),
(137.35,329.78,c),
(107.24,314.14,o),
(87.33,291.46,o),
(85.15,256.58,c)
);
},
{
closed = 1;
nodes = (
(412.3,33.11,o),
(421.99,47.96,o),
(411.52,66.3,c),
(408.1,66.97,o),
(404.69,67.64,o),
(401.26,68.31,c),
(398.2,52.32,o),
(395.15,36.35,o),
(392.1,20.38,c),
(395.33,19.72,o),
(398.56,19.07,o),
(401.79,18.41,c)
);
},
{
closed = 1;
nodes = (
(203.36,150.15,o),
(216.39,153.91,o),
(225.76,161.94,cs),
(233.83,168.86,o),
(236.07,186.67,o),
(250.98,177.82,cs),
(258.96,173.08,o),
(262.18,160.34,o),
(270.97,145.42,c),
(281.29,152.99,o),
(293.13,163.26,o),
(306.45,170.97,cs),
(317.87,177.58,o),
(331.33,185.48,o),
(343.23,184.54,cs),
(349.69,184.03,o),
(354.8,166.28,o),
(362.23,153.31,c),
(379.31,150.49,o),
(396.51,159.77,o),
(395.81,181.28,cs),
(394.92,208.47,o),
(374.04,182.89,o),
(362.03,189.95,c),
(356.57,206.97,o),
(347.16,224.21,o),
(324.14,217.74,cs),
(305.64,212.54,o),
(288.4,202.9,o),
(267.94,194.08,c),
(256.44,203.18,o),
(242.18,214.67,o),
(227.69,225.87,cs),
(214.98,235.69,o),
(199.22,229.65,o),
(195.91,211.98,cs),
(191.94,190.8,o),
(190.62,169.12,o),
(187.55,142.38,c)
);
},
{
closed = 1;
nodes = (
(202.02,298.01,o),
(197.19,313.55,o),
(197.09,331.38,cs),
(196.98,349.9,o),
(226.9,377.72,o),
(245.84,378.16,cs),
(260.37,378.49,o),
(280.56,354.72,o),
(280.02,337.91,cs),
(279.42,319.24,o),
(248.41,296.43,o),
(219.6,296.94,cs)
);
},
{
closed = 1;
nodes = (
(382.9,288.59,o),
(361.53,295.6,o),
(342.05,307.23,cs),
(322.33,318.99,o),
(308.3,335.47,o),
(310.62,359.81,cs),
(311.38,367.77,o),
(317.03,377.26,o),
(323.4,382.33,cs),
(348.94,402.64,o),
(406.05,387.46,o),
(419.36,357.58,cs),
(422.02,351.6,o),
(423.1,344.92,o),
(426.18,334.08,c),
(419.4,324.89,o),
(413.27,311.45,o),
(402.9,303.64,cs)
);
},
{
closed = 1;
nodes = (
(543.97,217.76,o),
(564.63,227.3,o),
(570.84,263.1,c),
(555.67,257.12,o),
(542.48,251.92,o),
(528.84,246.54,cs),
(528.83,246.55,ls),
(513.71,267.27,o),
(498.11,288.65,o),
(482.51,310.02,c),
(479.81,308.06,o),
(477.12,306.11,o),
(474.42,304.15,c),
(483.63,278.04,o),
(502.75,257.76,o),
(522.17,238.91,cs)
);
},
{
closed = 1;
nodes = (
(546.95,301.16,o),
(530.41,327.1,o),
(513.88,353.04,c),
(505.42,322.86,o),
(531.95,284.34,o),
(565.94,271.36,c)
);
}
);
width = 623;
}
);
note = percent;
unicode = 37;
},
{
glyphname = ampersand;
lastChange = "2024-06-01 14:57:49 +0000";
layers = (
{
layerId = "FB7D8E3D-7C75-4663-899C-C1BEB8CD7630";
shapes = (
{
closed = 1;
nodes = (
(282.83,-11.08,o),
(289.12,4.49,o),
(295.51,20.34,c),
(338.73,-32.76,o),
(414.09,-42.29,o),
(467.78,2,cs),
(483.48,14.95,o),
(492.46,38.47,o),
(499.11,58.91,cs),
(502.41,69.04,o),
(493.44,83.17,o),
(489.86,96.05,cs),
(489.87,96.06,ls),
(467.63,77.7,o),
(451.33,62.52,o),
(433.31,49.76,cs),
(399.85,26.05,o),
(365.49,27.18,o),
(330.48,48.09,cs),
(320.88,53.82,o),
(307.32,52.9,o),
(294.31,55.25,c),
(281.29,117.89,o),
(242.94,170.82,o),
(187.34,199.01,cs),
(146.92,219.51,o),
(107.46,214.64,o),
(70.94,189.56,cs),
(58.82,181.24,o),
(44.47,170.13,o),
(57.93,151.49,c),
(72.85,178.88,o),
(102.04,189.33,o),
(137.13,178.23,cs),
(200.56,158.18,o),
(239.48,113.43,o),
(258.44,51.33,cs),
(265.98,26.61,o),
(268.2,0.27,o),
(274.16,-32.59,c)
);
},
{
closed = 1;
nodes = (
(57.73,150.95,o),
(57.92,151.06,o),
(58.11,151.21,cs),
(58.12,151.2,ls),
(58.08,151.26,o),
(58.05,151.3,o),
(58.02,151.36,cs),
(57.99,151.4,o),
(57.97,151.43,o),
(57.94,151.47,cs),
(57.81,151.24,o),
(57.67,151.03,o),
(57.54,150.8,c)
);
},
{
closed = 1;
nodes = (
(266.86,25.9,o),
(227.66,109.32,o),
(179.08,143.8,cs),
(140.22,171.38,o),
(100.45,183.72,o),
(58.12,151.21,c),
(75.98,121.97,o),
(95.64,155.34,o),
(116.05,149.36,cs),
(116.04,149.37,ls),
(115.41,146.45,o),
(114.45,143.58,o),
(114.21,140.64,cs),
(109.33,79.92,o),
(131.85,30.95,o),
(180.41,-4.77,cs),
(204.99,-22.85,o),
(225.87,-12.47,o),
(230.94,17.01,cs),
(232.01,23.24,o),
(233.79,29.34,o),
(235.3,35.75,c),
(260.68,18.05,o),
(238.68,-15.88,o),
(261.56,-41.23,c)
);
},
{
closed = 1;
nodes = (
(378.01,104.16,o),
(413.05,109.61,o),
(442.29,135.71,cs),
(447.94,140.76,o),
(450.15,149.66,o),
(453.47,155.88,c),
(416.21,155.88,o),
(383.95,154.58,o),
(351.88,156.47,cs),
(337.44,157.32,o),
(321.79,160.25,o),
(320.97,142.86,cs),
(320.53,133.61,o),
(332.45,117.91,o),
(341.8,115.09,cs)
);
},
{
closed = 1;
nodes = (
(344.77,191.88,o),
(349.49,202.58,o),
(349.34,241.58,c),
(350.2,240.66,l),
(350.16,240.88,o),
(350.17,241.06,o),
(350.13,241.27,cs),
(350.03,241.31,o),
(349.93,241.35,o),
(349.83,241.39,cs),
(344.99,251.19,o),
(335.12,262.3,o),
(337.2,270.29,cs),
(343.66,295.12,o),
(355,318.68,o),
(365.98,346.66,c),
(356.35,340.36,o),
(344.56,336.78,o),
(340.3,329.06,cs),
(330.07,310.5,o),
(323.37,290,o),
(314.73,269.04,c),
(308.74,268.26,o),
(296.54,268.76,o),
(286.21,264.6,cs),
(279.2,261.77,o),
(274.82,252.4,o),
(269.27,245.96,c),
(275.93,241.22,o),
(282.19,233.26,o),
(289.34,232.37,cs),
(307.28,230.12,o),
(312.68,218.34,o),
(316.16,203.95,cs),
(316.15,203.96,ls),
(317.98,196.41,o),
(318.91,188.65,o),
(320.37,180.28,c)
);
},
{
closed = 1;
nodes = (
(365.45,235.12,o),
(381.31,229.08,o),
(394.87,243.7,cs),
(400.22,249.46,o),
(401.97,258.55,o),
(406.7,269.15,c),
(390.78,268,o),
(381.85,266.66,o),
(372.96,266.85,cs),
(354.63,267.25,o),
(347.28,258.88,o),
(350.15,241.27,c)
);
}
);
width = 552;
}
);
note = ampersand;
unicode = 38;
},
{
glyphname = quotesingle;
lastChange = "2024-06-01 14:57:49 +0000";
layers = (
{
layerId = "FB7D8E3D-7C75-4663-899C-C1BEB8CD7630";
shapes = (
{
closed = 1;
nodes = (
(370.28,-5.55,o),
(364.75,13.45,o),
(355.79,36.51,cs),
(339.86,77.48,o),
(356.51,111.53,o),
(396.35,130.72,cs),
(406.49,135.6,o),
(413.27,147.45,o),
(421.59,156.1,c),
(414.6,162.11,o),
(405.42,166.86,o),
(401.1,174.4,cs),
(401.12,174.38,ls),
(393.18,188.24,o),
(387.25,203.47,o),
(382.5,218.76,cs),
(381.52,221.93,o),
(388.68,231.05,o),
(393.16,231.94,cs),
(422.57,237.74,o),
(423.37,253.07,o),
(409.74,275.03,cs),
(407.22,279.09,o),
(407.13,284.61,o),
(405.71,289.4,cs),
(397.84,316.1,o),
(389.91,342.77,o),
(383.34,364.91,c),
(362.75,361.19,o),
(346.38,359.62,o),
(330.86,355.14,cs),
(296.02,345.08,o),
(247.77,357.06,o),
(239.27,301.59,cs),
(239.2,301.12,o),
(236.67,301.03,o),
(233.62,300.43,c),
(234.17,309.6,o),
(234.69,318.36,o),
(235.4,330.23,c),
(221.82,324,o),
(209.54,320.49,o),
(199.99,313.34,cs),
(191.6,307.05,o),
(184.63,297.48,o),
(180.02,287.91,cs),
(175.24,278.01,o),
(174.06,266.38,o),
(171.3,255.51,c),
(169.97,255.9,o),
(168.63,256.29,o),
(167.29,256.68,c),
(168.29,268.81,o),
(169.3,280.95,o),
(170.31,293.08,c),
(168.26,294.6,o),
(166.2,296.11,o),
(164.15,297.63,c),
(137.85,272.56,o),
(111.54,247.5,o),
(82.07,219.41,c),
(84.83,233.08,o),
(83.62,245.5,o),
(89.25,251.83,cs),
(116.93,283,o),
(144.45,314.87,o),
(176.1,341.69,cs),
(191.93,355.11,o),
(215.92,360.57,o),
(237.17,365.53,cs),
(275.01,374.37,o),
(313.57,380.1,o),
(351.83,387.12,c),
(352.25,389.26,o),
(352.68,391.41,o),
(353.1,393.55,c),
(306.13,401.11,o),
(247.11,382.32,o),
(226.98,455.24,c),
(212.85,410.88,o),
(187.15,388.37,o),
(150.04,377.91,cs),
(145.41,376.6,o),
(139.35,371.39,o),
(138.49,367.09,cs),
(132.69,337.9,o),
(110.81,322.45,o),
(89.43,306.03,cs),
(83.3,301.31,o),
(76.02,294.7,o),
(74.57,287.83,cs),
(66.05,247.59,o),
(59.09,207.02,o),
(52.49,171.34,c),
(64.64,181.82,o),
(80.98,197.58,o),
(98.99,211.1,cs),
(136.92,239.59,o),
(145.12,237.14,o),
(165.02,194.87,cs),
(165.51,193.83,o),
(167.81,193.62,o),
(169.18,193.07,c),
(193.27,202.39,o),
(191.97,243.26,o),
(228.53,240.24,c),
(230.13,226.98,o),
(232.62,214.64,o),
(232.82,202.28,cs),
(233.04,189.12,o),
(232.91,177.14,o),
(251.42,175.16,c),
(272.76,232.42,o),
(312.49,273.11,o),
(362.96,308.53,c),
(368.35,290.56,o),
(372.58,276.49,o),
(379.04,254.97,c),
(369.57,263.8,o),
(365.31,267.01,o),
(362.06,271.03,cs),
(358.84,275.01,o),
(356.65,279.82,o),
(352.42,286.93,c),
(336.19,235.78,o),
(357.81,191.43,o),
(366.81,146.01,c),
(363.65,145.19,o),
(360.49,144.36,o),
(357.33,143.54,c),
(347.4,175.32,o),
(337.46,207.11,o),
(327.38,239.37,c),
(300.77,239.08,o),
(273.49,208.51,o),
(267.84,169.04,c),
(280.25,180.81,o),
(291.72,191.69,o),
(303.18,202.57,c),
(299.01,162.43,o),
(268.63,130.81,o),
(279.65,88.48,c),
(286.88,107.31,o),
(294.12,126.15,o),
(303.08,149.45,c),
(308.38,126.09,o),
(311.54,108.82,o),
(316.33,92.01,cs),
(321.13,75.17,o),
(328.51,59.03,o),
(332.97,42.12,cs),
(336.94,27.07,o),
(351.88,8.46,o),
(320.78,0.13,c),
(328.18,-6.58,o),
(333.55,-11.45,o),
(337.27,-14.83,c)
);
},
{
closed = 1;
nodes = (
(385.36,407.58,o),
(385.48,410.49,o),
(385.59,413.4,c),
(349.18,413.4,l),
(359.75,388.98,o),
(372.2,394.83,o),
(385.24,404.67,c)
);
},
{
closed = 1;
nodes = (
(394.29,425.3,o),
(410.09,427.8,o),
(414.34,432.71,cs),
(414.35,432.72,ls),
(419.96,439.2,o),
(419.76,450.7,o),
(421.17,456.42,c),
(380.54,456.42,l),
(383.73,446.91,o),
(384.72,435.31,o),
(390.99,428.75,cs)
);
}
);
width = 474;
}
);
note = quotesingle;
unicode = (39,8216,8217);
},
{
glyphname = parenleft;
lastChange = "2024-06-01 14:57:49 +0000";
layers = (
{
layerId = "FB7D8E3D-7C75-4663-899C-C1BEB8CD7630";
shapes = (
{
closed = 1;
nodes = (
(204.58,121.59,o),
(243.12,129.25,o),
(280.58,142.48,cs),
(326.45,158.68,o),
(333.77,189.75,o),
(302.4,225.47,c),
(310.74,262.94,o),
(326.7,299.6,o),
(307.55,343.18,c),
(301.79,334.85,o),
(298.94,331.29,o),
(296.68,327.39,cs),
(281.23,300.73,o),
(267.61,272.8,o),
(250.08,247.59,cs),
(229.45,217.93,o),
(208.16,218.18,o),
(190.02,249.72,cs),
(172.75,279.74,o),
(161.09,312.98,o),
(143.74,352.07,c),
(208.86,341.21,o),
(267.51,330.65,o),
(317.43,373.84,c),
(303.51,411.49,o),
(219.41,431.26,o),
(192.13,402.04,cs),
(187.47,397.04,o),
(186.97,388.15,o),
(185.64,384.26,c),
(209.19,389.5,o),
(229.52,395.21,o),
(250.24,397.76,cs),
(255.11,398.36,o),
(261.3,388.26,o),
(266.87,383.08,c),
(261.65,378.43,o),
(256.1,369.46,o),
(251.26,369.83,cs),
(220.78,372.17,o),
(189.92,374.24,o),
(160.3,381.16,cs),
(141.96,385.44,o),
(140.51,401.71,o),
(156.76,411.88,cs),
(172.07,421.46,o),
(189.5,430.83,o),
(206.96,433.2,cs),
(262.01,440.68,o),
(312.25,433.17,o),
(337.41,371.97,c),
(352.3,402.72,o),
(337.46,430.91,o),
(301.84,444.29,cs),
(279.47,452.7,o),
(271.16,467.21,o),
(278.94,490.06,cs),
(283.06,502.14,o),
(291.9,512.6,o),
(299.76,525.71,c),
(257.99,516.59,o),
(269,481.57,o),
(265.12,454.94,c),
(247.14,455.85,o),
(230.8,456.69,o),
(214.31,457.53,c),
(219.02,490.29,o),
(211.66,515.83,o),
(188.17,522.82,cs),
(164.32,529.91,o),
(152.66,542.61,o),
(144.42,564.31,c),
(146.26,552.44,o),
(148.11,540.56,o),
(149.95,528.69,c),
(136.88,518.1,o),
(127.92,505.26,o),
(120.48,491.59,cs),
(119.83,490.4,o),
(131.73,479.31,o),
(133.54,480.33,cs),
(148.64,488.88,o),
(162.75,499.2,o),
(180.95,511.55,c),
(192.55,507.4,o),
(200.21,494.22,o),
(199.53,475.19,cs),
(198.87,456.73,o),
(186.58,451.59,o),
(171.53,445.17,cs),
(171.52,445.18,ls),
(144.02,433.45,o),
(110.29,419.97,o),
(114.01,384.09,cs),
(119.9,327.25,o),
(133.48,271.21,o),
(143.29,217.63,c),
(135.86,201.24,o),
(123.1,185.71,o),
(123.14,170.21,cs),
(123.19,147.34,o),
(144.52,138.67,o),
(164.75,132.92,cs)
);
},
{
closed = 1;
nodes = (
(335.21,74.85,o),
(354.44,77.67,o),
(370.82,84.67,cs),
(380.69,88.89,o),
(391.41,103.36,o),
(391.8,113.61,cs),
(392.11,121.69,o),
(378.65,134.12,o),
(368.75,137.86,cs),
(353.85,143.49,o),
(336.74,143.21,o),
(319.16,145.64,c),
(324.67,120.03,o),
(304.91,117.87,o),
(294.72,117.58,cs),
(232.42,115.83,o),
(169.93,114.86,o),
(107.75,118.17,cs),
(91.71,119.03,o),
(76.53,136.18,o),
(60.96,145.85,c),
(58.14,144.28,o),
(55.33,142.71,o),
(52.51,141.15,c),
(60.16,127.88,o),
(64.86,110.62,o),
(76.15,102.29,cs),
(92.31,90.36,o),
(112.93,79.04,o),
(132.28,77.85,cs),
(193.75,74.07,o),
(255.52,74.36,o),
(317.16,74.74,cs)
);
},
{
closed = 1;
nodes = (
(392.03,296.78,o),
(401.69,316.34,o),
(407.45,336.99,cs),
(411.67,352.13,o),
(407.94,368.3,o),
(389.62,373.1,cs),
(371.2,377.94,o),
(354.44,374.29,o),
(340.97,353.56,c),
(350.1,353.56,o),
(355.64,353.32,o),
(361.14,353.6,cs),
(388.51,355.01,o),
(391.79,352.06,o),
(387.56,324.48,cs),
(385.24,309.35,o),
(380.41,294.6,o),
(376.71,279.68,c),
(379.15,278.7,o),
(381.59,277.73,o),
(384.04,276.75,c)
);
},
{
closed = 1;
nodes = (
(280.27,593.55,o),
(297.24,600.26,o),
(303.38,612.43,cs),
(307.14,619.89,o),
(297.37,639.38,o),
(288.27,647.02,cs),
(270.45,661.98,o),
(259.98,674.97,o),
(277.42,696.32,cs),
(278.45,697.58,o),
(277,700.86,o),
(276.68,703.46,c),
(249.72,687.2,o),
(244.78,667.65,o),
(262.82,650.57,cs),
(284.56,630,o),
(284.91,609.94,o),
(263.89,590.39,c),
(265.22,588.44,o),
(266.54,586.49,o),
(267.87,584.54,c)
);
}
);
width = 461;
}
);
note = parenleft;
unicode = 40;
},
{
glyphname = parenright;
lastChange = "2024-06-01 14:57:49 +0000";
layers = (
{
layerId = "FB7D8E3D-7C75-4663-899C-C1BEB8CD7630";
shapes = (
{
closed = 1;
nodes = (
(141.94,14.73,o),
(151.71,68.94,o),
(172.33,111.65,c),
(178.79,96.65,o),
(183.15,83.16,o),
(190.12,71.2,cs),
(199.01,55.94,o),
(208.82,55.81,o),
(216.89,72.93,cs),
(230.74,102.31,o),
(246.86,130.81,o),
(258.25,161.1,cs),
(267.48,185.65,o),
(272.42,212.08,o),
(276.55,238.11,cs),
(277.81,246.04,o),
(270.08,255.39,o),
(266.47,264.1,c),
(263.91,263.46,o),
(261.35,262.82,o),
(258.8,262.18,cs),
(258.79,262.17,ls),
(247.97,222.96,o),
(237.14,183.75,o),
(227.07,147.23,c),
(214.84,168.71,o),
(204.66,192.83,o),
(188.66,212.16,cs),
(180.11,222.5,o),
(161.55,224.56,o),
(147.51,230.35,c),
(144.57,216.31,o),
(138.38,202.01,o),
(139.5,188.3,cs),
(140.94,170.6,o),
(148.23,153.37,o),
(153,135.92,c),
(79.72,111.57,o),
(62.61,102.33,o),
(52.5,81.29,c),
(79.35,89.81,o),
(106,98.26,o),
(132.65,106.72,c),
(134.51,104.33,o),
(136.36,101.93,o),
(138.22,99.54,c),
(122.91,83.02,o),
(109.42,64.12,o),
(91.76,50.7,cs),
(76.22,38.9,o),
(72.17,27.93,o),
(78.93,10.24,c)
);
},
{
closed = 1;
nodes = (
(346.66,97.96,o),
(356.39,136.22,o),
(370.74,169.78,c),
(415.71,150.15,o),
(459.53,159.74,o),
(503.31,170.47,c),
(503.5,174.18,o),
(503.7,177.89,o),
(503.89,181.6,c),
(467.7,185.78,o),
(431.51,189.96,o),
(394.54,194.23,cs),
(394.53,194.22,ls),
(424.25,210.42,o),
(454.14,226.71,o),
(484.03,243.01,c),
(483.08,245.45,o),
(482.13,247.89,o),
(481.19,250.34,c),
(445.44,251.4,o),
(412.52,239.06,o),
(374.98,219.72,c),
(389.99,257.81,o),
(402.65,289.93,o),
(415.3,322.05,c),
(338.98,260.73,o),
(333.52,166.64,o),
(302.91,76.94,c)
);
}
);
width = 556;
}
);
note = parenright;
unicode = 41;
},
{
glyphname = asterisk;
lastChange = "2024-06-01 14:57:49 +0000";
layers = (
{
layerId = "FB7D8E3D-7C75-4663-899C-C1BEB8CD7630";
shapes = (
{
closed = 1;
nodes = (
(249.19,-11.62,o),
(254.99,26.14,o),
(261.78,63.72,cs),
(263.08,70.92,o),
(266.52,80.5,o),
(272.04,83.71,cs),
(300.63,100.35,o),
(330.55,114.72,o),
(359.37,131,cs),
(381.28,143.39,o),
(402.92,152.87,o),
(429.38,140.49,c),
(425.89,82.72,o),
(422.39,24.6,o),
(418.88,-33.52,c),
(422.97,-34.12,o),
(427.05,-34.73,o),
(431.14,-35.34,c),
(442.91,19.8,o),
(454.68,74.93,o),
(467.01,132.7,c),
(463.99,77.2,o),
(461.12,24.43,o),
(458.19,-29.55,c),
(466.36,-28.4,o),
(469.11,-28.64,o),
(469.43,-27.87,cs),
(490.97,23.28,o),
(506.84,75.85,o),
(503.67,132.06,cs),
(503.65,132.06,ls),
(503.27,138.71,o),
(493.74,146.1,o),
(486.85,150.8,cs),
(479.15,156.05,o),
(468.42,157.06,o),
(461.09,162.63,cs),
(422.82,191.76,o),
(382.66,193.52,o),
(340.84,172.26,cs),
(324.46,163.94,o),
(308.93,153.94,o),
(293.12,144.53,cs),
(263.65,126.97,o),
(249.6,126.87,o),
(232.48,156.62,cs),
(215.32,186.45,o),
(206.08,220.85,o),
(193.58,253.33,cs),
(191.2,259.51,o),
(189.8,266.06,o),
(187.95,272.43,c),
(185.23,271.89,o),
(182.51,271.34,o),
(179.79,270.8,c),
(161,218.52,o),
(180.08,170.63,o),
(202.86,122.51,c),
(180.45,121.72,o),
(167.34,110.8,o),
(162.4,90.38,cs),
(154.49,57.72,o),
(169.06,2.43,o),
(192.59,-14.79,c),
(187.13,30.1,o),
(181.16,73.48,o),
(215.81,107.32,c),
(237.68,97.79,o),
(239.89,82.6,o),
(237.12,60.69,cs),
(232.96,27.67,o),
(234.62,-6.11,o),
(234.32,-39.56,cs),
(234.29,-42.9,o),
(237.86,-46.27,o),
(242.27,-54.07,c)
);
},
{
closed = 1;
nodes = (
(88.32,251.75,o),
(99.59,269.51,o),
(107.75,285.87,cs),
(111.45,293.29,o),
(107.27,309.29,o),
(100.95,316.09,cs),
(87.8,330.21,o),
(71.26,327.55,o),
(56.59,315.33,cs),
(55.33,314.28,o),
(53.87,313.46,o),
(52.5,312.54,c),
(52.5,262.24,l),
(56.34,260.93,o),
(60.12,259.41,o),
(64.02,258.35,cs)
);
}
);
width = 556;
}
);
note = asterisk;
unicode = 42;
},
{
glyphname = plus;
lastChange = "2024-06-01 14:57:49 +0000";
layers = (
{
layerId = "FB7D8E3D-7C75-4663-899C-C1BEB8CD7630";
shapes = (
{
closed = 1;
nodes = (
(216.06,27.93,o),
(222.63,37.32,o),
(229.94,43.16,cs),
(229.93,43.15,ls),
(223.23,50.46,o),
(217.77,60.15,o),
(209.51,64.47,cs),
(199.09,69.91,o),
(186.38,70.96,o),
(170.07,75.06,c),
(190.17,94.87,o),
(187.47,120.79,o),
(166.43,134.69,cs),
(142.92,150.24,o),
(125.15,169.2,o),
(121.75,197.77,cs),
(120.91,204.86,o),
(125.26,217,o),
(130.68,219.59,cs),
(149.1,228.38,o),
(148.83,241.14,o),
(143.71,257.05,cs),
(129.84,300.21,o),
(142.9,323.49,o),
(185.94,338.58,cs),
(194.84,341.7,o),
(204.31,352.67,o),
(207,361.92,cs),
(211.46,377.21,o),
(210.28,394.08,o),
(212.11,410.22,cs),
(213.84,425.57,o),
(205.34,433.32,o),
(191.55,427.93,cs),
(170.23,419.6,o),
(149.01,411.01,o),
(124.85,401.37,c),
(135.61,397.27,o),
(147.02,392.93,o),
(159.35,388.23,c),
(142.79,368.44,o),
(121.17,350.95,o),
(111.15,328.32,cs),
(100.91,305.2,o),
(102.06,277.04,o),
(98.9,255.61,c),
(93.3,258.26,o),
(83.17,267.24,o),
(75.48,265.49,cs),
(67.81,263.75,o),
(62.6,251.24,o),
(52.5,238.74,c),
(69.62,237.87,o),
(78.16,237.43,o),
(86.96,236.99,c),
(73.14,187.39,o),
(85.72,146.83,o),
(121.23,112.42,cs),
(125.33,108.45,o),
(129.08,101.61,o),
(128.95,96.2,cs),
(127.77,47.76,o),
(161.69,16.6,o),
(207.89,26.23,cs)
);
},
{
closed = 1;
nodes = (
(255.93,-42.53,o),
(265.64,-39.05,o),
(271.45,-32.24,cs),
(281.42,-20.55,o),
(288.96,-6.78,o),
(297.51,6.11,c),
(294.65,12.05,l),
(283.87,9.16,o),
(273.1,6.28,o),
(261.36,3.13,c),
(248.63,35.87,o),
(225.35,8.72,o),
(206.79,12.84,c),
(205.67,9.89,o),
(204.55,6.95,o),
(203.43,4.01,c),
(212.65,-0.91,o),
(221.87,-5.84,o),
(233.09,-11.82,c),
(233.09,-13.57,o),
(231.78,-18.23,o),
(233.34,-21.53,cs),
(237.57,-30.49,o),
(243.01,-38.88,o),
(247.98,-47.5,c)
);
},
{
closed = 1;
nodes = (
(247.96,71.48,o),
(261.8,76.74,o),
(275.65,81.99,c),
(275.88,84.35,o),
(276.12,86.7,o),
(276.37,89.06,c),
(265.6,89.75,o),
(254.2,92.84,o),
(244.27,90.28,cs),
(237.84,88.62,o),
(233.54,78.7,o),
(228.28,72.48,c),
(230.23,70.4,o),
(232.17,68.31,o),
(234.11,66.22,c)
);
},
{
closed = 1;
nodes = (
(358.36,-35.79,o),
(380.9,-30.46,o),
(388.76,-15.34,c),
(365.29,-2.77,o),
(341.88,9.76,o),
(317.06,23.04,c),
(308.71,0.71,o),
(315.25,-15.84,o),
(335.85,-25.38,cs)
);
},
{
closed = 1;
nodes = (
(311.56,35.1,o),
(327.9,35.88,o),
(344.25,36.65,c),
(345.71,38.81,o),
(347.17,40.98,o),
(348.63,43.15,c),
(336.6,46.94,o),
(324.73,52.85,o),
(312.5,53.67,cs),
(305.86,54.11,o),
(298.64,45.89,o),
(291.68,41.58,c),
(292.86,39.16,o),
(294.04,36.74,o),
(295.22,34.32,c)
);
},
{
closed = 1;
nodes = (
(396.32,58.12,o),
(399.13,61.36,o),
(401.94,64.6,c),
(391.7,74.7,o),
(382.47,86.25,o),
(370.81,94.3,cs),
(364.59,98.6,o),
(354.16,97.5,o),
(345.68,97.2,cs),
(344.14,97.14,o),
(342.89,89.13,o),
(341.51,84.79,c),
(349.01,82.88,o),
(356.52,80.98,o),
(364.03,79.08,c),
(363.13,78.12,o),
(362.23,77.16,o),
(361.33,76.2,c),
(372.06,69.1,o),
(382.79,61.99,o),
(393.52,54.89,c)
);
},
{
closed = 1;
nodes = (
(196.75,279.77,o),
(203.48,287.59,o),
(216.73,296.86,c),
(202.91,304.97,o),
(193.06,314.14,o),
(189.52,312.14,cs),
(181.48,307.6,o),
(176.55,297.56,o),
(170.36,289.76,c),
(176.61,285.68,o),
(183.51,277.6,o),
(188.95,278.49,cs)
);
},
{
closed = 1;
nodes = (
(454.44,69.58,o),
(475.33,87.14,o),
(469.57,112.71,cs),
(464.51,135.14,o),
(466.34,148.82,o),
(492.92,149.87,cs),
(497.38,150.03,o),
(502.56,153.15,o),
(505.93,156.42,cs),
(538.88,188.45,o),
(548.08,249.6,o),
(527.61,291.58,cs),
(524.15,298.68,o),
(523.84,307.87,o),
(524,316.06,cs),
(524.25,329.43,o),
(523.26,338.43,o),
(506.07,330.77,cs),
(499.33,327.77,o),
(491.13,328.05,o),
(481.49,326.5,c),
(483.84,319.28,o),
(484.67,313.51,o),
(487.41,308.88,cs),
(497.64,291.64,o),
(498.8,274.75,o),
(489.12,256.69,cs),
(478.96,237.73,o),
(481,222.87,o),
(506.78,220.35,c),
(498.99,196.13,o),
(495.04,175.01,o),
(464.74,169.59,cs),
(442.22,165.56,o),
(429.7,145.87,o),
(431.83,120.1,cs),
(433.06,105.11,o),
(432.05,89.94,o),
(432.05,73.87,c)
);
},
{
closed = 1;
nodes = (
(509.87,104.01,o),
(519.66,112.86,o),
(522.06,120.87,cs),
(523.65,126.19,o),
(513.55,135.02,o),
(504.46,148.56,c),
(494.3,134.6,o),
(484.95,127.09,o),
(484.2,118.82,cs),
(483.71,113.36,o),
(497.05,100.89,o),
(501.65,102.01,cs)
);
},
{
closed = 1;
nodes = (
(504.64,362.5,o),
(466.48,420.98,o),
(444.39,424.27,cs),
(442.77,424.51,o),
(440.92,423.69,o),
(439.42,424.15,cs),
(415.36,431.54,o),
(390.41,436.98,o),
(367.58,447.17,cs),
(347.11,456.3,o),
(336.21,453.74,o),
(330.91,431.67,cs),
(329.8,427.06,o),
(328.74,422.44,o),
(327.51,417.23,c),
(290.93,426.32,o),
(257.53,424.89,o),
(232.16,394.99,cs),
(227.73,389.78,o),
(229.43,379.38,o),
(228.29,371.38,c),
(230.5,370.15,o),
(232.71,368.92,o),
(234.92,367.69,c),
(266.76,401.15,o),
(300.49,396.99,o),
(335.99,376.84,cs),
(344.04,372.26,o),
(356.58,368.25,o),
(363.71,371.45,cs),
(370.84,374.65,o),
(373.78,387.2,o),
(381.15,400.25,c),
(419.7,379.32,o),
(458.79,358.08,o),
(498.61,336.45,c)
);
}
);
width = 592;
}
);
note = plus;
unicode = 43;
},
{
glyphname = comma;
lastChange = "2024-06-01 14:57:49 +0000";
layers = (
{
layerId = "FB7D8E3D-7C75-4663-899C-C1BEB8CD7630";
shapes = (
{
closed = 1;
nodes = (
(85.61,285.34,o),
(112.16,302.84,o),
(141.13,308.97,cs),
(202.2,321.88,o),
(264.79,327.42,o),
(326.21,338.92,cs),
(350.92,343.54,o),
(375.71,353.17,o),
(397.62,365.56,cs),
(415.13,375.46,o),
(424.43,397.93,o),
(414.49,415.86,cs),
(406.27,430.7,o),
(388.6,443.34,o),
(372.28,449.87,cs),
(353.35,457.45,o),
(332.21,452.99,o),
(317.73,435.44,cs),
(305.24,420.29,o),
(309.32,406.27,o),
(327.79,401.4,c),
(327.04,424.08,o),
(339.99,437.61,o),
(360.66,434.96,cs),
(374.23,433.22,o),
(392.75,423.5,o),
(397.83,412.27,cs),
(406.99,392,o),
(390.2,377.24,o),
(372.28,370.69,cs),
(352.21,363.34,o),
(330.73,357.43,o),
(309.53,356.01,cs),
(234.98,351.03,o),
(161.75,340.45,o),
(91.35,314.29,c),
(98.81,320.38,o),
(105.54,327.82,o),
(113.86,332.34,cs),
(145.4,349.47,o),
(177.36,365.85,o),
(209.36,382.12,cs),
(223.63,389.37,o),
(232.24,395.8,o),
(228.45,416.24,cs),
(221.38,454.4,o),
(246.35,489.31,o),
(283.28,501.17,cs),
(288.1,502.72,o),
(292.82,504.59,o),
(297.59,506.31,c),
(287.43,511.66,o),
(277.57,513.72,o),
(268.95,511.31,cs),
(231.1,500.73,o),
(210.55,473.17,o),
(212.57,433.68,cs),
(213.53,414.92,o),
(209.13,405.57,o),
(190.92,395.93,cs),
(149.73,374.13,o),
(111.05,347.54,o),
(71.79,322.21,cs),
(64.32,317.39,o),
(58.87,309.44,o),
(52.48,302.94,c),
(53.51,301.83,o),
(54.54,300.72,o),
(55.57,299.61,c),
(62.54,301.34,o),
(69.51,303.08,o),
(76.47,304.81,c),
(68.64,295.09,o),
(60.8,285.36,o),
(52.97,275.63,c)
);
},
{
closed = 1;
nodes = (
(169.12,43.6,o),
(178.95,74.63,o),
(218.32,101.54,c),
(189.22,104.91,o),
(169.61,87.92,o),
(163.46,62.15,cs),
(157.58,37.46,o),
(167.7,12.87,o),
(189.73,4.48,c)
);
},
{
closed = 1;
nodes = (
(154.65,120.63,o),
(161.69,127.02,o),
(165.06,133.98,cs),
(173.85,152.08,o),
(160.31,189.9,o),
(140.85,206.08,cs),
(119.94,223.45,o),
(95.27,224.29,o),
(71.8,201.05,c),
(79.17,201.05,o),
(86.55,200.76,o),
(93.91,201.11,cs),
(115.54,202.14,o),
(130.23,192.02,o),
(140.82,173.75,cs),
(150.06,157.81,o),
(147.85,146.33,o),
(131.5,136.49,cs),
(128.46,134.66,o),
(127.65,122.78,o),
(130.46,119.36,cs),
(133.28,115.92,o),
(143.2,114.75,o),
(147.7,117.06,cs)
);
},
{
closed = 1;
nodes = (
(240.14,42.13,o),
(246.9,70.41,o),
(274.59,96.1,c),
(246.3,100.37,o),
(240.76,82.98,o),
(236.13,69.76,cs),
(228.79,48.76,o),
(224.48,26.2,o),
(249.19,9.77,c)
);
},
{
closed = 1;
nodes = (
(370.52,-11.83,o),
(392.09,27.56,o),
(383.8,57.49,cs),
(382.09,63.66,o),
(376.31,70.08,o),
(370.65,73.23,cs),
(370.65,73.21,ls),
(367.66,74.87,o),
(357.21,70.47,o),
(356.59,67.47,cs),
(355.28,61.14,o),
(358.07,53.9,o),
(359.46,47.09,cs),
(360.92,40.02,o),
(366.44,30.33,o),
(363.67,26.51,cs),
(355.92,15.82,o),
(345.21,0.84,o),
(334.91,0.23,cs),
(324.28,-0.4,o),
(309.13,11.55,o),
(302.35,22.1,cs),
(284.98,49.1,o),
(293.69,76.41,o),
(308.62,102.19,cs),
(320.73,123.09,o),
(336.79,142.82,o),
(343.62,165.34,cs),
(350.04,186.52,o),
(350.33,211.28,o),
(346.61,233.34,cs),
(342.91,255.26,o),
(324.71,258.97,o),
(308.55,243.44,c),
(332.06,226.83,o),
(339.96,206.07,o),
(330.67,176.79,cs),
(324.7,157.96,o),
(315.3,139.82,o),
(305.01,122.85,cs),
(289.45,97.18,o),
(278.44,70.55,o),
(281.22,40.21,cs),
(284.58,3.66,o),
(314.09,-22.32,o),
(344.24,-16.72,cs)
);
},
{
closed = 1;
nodes = (
(534.54,92.08,o),
(553.5,97.32,o),
(561.24,115.29,cs),
(565.82,125.93,o),
(563.26,147.04,o),
(555.49,153.91,cs),
(543.13,164.83,o),
(523.95,168.57,o),
(507.1,173.38,cs),
(507.13,173.4,ls),
(504.06,174.28,o),
(498.3,165.76,o),
(493.79,161.59,c),
(498.26,157.61,o),
(502.13,151.96,o),
(507.35,150.06,cs),
(513.36,147.88,o),
(522.6,151.57,o),
(526.84,148.2,cs),
(536.22,140.76,o),
(543.35,130.49,o),
(551.4,121.36,c),
(540.99,114.75,o),
(528.67,100.9,o),
(520.57,103.04,cs),
(504.19,107.36,o),
(485.35,117.1,o),
(476.15,130.52,cs),
(461.26,152.21,o),
(455.82,180.22,o),
(441.76,202.66,cs),
(428.46,223.87,o),
(411.6,244.4,o),
(392.04,259.82,cs),
(351.4,291.87,o),
(304.12,279.82,o),
(259.81,269.74,cs),
(205.2,257.32,o),
(185.7,207.54,o),
(212.93,158.96,cs),
(226.94,133.97,o),
(251.28,125.7,o),
(274.07,138.2,cs),
(299.5,152.15,o),
(312.54,183.7,o),
(299.95,206.06,cs),
(295.94,213.19,o),
(284.66,220.71,o),
(277.27,220.17,cs),
(270.1,219.65,o),
(263.54,209.15,o),
(257.1,202.65,cs),
(256.48,202.02,o),
(258.65,198.63,o),
(259.7,196.08,c),
(265.83,199.53,o),
(271.39,202.66,o),
(277.93,206.34,c),
(295.52,186.06,o),
(288.78,169.62,o),
(272.71,159.28,cs),
(264.61,154.07,o),
(246.73,153.59,o),
(239.65,159.13,cs),
(212.79,180.15,o),
(218.48,233.22,o),
(249.64,246.68,cs),
(319.47,276.83,o),
(375.28,270.3,o),
(418.85,201.25,cs),
(433.1,178.67,o),
(444.76,154.47,o),
(458.03,131.25,cs),
(470.45,109.53,o),
(488.67,96.59,o),
(514.28,94.07,cs)
);
},
{
closed = 1;
nodes = (
(471.52,23.37,o),
(508.92,23.33,o),
(529.6,44.85,c),
(514.32,44.85,o),
(501.01,42.67,o),
(488.69,45.25,cs),
(446.26,54.13,o),
(417.22,91.41,o),
(416.03,135.86,cs),
(415.47,156.52,o),
(414.68,177.18,o),
(413.99,197.83,c),
(384.78,122.46,o),
(396.15,75.92,o),
(440.94,44.69,cs)
);
},
{
closed = 1;
nodes = (
(144.87,437.09,o),
(155.17,438.03,o),
(156.24,441.13,cs),
(168.47,476.86,o),
(174.63,480.4,o),
(213.67,468.74,c),
(208,492.22,o),
(193.97,499.52,o),
(170.43,493.44,cs),
(145.36,486.97,o),
(128.84,466.7,o),
(133.6,447.85,cs),
(134.59,443.93,o),
(137.02,437.28,o),
(138.91,437.23,cs)
);
},
{
closed = 1;
nodes = (
(492.24,211.28,o),
(495.48,218.98,o),
(493.14,221.52,cs),
(472.51,243.89,o),
(451.53,266.04,o),
(429.19,286.68,cs),
(421.69,293.62,o),
(410,296.03,o),
(396.48,302.22,c),
(398.68,294.22,o),
(398.55,291.01,o),
(400.02,289.91,cs),
(430.08,267.38,o),
(460.85,245.73,o),
(476.94,209.58,cs),
(478.19,206.76,o),
(486.54,207.1,o),
(491.59,205.97,c)
);
},
{
closed = 1;
nodes = (
(586.59,221.06,o),
(608.03,242.96,o),
(606.96,270.96,c),
(572.33,241.24,o),
(567.92,240.63,o),
(528.32,261.05,cs),
(528.33,261.06,ls),
(510.56,270.22,o),
(493.27,280.3,o),
(475.59,289.63,cs),
(469.65,292.77,o),
(463.18,294.92,o),
(456.95,297.52,c),
(455.69,295.19,o),
(454.44,292.86,o),
(453.19,290.53,c),
(484.05,261.51,o),
(515.45,232.24,o),
(559.97,225.24,cs)
);
},
{
closed = 1;
nodes = (
(439.09,316.63,o),
(479.26,319.91,o),
(517.66,329.8,cs),
(533.86,333.97,o),
(547.15,352.2,o),
(559.69,365.93,cs),
(562.83,369.37,o),
(559.54,385.71,o),
(556.55,386.54,cs),
(540.61,390.97,o),
(523.86,393.06,o),
(507.29,393.93,cs),
(505.12,394.04,o),
(502.34,382.49,o),
(499.84,376.34,cs),
(499.85,376.33,ls),
(505.5,376.35,o),
(511.32,375.5,o),
(516.78,376.56,cs),
(528.7,378.88,o),
(540.45,382.16,o),
(552.26,385.05,c),
(553.95,382.05,o),
(555.64,379.06,o),
(557.32,376.06,c),
(551.04,368.27,o),
(546.3,356.77,o),
(538.18,353.41,cs),
(517,344.62,o),
(494.73,336.98,o),
(472.17,333.32,cs),
(440.91,328.24,o),
(408.99,327.22,o),
(377.35,324.46,c),
(377.2,322.11,o),
(377.05,319.77,o),
(376.9,317.42,c),
(384.45,315.41,o),
(392.31,310.93,o),
(399.5,311.81,cs)
);
},
{
closed = 1;
nodes = (
(495.05,469.12,o),
(514.3,475.08,o),
(533.54,481.05,c),
(533.82,483.11,o),
(534.09,485.17,o),
(534.35,487.23,c),
(525.73,489.11,o),
(516.62,493.7,o),
(508.59,492.26,cs),
(493.84,489.62,o),
(486.46,493.09,o),
(480.16,507.38,cs),
(473.51,522.46,o),
(465.21,523.67,o),
(452.47,519.08,c),
(461.25,501.14,o),
(470.2,482.87,o),
(479.32,464.24,c)
);
}
);
width = 660;
}
);
note = comma;
unicode = 44;
},
{
glyphname = hyphen;
lastChange = "2024-06-01 14:57:49 +0000";
layers = (
{
layerId = "FB7D8E3D-7C75-4663-899C-C1BEB8CD7630";
shapes = (
{
closed = 1;
nodes = (
(300.68,-1.55,o),
(349.32,16.51,o),
(392.08,51.57,cs),
(398.21,56.6,o),
(402.63,63.72,o),
(407.84,69.87,c),
(404.71,78.01,l),
(302.81,8.7,o),
(206.54,41.1,o),
(108.91,87.73,c),
(112.87,92.42,o),
(115.22,95.81,o),
(118.15,98.57,cs),
(183.62,160.29,o),
(223.2,236.41,o),
(241.94,323.65,cs),
(244.82,337.07,o),
(242.34,351.65,o),
(242.34,370.3,c),
(197.09,346.6,o),
(157.26,325.75,o),
(115.96,304.12,c),
(109.16,317.18,o),
(104.92,329.46,o),
(97.19,338.85,cs),
(90.8,346.6,o),
(80.76,352.08,o),
(71.31,356.19,cs),
(67.65,357.78,o),
(59.1,354.2,o),
(56.62,350.44,cs),
(54.71,347.55,o),
(58.26,340.44,o),
(60.36,335.64,cs),
(66.28,322.1,o),
(74.34,309.28,o),
(78.59,295.27,cs),
(89.3,259.94,o),
(103.58,254,o),
(134.79,274.27,cs),
(156.09,288.11,o),
(177.15,302.32,o),
(203.64,319.9,c),
(177.61,214.99,o),
(138.83,126.07,o),
(52.5,69.53,c),
(85.82,56.35,o),
(118.77,41.55,o),
(152.91,30.36,cs),
(182.96,20.51,o),
(214,12.66,o),
(245.2,7.55,cs)
);
},
{
closed = 1;
nodes = (
(235.81,-35.89,o),
(241.56,-29.35,o),
(249.82,-19.95,c),
(241.99,-12,o),
(237.05,-7,o),
(232.12,-1.99,c),
(227.94,-9.01,o),
(221.1,-15.79,o),
(220.42,-23.13,cs),
(219.86,-29.22,o),
(226.57,-35.98,o),
(230.06,-42.44,c)
);
},
{
closed = 1;
nodes = (
(309.34,-47.77,o),
(314.54,-42.97,o),
(324.07,-34.19,c),
(313.39,-23.79,o),
(306.01,-16.6,o),
(298.63,-9.41,c),
(294.42,-14.94,o),
(285.6,-22.12,o),
(286.87,-25.69,cs),
(290.34,-35.46,o),
(298.08,-43.72,o),
(304.13,-52.57,c)
);
},
{
closed = 1;
nodes = (
(181.44,375.55,o),
(207.27,387.57,o),
(230.42,407.28,c),
(215.18,438.17,o),
(128.13,480.52,o),
(97.49,468.67,c),
(114.41,457.76,o),
(129.38,448.13,o),
(147.01,436.76,c),
(126.96,440.64,o),
(109.96,443.92,o),
(92.97,447.21,c),
(91.82,443.93,o),
(90.67,440.66,o),
(89.52,437.38,c),
(112.62,427.61,o),
(135.73,417.84,o),
(160.64,407.3,c),
(149.09,403.2,o),
(139.57,399.82,o),
(130.05,396.44,cs),
(130.06,396.45,ls),
(129.84,394.25,o),
(129.62,392.05,o),
(129.4,389.85,c),
(136.34,386.87,o),
(143.02,382.46,o),
(150.26,381.15,cs)
);
},
{
closed = 1;
nodes = (
(482.19,278.7,o),
(498.11,291.04,o),
(511.46,305.72,cs),
(517.06,311.87,o),
(517.22,322.98,o),
(519.86,331.84,c),
(511.35,329.09,o),
(500.64,328.68,o),
(494.74,323.14,cs),
(494.73,323.15,ls),
(478.18,307.63,o),
(460.06,303.55,o),
(439.47,310.8,cs),
(406.45,322.42,o),
(373.79,335.05,o),
(340.87,346.96,cs),
(331.61,350.31,o),
(322.13,353.57,o),
(312.47,354.96,cs),
(308.87,355.48,o),
(302.53,351.39,o),
(301.01,347.86,cs),
(299.54,344.44,o),
(301.12,337.17,o),
(304,334.8,cs),
(350.06,297.05,o),
(404.44,279.52,o),
(471.75,269.38,c)
);
},
{
closed = 1;
nodes = (
(323.51,405.08,o),
(335.78,428.81,o),
(334.08,446.04,c),
(322.79,437.04,o),
(307.01,414.87,o),
(295.01,416.76,cs),
(264.19,421.62,o),
(268.11,453.85,o),
(262.67,474.9,c),
(290.79,481.45,o),
(317.32,485.37,o),
(341.89,494.55,cs),
(350.67,497.83,o),
(356.05,513.29,o),
(360.18,524.24,cs),
(361.64,528.1,o),
(355.33,539.55,o),
(351.64,540,cs),
(315.26,544.45,o),
(278.09,551.47,o),
(243.9,531.35,cs),
(226.59,521.16,o),
(226.68,503.94,o),
(240.71,489.44,cs),
(246.79,483.15,o),
(250.74,474.1,o),
(253.62,465.61,cs),
(257.08,455.41,o),
(257.34,444.15,o),
(260.79,433.96,cs),
(269.56,408,o),
(286.82,396.08,o),
(306.66,400.94,cs)
);
},
{
closed = 1;
nodes = (
(280.6,532.29,o),
(313.93,524.75,o),
(345.76,532.21,c),
(340.27,502.65,o),
(293.47,492.43,o),
(250.14,509.6,c)
);
},
{
closed = 1;
nodes = (
(403.73,372.76,o),
(443.3,379.79,o),
(458.4,401.53,c),
(442.35,403.72,o),
(428.05,405.66,o),
(413.59,407.63,c),
(433.03,419.63,o),
(452.47,431.63,o),
(471.91,443.63,c),
(470.43,446.63,o),
(468.96,449.64,o),
(467.48,452.64,c),
(446.33,446.99,o),
(425.19,441.34,o),
(399.24,434.4,c),
(418.46,450.58,o),
(433.72,463.44,o),
(448.99,476.29,c),
(444.58,482.12,l),
(398.51,472.17,o),
(363.55,443.37,o),
(330.88,411.04,cs),
(328.24,408.43,o),
(327.29,400.78,o),
(329.2,397.86,cs),
(331.08,394.98,o),
(337.61,395.16,o),
(342.09,393.99,cs),
(355.65,390.47,o),
(370.17,388.94,o),
(382.55,382.97,cs)
);
}
);
width = 572;
}
);
note = hyphen;
unicode = 45;
},
{
glyphname = period;
lastChange = "2024-06-01 14:57:49 +0000";
layers = (
{
layerId = "FB7D8E3D-7C75-4663-899C-C1BEB8CD7630";
shapes = (
{
closed = 1;
nodes = (
(271.42,291.09,o),
(238.6,373.8,o),
(205.79,456.51,c),
(194.43,428.6,o),
(275.72,231.32,o),
(306.27,203.25,c)
);
},
{
closed = 1;
nodes = (
(181.34,158.52,o),
(119.7,164.92,o),
(52.49,171.9,c),
(65.76,147.77,o),
(207.83,134.68,o),
(242.98,152.12,c)
);
},
{
closed = 1;
nodes = (
(242.46,191.31,l),
(191.63,211.82,o),
(140.85,232.47,o),
(89.84,252.52,cs),
(86.6,253.79,o),
(81.54,250.44,o),
(77.33,249.24,c),
(80.02,244.81,o),
(81.75,237.75,o),
(85.56,236.35,cs),
(136.23,217.7,o),
(187.19,199.84,o),
(238.08,181.78,c)
);
},
{
closed = 1;
nodes = (
(181.98,279.92,o),
(144.31,317.08,o),
(128.65,311.53,c),
(155.85,284.01,o),
(182.78,256.75,o),
(209.72,229.49,c)
);
},
{
closed = 1;
nodes = (
(322.26,154.5,o),
(334.68,163.58,o),
(336.61,174.52,cs),
(337.77,181.1,o),
(322.59,190.56,o),
(314.75,198.72,c),
(307.3,189.35,o),
(299.84,180,o),
(289.5,167.01,c),
(300.1,157.43,o),
(307.18,151.03,o),
(314.26,144.63,c)
);
},
{
closed = 1;
nodes = (
(255.68,230.83,o),
(257.99,232.18,o),
(260.3,233.53,c),
(168.66,392.2,l),
(164.97,390.22,o),
(161.29,388.24,o),
(157.61,386.26,c),
(182.15,329.62,o),
(216.66,278.9,o),
(253.37,229.48,c)
);
},
{
closed = 1;
nodes = (
(300.34,262,o),
(302.61,262.39,o),
(304.87,262.78,c),
(293.59,331.42,o),
(282.31,400.05,o),
(271.03,468.69,c),
(259.34,467.87,l),
(263.04,397.5,o),
(276.52,328.85,o),
(298.07,261.61,c)
);
},
{
closed = 1;
nodes = (
(427.46,152.17,o),
(492.99,145.91,o),
(557.03,161.6,c),
(556.5,166.01,o),
(555.98,170.42,o),
(555.45,174.82,c),
(508.32,171.09,o),
(461.18,167.36,o),
(414.05,163.63,c),
(413.88,165.22,o),
(413.71,166.81,o),
(413.54,168.41,c),
(470.73,178.97,o),
(527.92,189.52,o),
(585.11,200.07,c),
(546.63,213.95,o),
(392.59,177.72,o),
(358.43,151.55,c)
);
},
{
closed = 1;
nodes = (
(328.33,352.71,o),
(333.57,407.37,o),
(339.01,464.04,c),
(316.9,451.55,o),
(306.38,339.77,o),
(322.53,292.31,c)
);
},
{
closed = 1;
nodes = (
(415.08,183.49,ls),
(473.79,202.96,o),
(532.5,222.43,o),
(591.22,241.89,c),
(590.01,245.48,o),
(588.8,249.07,o),
(587.58,252.66,c),
(527.17,238.75,o),
(470.63,213.15,o),
(412.7,191.76,c),
(413.5,189,o),
(414.29,186.24,o),
(415.09,183.48,cs)
);
},
{
closed = 1;
nodes = (
(426.28,207.8,o),
(551.45,274.76,o),
(554.52,295.46,c),
(502.99,266.79,o),
(451.47,238.13,o),
(393.78,206.04,c)
);
},
{
closed = 1;
nodes = (
(345.39,249.25,o),
(349.46,250.07,o),
(353.55,250.89,c),
(358.85,256.69,o),
(365.44,261.75,o),
(369.25,268.41,cs),
(395.36,314.01,o),
(420.98,359.89,o),
(446.5,405.83,cs),
(449.84,411.84,o),
(451.68,418.68,o),
(454.22,425.13,c),
(451.79,426.38,o),
(449.35,427.64,o),
(446.92,428.89,c),
(415.69,374.21,o),
(384.45,319.52,o),
(353.22,264.83,c),
(369.75,327.85,o),
(386.28,390.88,o),
(402.81,453.91,c),
(379.9,437.08,o),
(341.46,295.47,o),
(341.22,248.41,c)
);
},
{
closed = 1;
nodes = (
(475.55,273.24,o),
(514.1,302.64,o),
(552.66,332.05,c),
(549.27,336.18,o),
(545.88,340.3,o),
(542.49,344.43,c),
(505.1,313.69,o),
(467.71,282.95,o),
(430.33,252.21,c),
(432.55,249.42,o),
(434.77,246.62,o),
(436.99,243.83,c)
);
},
{
closed = 1;
nodes = (
(445.66,304.56,o),
(475.32,342.96,o),
(506.29,383.06,c),
(482.78,386.1,o),
(424.02,311.26,o),
(416.01,266.17,c)
);
}
);
width = 644;
}
);
note = period;
unicode = 46;
},
{
glyphname = slash;
lastChange = "2024-06-01 14:57:49 +0000";
layers = (
{
layerId = "FB7D8E3D-7C75-4663-899C-C1BEB8CD7630";
shapes = (
{
closed = 1;
nodes = (
(237.24,92.61,o),
(243.81,145.62,o),
(263.7,193.19,c),
(276.92,190.27,o),
(291.68,181.86,o),
(300.39,186.04,cs),
(330.34,200.43,o),
(345.58,181.41,o),
(363.74,164.84,cs),
(378.56,151.32,o),
(394.63,139.13,o),
(410.55,126.88,cs),
(415.09,123.39,o),
(421.04,121.74,o),
(426.34,119.24,c),
(427.77,120.93,o),
(429.2,122.62,o),
(430.64,124.3,c),
(425.12,132.05,o),
(420.31,140.45,o),
(413.94,147.41,cs),
(395.28,167.8,o),
(375.42,187.11,o),
(357.35,207.99,cs),
(357.35,207.97,ls),
(352.53,213.53,o),
(349.24,223.88,o),
(350.72,230.88,cs),
(362.42,285.91,o),
(353.32,311.12,o),
(310.3,339.71,c),
(328.27,380.27,o),
(346.63,420.34,o),
(363.5,461.03,cs),
(366.63,468.58,o),
(363.76,478.61,o),
(363.67,487.5,c),
(357.12,482.4,o),
(347.7,478.67,o),
(344.52,471.97,cs),
(328.74,438.83,o),
(314.85,404.8,o),
(299.67,371.37,cs),
(296.97,365.42,o),
(292.35,358.59,o),
(286.82,356.05,cs),
(274.26,350.27,o),
(260.59,346.89,o),
(246.23,342.16,c),
(218.46,375.18,o),
(190.38,409.48,o),
(160.96,442.58,cs),
(156.38,447.73,o),
(145.6,447.36,o),
(137.69,449.54,c),
(138.99,442.17,o),
(137.88,432.85,o),
(141.99,427.75,cs),
(170.75,392.04,o),
(200.58,357.19,o),
(230.61,321.43,c),
(227.69,303.17,o),
(224.31,281.97,o),
(221.04,261.51,c),
(193.08,251.36,o),
(164.32,242.39,o),
(136.8,230.54,cs),
(110.25,219.1,o),
(76.76,220.53,o),
(52.49,187.53,c),
(120.83,188.86,o),
(173.91,215.93,o),
(226.47,241.67,c),
(234.92,229.18,o),
(241.45,219.53,o),
(246.19,212.53,c),
(233.09,155.17,o),
(200.01,107.09,o),
(208.45,47.95,c)
);
},
{
closed = 1;
nodes = (
(180.06,165.14,o),
(188.83,171.19,o),
(197.59,177.23,c),
(194.77,181.43,o),
(191.96,185.64,o),
(189.14,189.84,c),
(180.51,184.93,o),
(171.53,180.47,o),
(163.73,174.46,cs),
(162.85,173.77,o),
(168.62,164.43,o),
(171.3,159.1,c)
);
},
{
closed = 1;
nodes = (
(153.59,313.28,o),
(160.81,319.05,o),
(163.2,326.39,cs),
(164.36,329.96,o),
(156.46,336.46,o),
(152.65,341.64,c),
(146.74,335.45,o),
(139.51,329.98,o),
(135.55,322.73,cs),
(133.94,319.77,o),
(139.4,312.95,o),
(144.31,301.9,c)
);
},
{
closed = 1;
nodes = (
(278.65,227.76,o),
(258.68,256.01,o),
(258.51,283.33,c),
(255.51,301.84,o),
(263.62,311.74,o),
(286.11,310.71,cs),
(311.9,309.53,o),
(321.41,302.24,o),
(321.82,279.71,cs),
(322.28,254.07,o),
(309.23,228.24,o),
(295.69,228.03,cs)
);
},
{
closed = 1;
nodes = (
(268.09,409.02,o),
(274.72,414.5,o),
(286.56,421.46,c),
(276.05,428.49,o),
(268.27,436.52,o),
(265.41,435.04,cs),
(258.65,431.54,o),
(253.71,423.85,o),
(249.5,416.96,cs),
(248.94,416.04,o),
(257.79,406.24,o),
(260.55,406.99,cs),
(260.54,406.98,ls)
);
},
{
closed = 1;
nodes = (
(405.16,306.61,o),
(458.28,304.15,o),
(499.58,339.61,c),
(457.07,352.08,o),
(365.24,321.75,o),
(353.29,289.17,c)
);
},
{
closed = 1;
nodes = (
(387.67,359.46,o),
(394.97,366.95,o),
(404.67,372.9,c),
(395.14,380.47,o),
(389.81,387.04,o),
(383.14,388.96,cs),
(380.1,389.84,o),
(370.01,380.18,o),
(370.79,377.71,cs),
(372.86,371.12,o),
(378.08,363.38,o),
(384.03,360.95,cs)
);
}
);
width = 552;
}
);
note = slash;
unicode = 47;
},
{
glyphname = zero;
lastChange = "2024-06-01 14:57:49 +0000";
layers = (
{
layerId = "FB7D8E3D-7C75-4663-899C-C1BEB8CD7630";
shapes = (
{
closed = 1;
nodes = (
(340.27,103.47,o),
(349.27,110.33,o),
(358.49,116.75,c),
(354.74,121.89,o),
(351.85,128.1,o),
(347.06,131.94,cs),
(335.95,140.84,o),
(337.58,148.54,o),
(345.42,158.98,cs),
(369.73,191.38,o),
(377.44,229.31,o),
(361.59,265.4,cs),
(347.42,297.65,o),
(323.3,325.54,o),
(302.71,356.65,c),
(304.59,357.06,o),
(313.21,356.43,o),
(317.13,360.42,cs),
(321.96,365.33,o),
(322.87,374.08,o),
(325.47,381.18,c),
(309.69,383.55,o),
(283.86,392.73,o),
(279.98,387.02,cs),
(267.46,368.58,o),
(251.86,376.78,o),
(237.51,373.53,cs),
(219.03,369.35,o),
(201.09,362.73,o),
(183.02,356.81,cs),
(176.66,354.73,o),
(170.63,351.61,o),
(167.53,350.29,c),
(162.6,361.96,o),
(158.72,377.79,o),
(155.5,377.66,cs),
(134.42,376.78,o),
(129.04,360.4,o),
(124.76,340.9,c),
(156.46,340.9,l),
(97.12,278.52,o),
(88.73,214.9,o),
(141.01,149.57,cs),
(190.8,87.35,o),
(250.88,85.04,o),
(316.09,126.14,c),
(317.47,120.14,o),
(317.48,116.52,o),
(319.09,113.86,cs),
(322.56,108.14,o),
(329.53,97.81,o),
(330.4,98.27,cs)
);
},
{
closed = 1;
nodes = (
(192.28,76.01,o),
(198.49,82.28,o),
(205.08,86.29,c),
(197.89,90.43,o),
(190.4,98.35,o),
(183.57,97.81,cs),
(173.94,97.05,o),
(164.8,90.05,o),
(155.45,85.72,c),
(157.55,77.02,l),
(166.8,76.11,o),
(176.35,73.38,o),
(185.22,74.84,cs)
);
},
{
closed = 1;
nodes = (
(78.62,199.11,o),
(80.91,201.55,o),
(83.22,203.98,c),
(76.94,218.37,o),
(70.67,232.76,o),
(64.4,247.14,c),
(60.67,246.36,o),
(56.93,245.59,o),
(53.2,244.81,cs),
(53.19,244.82,ls),
(53.19,231.82,o),
(51.08,218.27,o),
(54.25,206.09,cs),
(55.48,201.36,o),
(68.61,199.72,o),
(76.32,196.67,c)
);
},
{
closed = 1;
nodes = (
(180.08,120.36,o),
(127.74,179.05,o),
(127.77,239.29,cs),
(127.8,296.62,o),
(176.06,346.65,o),
(231.22,346.54,cs),
(294.94,346.42,o),
(353.73,290.11,o),
(352.76,230.12,cs),
(351.83,172.54,o),
(294.72,119.44,o),
(234.21,119.92,cs)
);
},
{
closed = 1;
nodes = (
(177.01,228.51,o),
(187.06,230.04,o),
(197.12,231.28,c),
(196.24,236.9,o),
(195.36,242.51,o),
(194.48,248.13,c),
(184.5,246.28,o),
(174.46,244.68,o),
(164.73,241.96,cs),
(164.16,241.8,o),
(166.28,228.18,o),
(166.92,228.2,cs)
);
},
{
closed = 1;
nodes = (
(248.28,227.65,o),
(257.48,235.93,o),
(272.43,247.14,c),
(259.69,256.01,o),
(249.22,265.87,o),
(247.12,264.33,cs),
(237.62,257.36,o),
(229.55,247.75,o),
(223.4,237.6,cs),
(222.32,235.82,o),
(235.69,221.36,o),
(237.61,222.32,cs)
);
},
{
closed = 1;
nodes = (
(201.15,276.53,o),
(208.14,283.82,o),
(212.65,287.29,c),
(214.66,291.01,o),
(216.68,294.72,o),
(218.69,298.44,c),
(211.4,301.58,o),
(204.09,307.12,o),
(196.85,307.02,cs),
(191.86,306.95,o),
(186.97,299.08,o),
(182.04,294.69,c),
(187.73,288.76,o),
(192.84,281.92,o),
(199.56,277.56,cs)
);
},
{
closed = 1;
nodes = (
(305.77,239.42,o),
(312.98,244.91,o),
(312.72,250.03,cs),
(312.45,255.51,o),
(305.14,260.64,o),
(300.9,265.92,c),
(296.41,261.3,o),
(289.14,257.17,o),
(288.23,251.93,cs),
(287.33,246.75,o),
(292.87,240.47,o),
(298.19,229.11,c)
);
},
{
closed = 1;
nodes = (
(260.18,285.9,o),
(269.59,294.45,o),
(269.14,297.84,cs),
(268.41,303.38,o),
(262.15,308.18,o),
(255.31,317.08,c),
(249.28,308.79,o),
(242.3,302.7,o),
(243.42,300.02,cs),
(245.79,294.38,o),
(251.81,288.7,o),
(257.58,286.77,cs)
);
},
{
closed = 1;
nodes = (
(389.28,241.31,o),
(394.02,246.62,o),
(400.37,253.75,c),
(393.93,263.08,o),
(389.26,269.86,o),
(384.59,276.64,c),
(380.11,268.91,o),
(372.99,261.47,o),
(372.11,253.34,cs),
(371.54,248.07,o),
(380.08,241.81,o),
(384.54,235.99,c)
);
}
);
width = 453;
}
);
note = zero;
unicode = 48;
},
{
glyphname = one;
lastChange = "2024-06-01 14:57:49 +0000";
layers = (
{
layerId = "FB7D8E3D-7C75-4663-899C-C1BEB8CD7630";
shapes = (
{
closed = 1;
nodes = (
(216.51,66.55,o),
(226.84,71.43,o),
(233.25,69.22,cs),
(265.51,58.07,o),
(288.76,67.57,o),
(306.33,98.89,c),
(327.44,73.93,o),
(349.43,63.38,o),
(371.27,71,cs),
(397.5,80.15,o),
(423.21,91.34,o),
(447.95,103.99,cs),
(467.79,114.13,o),
(466.97,133.34,o),
(452.28,145.09,c),
(436.11,138.16,o),
(422.88,129.22,o),
(408.73,127.39,cs),
(395.05,125.62,o),
(383.22,124.7,o),
(371.39,115.76,cs),
(365.46,111.28,o),
(351.4,111.29,o),
(345.1,115.45,cs),
(339.33,119.26,o),
(334.5,133.78,o),
(337.41,139.29,cs),
(341.86,147.73,o),
(357.32,159.73,o),
(361.11,157.63,cs),
(361.07,157.6,ls),
(386.81,143.29,o),
(396.27,167.83,o),
(413.33,176.64,c),
(423.32,172.6,o),
(433.73,167.01,o),
(444.84,164.22,cs),
(464.31,159.33,o),
(471.21,167.72,o),
(465.55,187.11,cs),
(462.97,195.92,o),
(461.96,205.21,o),
(459.04,213.89,cs),
(456.4,221.75,o),
(453.47,230.17,o),
(448.32,236.39,cs),
(434.98,252.47,o),
(409.75,259.34,o),
(411.74,281.33,c),
(393.77,285.91,o),
(378.38,289.84,o),
(363.17,293.72,c),
(358.23,270.1,o),
(360.56,267.82,o),
(401.61,257.77,c),
(406.13,246.24,o),
(410.48,235.12,o),
(415.27,222.91,c),
(392.85,217.02,o),
(371.64,211.05,o),
(350.22,205.98,cs),
(338.51,203.2,o),
(325.28,198.05,o),
(314.91,201.18,cs),
(306.43,203.75,o),
(301.19,217,o),
(293.68,226.59,c),
(285.36,216.72,o),
(275.17,209.38,o),
(261.94,225.21,cs),
(248.4,241.4,o),
(237.22,261.52,o),
(210.85,260.82,cs),
(206.29,260.7,o),
(198.59,268.45,o),
(197.34,273.74,cs),
(192.88,292.65,o),
(182.18,303.58,o),
(164.06,310.3,cs),
(157.93,312.57,o),
(155.66,323.8,o),
(149.75,328.65,cs),
(145.6,332.05,o),
(138.28,331.58,o),
(132.38,332.84,c),
(131.29,318.14,o),
(127.34,302.84,o),
(130.26,288.99,cs),
(131.83,281.58,o),
(144.85,272.23,o),
(153.37,271.5,cs),
(173.98,269.74,o),
(182.38,256.7,o),
(181.79,240.84,cs),
(181.11,222.74,o),
(191.14,222.26,o),
(201.77,224.37,cs),
(212.44,226.48,o),
(222.24,232.93,o),
(233.51,237.96,c),
(233.51,234.9,o),
(233.6,231.14,o),
(233.49,227.39,cs),
(233.17,216.14,o),
(244.43,202.02,o),
(226.16,195.13,cs),
(208.81,188.58,o),
(194,189.53,o),
(183.53,208.26,cs),
(180.22,214.17,o),
(172.63,219.92,o),
(166.04,221.35,cs),
(141.41,226.7,o),
(125.18,238.24,o),
(128.83,268.41,c),
(121.42,270.63,l),
(117.42,263.66,o),
(113.42,256.7,o),
(111.77,253.81,c),
(96.83,261.98,o),
(84.11,268.94,o),
(71.38,275.9,c),
(68.63,274.33,o),
(65.88,272.77,o),
(63.13,271.2,c),
(67.76,256.44,o),
(69.95,240.06,o),
(78.18,227.68,cs),
(81.68,222.41,o),
(97.82,225.54,o),
(108.51,224.83,c),
(107.28,205.84,o),
(114.07,193.19,o),
(138.83,192.86,cs),
(147.18,192.75,o),
(158.65,184.1,o),
(163.08,176.2,cs),
(182.46,141.68,o),
(205.93,136.97,o),
(233.16,163.8,cs),
(236.15,166.74,o),
(241.29,168.74,o),
(245.54,168.93,cs),
(259.72,169.56,o),
(273.94,169.17,o),
(291,169.17,c),
(295.93,159.17,o),
(302.65,145.55,o),
(309.46,131.73,c),
(303.08,131.73,o),
(296.67,133.56,o),
(292.19,131.39,cs),
(278.54,124.79,o),
(264.95,109.86,o),
(252.61,111.06,cs),
(240.54,112.24,o),
(230.02,129.28,o),
(216.18,141.74,c),
(212.4,135.28,o),
(207.4,129.02,o),
(204.87,121.88,cs),
(201.07,111.17,o),
(206.3,93.52,o),
(186.74,95.62,cs),
(173.97,96.99,o),
(154.3,99.56,o),
(150.58,107.58,cs),
(138.72,133.06,o),
(94.59,138.04,o),
(111.81,180.08,c),
(77.25,162.85,o),
(70.5,165.83,o),
(59.32,199.59,c),
(46.59,184.95,o),
(54.4,172.47,o),
(61.47,160.66,cs),
(69.57,147.14,o),
(78.74,134.27,o),
(87.57,121.19,cs),
(90.7,116.55,o),
(93.8,111.79,o),
(97.57,107.68,cs),
(103.63,101.09,o),
(112.32,96.1,o),
(116.27,88.54,cs),
(133.04,56.44,o),
(178.74,43.46,o),
(209.59,62.32,cs)
);
},
{
closed = 1;
nodes = (
(339.28,223.51,o),
(356.36,233.34,o),
(355.61,251.08,cs),
(355.32,257.97,o),
(338.93,264.18,o),
(328.24,271.87,c),
(314.9,265.42,o),
(305.14,260.7,o),
(295.38,255.98,c),
(305.05,246.07,o),
(313.24,230.84,o),
(324.8,227.59,cs)
);
},
{
closed = 1;
nodes = (
(269.21,268.59,o),
(280.47,270.37,o),
(281.99,275.21,cs),
(289.18,298.08,o),
(306.22,308.25,o),
(327.58,315.54,c),
(340.99,302.38,o),
(358.8,291.84,o),
(374.75,306.65,cs),
(385.93,317.03,o),
(390.27,335.45,o),
(395.52,351.01,cs),
(396.65,354.35,o),
(389.34,362.23,o),
(384.27,365.12,cs),
(382.26,366.27,o),
(374.73,360.34,o),
(371.47,356.24,cs),
(360.52,342.44,o),
(310.74,317.42,o),
(294.25,319.12,cs),
(285.16,320.05,o),
(275.49,326.11,o),
(267.41,324.2,cs),
(229.88,315.34,o),
(208.27,334.76,o),
(216,375.39,c),
(203.55,378.49,o),
(190.92,381.64,o),
(178.28,384.78,c),
(170.04,379.78,l),
(180.17,359.44,o),
(186.67,335.68,o),
(201.58,319.82,cs),
(213.68,306.94,o),
(235.87,303.53,o),
(248.5,298.1,c),
(254.3,284.49,o),
(258.37,274.95,o),
(262.44,265.41,c)
);
},
{
closed = 1;
nodes = (
(301.21,350,o),
(314.25,351.94,o),
(322,364.67,cs),
(331.09,379.61,o),
(337.47,397.22,o),
(320.21,423.76,c),
(316.69,415.14,o),
(315.14,410.31,o),
(312.83,405.88,cs),
(297.18,375.9,o),
(284.75,374.74,o),
(261.82,400.05,cs),
(258.72,403.47,o),
(252.28,403.86,o),
(247.38,405.65,c),
(245.94,400.52,o),
(242.63,395.1,o),
(243.38,390.32,cs),
(247.03,367.11,o),
(262.85,359.15,o),
(284.62,353.95,cs)
);
}
);
width = 520;
}
);
note = one;
unicode = 49;
},
{
glyphname = two;
lastChange = "2024-06-01 14:57:49 +0000";
layers = (
{
layerId = "FB7D8E3D-7C75-4663-899C-C1BEB8CD7630";
shapes = (
{
closed = 1;
nodes = (
(235.21,1.54,o),
(308.01,44.67,o),
(316.4,104.26,cs),
(322.51,147.66,o),
(347.31,179.79,o),
(377.67,204.21,cs),
(424.03,241.51,o),
(442.31,282.84,o),
(420.59,338.65,c),
(429.9,341.67,o),
(438.13,343.34,o),
(445.44,346.9,cs),
(461.5,354.73,o),
(471.96,366.1,o),
(460.69,384.72,cs),
(451.83,399.37,o),
(430.66,402.31,o),
(416.52,391.19,cs),
(411.42,387.18,o),
(407.51,381.45,o),
(403.77,376.01,cs),
(394.33,362.29,o),
(383.96,355.56,o),
(367.43,366.27,cs),
(359.21,371.6,o),
(349.13,374.09,o),
(339.9,377.86,c),
(368.41,348.38,o),
(405.56,326.36,o),
(390.01,275.87,c),
(383.16,275.1,o),
(376.68,275.11,o),
(370.63,273.48,cs),
(364.93,271.94,o),
(359.69,268.67,o),
(355.47,266.72,c),
(356.38,280.01,o),
(357.18,291.67,o),
(357.97,303.33,c),
(329.55,303.33,l),
(332.01,309.77,o),
(334.53,316.4,o),
(337.06,323.03,c),
(322.8,325.74,o),
(308.54,328.45,o),
(294.52,331.12,c),
(301.63,351.95,o),
(296.55,360.1,o),
(273.89,355.69,cs),
(254.76,351.97,o),
(236.59,343.32,o),
(214.17,335.53,c),
(306.34,304.72,o),
(372.2,235.47,o),
(351.64,197.49,c),
(346.67,201.74,o),
(340.87,210.67,o),
(336.13,210.14,cs),
(306.15,206.81,o),
(292.1,184.91,o),
(283.75,158.84,c),
(281.28,159.67,o),
(280.04,159.72,o),
(279.8,160.23,cs),
(276.68,166.98,o),
(273.46,173.7,o),
(270.71,180.6,cs),
(248.75,235.7,o),
(207.26,272.15,o),
(156.11,298.48,cs),
(127.82,313.05,o),
(102.49,309.1,o),
(90.67,295.14,c),
(114.37,287.05,o),
(141.66,281.78,o),
(164.84,269.02,cs),
(222.81,237.13,o),
(253.94,181.68,o),
(267.72,120.91,cs),
(272.54,99.65,o),
(246.05,71.26,o),
(233.65,46.24,cs),
(233.17,45.27,o),
(230.57,45.08,o),
(228.92,44.99,cs),
(201.46,43.46,o),
(173.08,38.88,o),
(150.49,60.38,cs),
(132.5,77.5,o),
(114.89,95.13,o),
(98.48,113.74,cs),
(89.75,123.63,o),
(83.66,135.92,o),
(76.88,147.43,cs),
(70.24,158.71,o),
(64.25,170.37,o),
(57.98,181.86,c),
(56.15,180.6,o),
(54.32,179.34,o),
(52.49,178.08,c),
(67.15,107.58,o),
(107.75,58.55,o),
(174.61,28.64,cs)
);
},
{
closed = 1;
nodes = (
(240.73,66.21,o),
(253.73,76.33,o),
(247.33,96.59,cs),
(228,157.79,o),
(200.95,215.3,o),
(142.79,249.65,cs),
(131.71,256.2,o),
(110.69,258.1,o),
(101.25,251.74,cs),
(92.04,245.54,o),
(86.68,225.32,o),
(88.48,212.49,cs),
(95.61,161.85,o),
(120.4,119.48,o),
(161.26,88.62,cs),
(161.27,88.63,ls),
(176.6,77.05,o),
(196.53,71.56,o),
(205.44,67.42,c)
);
},
{
closed = 1;
nodes = (
(161.45,160.76,o),
(159.76,176.45,o),
(155.27,190.13,c),
(163.33,190.34,o),
(175.15,194.01,o),
(178.73,190.1,cs),
(178.74,190.11,ls),
(188.53,179.45,o),
(194.84,165.61,o),
(204.05,150.52,c),
(192.51,139.73,o),
(178.46,137.15,o),
(169.47,149.63,cs)
);
}
);
width = 518;
}
);
note = two;
unicode = 50;
},
{
glyphname = three;
lastChange = "2024-06-01 14:57:49 +0000";
layers = (
{
layerId = "FB7D8E3D-7C75-4663-899C-C1BEB8CD7630";
shapes = (
{
closed = 1;
nodes = (
(526.23,401.32,o),
(537.65,418.96,o),
(550.51,438.82,c),
(562.69,419.25,o),
(572.69,403.2,o),
(582.69,387.14,c),
(584.8,388.29,o),
(586.92,389.43,o),
(589.04,390.57,c),
(579.71,410.21,o),
(570.38,429.86,o),
(562.33,446.8,c),
(583.63,451.22,o),
(602.93,455.21,o),
(622.21,459.21,cs),
(622.22,459.2,ls),
(621.71,461.4,o),
(621.21,463.59,o),
(620.7,465.79,c),
(565.57,465.79,l),
(571.89,489.69,o),
(577.6,511.29,o),
(583.31,532.88,c),
(581.12,533.62,o),
(578.92,534.36,o),
(576.73,535.1,c),
(568.27,516.08,o),
(559.82,497.07,o),
(550.06,475.13,c),
(538.12,494.82,o),
(528.38,510.88,o),
(518.64,526.94,c),
(516.44,525.9,o),
(514.24,524.86,o),
(512.04,523.82,c),
(520.8,503.88,o),
(529.56,483.95,o),
(538.68,463.22,c),
(519.88,458.35,o),
(501.6,453.62,o),
(483.32,448.89,c),
(484.87,441.97,l),
(501.07,443.62,o),
(517.28,445.27,o),
(538.33,447.41,c),
(527.23,424.69,o),
(517.96,405.7,o),
(508.69,386.72,c),
(514.81,383.69,l)
);
},
{
closed = 1;
nodes = (
(316.96,-18,o),
(324.83,-7.87,o),
(332.99,2.66,c),
(339.73,-5.55,o),
(345.49,-12.56,o),
(355.92,-25.26,c),
(352.46,-10.82,o),
(350.83,-4.04,o),
(349.04,3.45,c),
(357.06,4.51,o),
(363.21,5.33,o),
(369.36,6.15,c),
(369.51,7.28,o),
(369.66,8.41,o),
(369.82,9.54,c),
(361.11,11.98,o),
(352.39,14.42,o),
(343.58,16.89,c),
(350.26,31.32,o),
(356.02,43.76,o),
(361.77,56.19,cs),
(361.76,56.18,ls),
(359.45,57.35,o),
(357.15,58.53,o),
(354.84,59.7,c),
(348.83,50.74,o),
(342.81,41.78,o),
(335.8,31.35,c),
(329,43.45,o),
(322.99,54.14,o),
(316.98,64.84,c),
(315.34,64.05,o),
(313.7,63.27,o),
(312.07,62.48,c),
(316.48,48.96,o),
(320.89,35.43,o),
(325.67,20.75,c),
(293.7,20.75,l),
(293.62,19.01,o),
(293.55,17.26,o),
(293.48,15.52,c),
(302.58,12.86,o),
(311.68,10.2,o),
(322.93,6.91,c),
(316.31,-5.07,o),
(310.53,-15.51,o),
(304.75,-25.96,c),
(306.19,-26.69,o),
(307.64,-27.41,o),
(309.09,-28.14,c)
);
},
{
closed = 1;
nodes = (
(80.32,401.17,o),
(94.52,402.33,o),
(103.26,407.42,cs),
(110.75,411.79,o),
(119.46,427.85,o),
(116.74,432.98,cs),
(111.47,442.95,o),
(99.05,449.77,o),
(88.36,455.64,cs),
(86.41,456.7,o),
(73.45,445.11,o),
(74.38,442.63,cs),
(77.41,434.46,o),
(84.49,427.8,o),
(90.01,420.56,c),
(91.59,421.97,o),
(93.16,423.37,o),
(94.74,424.78,c),
(90.61,430.48,o),
(86.48,436.19,o),
(82.35,441.9,c),
(84.35,444.87,o),
(86.35,447.85,o),
(88.34,450.82,c),
(96.52,444.22,o),
(104.71,437.62,o),
(112.89,431.02,c),
(103.91,423.3,o),
(95.96,411.26,o),
(85.73,408.83,cs),
(68.17,404.66,o),
(52.54,433.95,o),
(64.72,451.1,cs),
(73.59,463.58,o),
(89.93,470.75,o),
(100.8,478.71,c),
(85.96,484.77,o),
(66.85,476.34,o),
(56.4,454.7,cs),
(47.8,436.87,o),
(53.89,410.04,o),
(70.56,404.45,cs)
);
},
{
closed = 1;
nodes = (
(238.9,359.86,o),
(249.25,376.25,o),
(260.13,393.46,c),
(269.81,377.34,o),
(278.3,363.22,o),
(286.78,349.1,c),
(289.63,350.66,o),
(292.49,352.21,o),
(295.35,353.77,c),
(288.31,367.88,o),
(281.27,381.99,o),
(273.38,397.79,c),
(289.78,400.5,o),
(303.39,402.74,o),
(317.01,404.98,c),
(316.14,411.95,l),
(267.89,411.95,l),
(275.63,428.71,o),
(281.88,442.25,o),
(288.14,455.79,c),
(286.57,456.58,o),
(285.01,457.37,o),
(283.44,458.16,c),
(275.66,446.18,o),
(267.89,434.2,o),
(258.85,420.27,c),
(250.68,433.27,o),
(244.07,443.79,o),
(237.46,454.3,c),
(236.07,453.52,o),
(234.68,452.74,o),
(233.29,451.96,c),
(238.93,439.5,o),
(244.58,427.05,o),
(251.72,411.27,c),
(228.13,409.2,o),
(208.01,407.44,o),
(187.89,405.68,c),
(188.14,402.57,o),
(188.39,399.45,o),
(188.64,396.35,c),
(244.58,396.35,l),
(235.77,377.6,o),
(228.59,362.33,o),
(221.42,347.05,c),
(223.8,345.86,o),
(226.18,344.67,o),
(228.55,343.48,c)
);
},
{
closed = 1;
nodes = (
(446.06,296.78,o),
(471.72,321.42,o),
(471.85,341.21,cs),
(471.96,358.83,o),
(442.72,384.46,o),
(423.3,383.77,cs),
(401.31,382.99,o),
(382.42,362.89,o),
(383.02,340.93,cs),
(383.66,317.57,o),
(404.15,295.84,o),
(425.08,296.31,cs)
);
},
{
closed = 1;
nodes = (
(411.4,308.57,o),
(391.42,326.79,o),
(396.41,341.66,cs),
(400.14,352.79,o),
(416.82,368.09,o),
(425.81,366.91,cs),
(438.24,365.28,o),
(453.1,351.98,o),
(459.06,339.83,cs),
(465,327.7,o),
(443.13,309.01,o),
(426.7,308.79,cs),
(426.69,308.78,ls)
);
},
{
closed = 1;
nodes = (
(555.95,272.37,o),
(567.66,281.15,o),
(569.37,290.2,cs),
(570.81,297.82,o),
(559.53,307.83,o),
(553.88,316.78,c),
(544.76,309.63,o),
(535.64,302.47,o),
(521.84,291.65,c),
(533.86,279.58,o),
(543.96,266.19,o),
(546.49,267.49,cs)
);
},
{
closed = 1;
nodes = (
(398.58,461.5,o),
(423.25,467.71,o),
(428.53,483.18,cs),
(430.98,490.36,o),
(428.83,501.27,o),
(424.61,507.8,cs),
(421.91,511.97,o),
(410.66,513.83,o),
(404.98,511.82,cs),
(400.47,510.22,o),
(398.62,501.17,o),
(394.45,493.28,c),
(405.34,497.79,o),
(411.02,500.62,o),
(417.04,502.06,cs),
(417.86,502.26,o),
(422.73,493.68,o),
(421.64,492.23,cs),
(417.46,486.67,o),
(411.28,478.11,o),
(406.48,478.5,cs),
(397.72,479.21,o),
(385.84,483.41,o),
(381.97,490.06,cs),
(378.38,496.23,o),
(380.51,510.25,o),
(385.6,515.85,cs),
(392.67,523.62,o),
(404.84,526.75,o),
(419.92,534.47,c),
(393.71,540.96,o),
(378.38,531.19,o),
(367.36,514.76,cs),
(358.45,501.47,o),
(367.77,478.08,o),
(383.27,469.74,cs)
);
}
);
width = 675;
}
);
note = three;
unicode = 51;
},
{
glyphname = four;
lastChange = "2024-06-01 14:57:49 +0000";
layers = (
{
layerId = "FB7D8E3D-7C75-4663-899C-C1BEB8CD7630";
shapes = (
{
closed = 1;
nodes = (
(364.24,48.31,o),
(336.97,116.76,o),
(309.51,185.64,c),
(343.51,179.53,o),
(359.26,148.47,o),
(384.4,128.28,c),
(382.32,139.08,o),
(378.99,149.1,o),
(373.65,157.91,cs),
(366.99,168.9,o),
(358.67,178.88,o),
(351.07,189.29,cs),
(351.17,189.21,o),
(351.64,188.81,o),
(351.64,188.81,c),
(351.6,188.87,o),
(351.56,188.93,o),
(351.52,188.99,cs),
(351.5,189,o),
(351.49,189.01,o),
(351.48,189.02,cs),
(345.27,197.01,o),
(339.07,204.99,o),
(334.65,210.67,cs),
(334.64,210.68,ls),
(328.34,211.13,o),
(320.5,211.69,o),
(312.65,212.25,c),
(316.86,225.86,o),
(316.95,246.14,o),
(326.09,251.76,cs),
(348.9,265.8,o),
(364.36,283.32,o),
(372.5,307.89,cs),
(377.93,324.3,o),
(381.96,341.17,o),
(386.62,357.83,c),
(388.73,357.29,o),
(390.85,356.75,o),
(392.97,356.2,c),
(386.15,329.41,o),
(379.32,302.63,o),
(371.89,273.47,c),
(419.78,292.77,o),
(412.42,344.38,o),
(437.95,376.12,c),
(431.75,353.37,o),
(425.55,330.62,o),
(418.9,306.19,c),
(464.34,344.99,o),
(507.81,382.1,o),
(555.51,422.83,c),
(479.7,428.62,o),
(417.68,409.41,o),
(362.88,361.35,c),
(390.21,403.33,o),
(391.38,415.02,o),
(368.34,434.86,c),
(347.68,371.14,o),
(327.46,308.74,o),
(307.16,246.1,c),
(275.35,258.18,o),
(254.65,296.48,o),
(256.78,336.35,c),
(263.75,318.3,o),
(269.63,303.07,o),
(275.69,287.37,c),
(295.67,320.03,o),
(276.34,347.12,o),
(267.36,375.48,c),
(272.37,369.55,o),
(277.38,363.61,o),
(282.39,357.68,c),
(284.27,358.62,o),
(286.14,359.56,o),
(288.02,360.5,c),
(271.58,406.15,o),
(262.88,454.68,o),
(233.36,502.03,c),
(233.36,468.27,o),
(234.38,441.27,o),
(232.99,414.4,cs),
(232.09,396.97,o),
(227.13,379.8,o),
(224.96,362.39,cs),
(220.13,323.65,o),
(221.94,286.13,o),
(248.28,256.28,c),
(236.23,253.99,o),
(224.94,251.84,o),
(208.73,248.75,c),
(216.38,255.57,o),
(220.31,259.08,o),
(224.25,262.59,c),
(223.64,264.89,o),
(223.02,267.19,o),
(222.4,269.49,c),
(204.59,265.9,o),
(186.78,262.3,o),
(164.12,257.72,c),
(174.91,264.78,o),
(181.69,269.21,o),
(192.8,276.48,c),
(166.06,278.94,o),
(144.72,280.91,o),
(117.13,283.45,c),
(123.86,274.09,o),
(126.37,268.07,o),
(130.87,264.78,cs),
(157.88,245.08,o),
(184.37,224.66,o),
(221.67,230.39,cs),
(240.24,233.24,o),
(258.2,229.83,o),
(266.09,204.54,c),
(185.14,206.45,o),
(125.11,153.52,o),
(52.5,135.49,c),
(53.64,131.95,o),
(54.78,128.41,o),
(55.92,124.87,c),
(91.37,135.7,o),
(126.83,146.54,o),
(161.51,157.14,c),
(157.48,126.49,o),
(137.48,121.21,o),
(111.18,124.86,cs),
(101.71,126.17,o),
(91.91,125.07,o),
(82.27,125.07,c),
(82.09,121.64,o),
(81.92,118.22,o),
(81.74,114.79,c),
(123.34,109.56,o),
(164.94,104.34,o),
(203.66,99.47,c),
(186.79,87.29,o),
(184.02,29.97,o),
(202.46,5.88,c),
(208.61,11.05,o),
(216.08,15.27,o),
(220.7,21.58,cs),
(235.32,41.56,o),
(259.33,61.75,o),
(260.46,82.89,cs),
(262.24,116.33,o),
(275.43,141.71,o),
(289.81,168.53,c),
(292.13,168.21,o),
(294.44,167.89,o),
(296.76,167.57,c),
(291.85,137.3,o),
(286.94,107.04,o),
(282.03,76.77,c),
(283.76,76.43,o),
(285.49,76.09,o),
(287.22,75.74,c),
(291.87,96.97,o),
(296.53,118.2,o),
(301.19,139.42,c),
(304.3,139.39,o),
(307.42,139.37,o),
(310.53,139.35,c),
(313.54,106.79,o),
(316.54,74.22,o),
(319.55,41.65,c),
(322.13,41.9,o),
(324.71,42.15,o),
(327.3,42.4,c),
(326.51,50.33,o),
(325.72,58.25,o),
(324.93,66.18,c),
(343.03,24.23,o),
(366.06,-4.11,o),
(389.63,-15.4,c)
);
},
{
closed = 1;
nodes = (
(170.07,156.12,o),
(185.12,179.04,o),
(221.38,180.35,c),
(206.97,154.23,o),
(205.24,117.09,o),
(158.15,128.04,c)
);
},
{
closed = 1;
nodes = (
(219.35,172.38,o),
(237.86,189.81,o),
(270.79,185.7,c),
(259.48,156.79,o),
(244.63,135.85,o),
(212.56,134.14,c)
);
},
{
closed = 1;
nodes = (
(230.49,359.5,o),
(180.59,373.12,o),
(133.16,388.81,c),
(160.67,356.35,o),
(188.17,323.89,o),
(215.11,292.11,c)
);
},
{
closed = 1;
nodes = (
(433.37,140.94,o),
(456.77,147.86,o),
(479.4,150.26,c),
(437.22,176.63,o),
(398.46,207.15,o),
(343.88,200.44,c),
(347.32,195.28,o),
(349.44,192.12,o),
(351.53,188.99,c),
(358.25,184.46,o),
(365.25,180.21,o),
(371.67,175.2,cs),
(385.13,164.72,o),
(397.11,147.15,o),
(411.78,144.64,cs)
);
},
{
closed = 1;
nodes = (
(590.06,221.66,l),
(557.78,234.61,o),
(532.06,245.38,o),
(505.95,255.1,cs),
(498.76,257.78,o),
(488.74,260.64,o),
(482.87,257.71,cs),
(460.26,246.42,o),
(438.8,232.82,o),
(419.63,221.66,c)
);
}
);
width = 643;
}
);
note = four;
unicode = 52;
},
{
glyphname = five;
lastChange = "2024-06-01 14:57:49 +0000";
layers = (
{
layerId = "FB7D8E3D-7C75-4663-899C-C1BEB8CD7630";
shapes = (
{
closed = 1;
nodes = (
(305.67,-7,o),
(427.83,2.47,o),
(548.16,35.77,cs),
(594.75,48.67,o),
(626.81,82.65,o),
(643.24,128.98,cs),
(646.88,139.22,o),
(646.58,150.86,o),
(648.09,161.85,c),
(645.52,162.51,o),
(642.96,163.17,o),
(640.39,163.84,c),
(637.91,160.83,o),
(634.41,158.2,o),
(633.07,154.74,cs),
(608.1,90.35,o),
(558.97,56.38,o),
(492.6,48.65,cs),
(431.26,41.51,o),
(369.46,37.04,o),
(307.73,34.87,cs),
(229.17,32.1,o),
(158.38,59.82,o),
(91.62,98.59,cs),
(67.48,112.61,o),
(59.13,137.22,o),
(68.71,160.99,cs),
(71.88,168.87,o),
(77.23,175.88,o),
(83.91,187.22,c),
(42.46,160,o),
(42.14,109.96,o),
(82.4,83.29,cs),
(114.18,62.23,o),
(148.52,42.25,o),
(184.59,30.95,cs)
);
},
{
closed = 1;
nodes = (
(296.79,52.14,o),
(325.26,64.67,o),
(338.55,95.62,cs),
(338.98,96.62,o),
(337.37,98.49,o),
(336.28,100.91,c),
(331.13,99.17,o),
(326.07,97.47,o),
(320.43,95.56,c),
(321.28,100.78,o),
(321.92,104.67,o),
(322.77,109.89,c),
(287.26,100.76,o),
(253.76,87.69,o),
(222.57,117.64,c),
(231.6,123.17,o),
(242.37,127.24,o),
(249.58,123.82,cs),
(282.79,108.04,o),
(295.7,111.12,o),
(309.58,134.72,c),
(342.83,142.24,o),
(369.86,147.37,o),
(396,155.39,cs),
(399.72,156.53,o),
(399.17,171.63,o),
(401,182.77,c),
(381.45,176.61,o),
(367.44,172.19,o),
(353.43,167.78,c),
(353.03,169.19,o),
(352.64,170.6,o),
(352.24,172.01,c),
(364.13,178.57,o),
(376.01,185.12,o),
(393.04,194.51,c),
(363.72,190.19,o),
(341.42,186.91,o),
(317.92,183.45,c),
(321.42,179.52,o),
(324.73,175.79,o),
(329.92,169.95,c),
(320.98,171.7,o),
(314.92,172.89,o),
(306.88,174.46,c),
(306.88,226.56,l),
(289.68,198.43,o),
(307.75,162.84,o),
(287.7,136.64,c),
(285.07,137.1,o),
(282.43,137.56,o),
(279.8,138.02,c),
(278.77,150.36,o),
(277.74,162.7,o),
(276.71,175.04,c),
(275.44,175.07,o),
(274.16,175.1,o),
(272.89,175.14,c),
(270.71,163.35,o),
(268.53,151.55,o),
(266.51,140.58,c),
(255.41,146.62,o),
(244.6,157.22,o),
(233.99,157.04,cs),
(221.82,156.83,o),
(209.81,147.06,o),
(197.72,141.44,c),
(197.09,142.83,o),
(196.45,144.22,o),
(195.82,145.62,c),
(208.59,153.39,o),
(221.35,161.15,o),
(234.12,168.92,c),
(199.23,168.84,o),
(167.01,154.16,o),
(132.03,166.86,c),
(137.78,182.22,o),
(144.48,188.63,o),
(160.83,184.54,cs),
(178.46,180.14,o),
(202.88,177.46,o),
(207.42,199.33,cs),
(214.05,231.27,o),
(212.1,264.98,o),
(213.81,297.93,c),
(211.02,298.1,o),
(208.22,298.27,o),
(205.42,298.45,c),
(202.61,284.46,o),
(199.79,270.47,o),
(195.86,250.96,c),
(188.03,268.95,o),
(185.91,286.77,o),
(177.64,290.33,cs),
(155.59,299.82,o),
(169.74,266.91,o),
(152.37,265.16,c),
(148.38,270.17,o),
(144,275.68,o),
(139.62,281.19,c),
(138.05,280.13,o),
(136.48,279.06,o),
(134.9,278,c),
(140.46,270.87,o),
(146.01,263.73,o),
(151.57,256.6,c),
(159.86,263.98,o),
(168.15,271.36,o),
(172.62,275.33,c),
(179.67,266.44,o),
(190.27,256.52,o),
(196.33,244.34,cs),
(201.15,234.64,o),
(202.38,221.97,o),
(201.23,211.04,cs),
(200.7,205.96,o),
(190.73,201.88,o),
(182.03,194.95,c),
(180.42,212.32,o),
(179.32,224.25,o),
(178.22,236.19,c),
(176.99,236.22,o),
(175.77,236.26,o),
(174.53,236.29,c),
(171.94,223.57,o),
(169.35,210.85,o),
(166.49,196.78,c),
(158.08,199.52,o),
(151.14,201.78,o),
(145.89,203.49,c),
(130.46,186.14,o),
(101.46,168.99,o),
(127.77,144,cs),
(144.82,127.81,o),
(170.47,120.68,o),
(194.74,108.22,cs),
(194.75,108.21,ls),
(198.69,79.19,o),
(215.05,64.47,o),
(254.65,58.49,cs)
);
},
{
closed = 1;
nodes = (
(503.53,72.9,o),
(510.86,90.7,o),
(502.89,114.62,c),
(479.23,104.48,o),
(458.66,89.75,o),
(437.09,88.08,cs),
(415.23,86.39,o),
(392.38,97.63,o),
(364.89,104.47,c),
(354.21,95.29,o),
(354.42,81.17,o),
(372.17,65.93,cs),
(395.44,45.95,o),
(458.82,42.09,o),
(484.36,59.69,cs)
);
},
{
closed = 1;
nodes = (
(180.56,354.04,o),
(182.27,363.78,o),
(183.99,373.53,c),
(182.07,373.77,o),
(180.16,374.01,o),
(178.24,374.26,c),
(175.89,368.69,o),
(173.54,363.13,o),
(168.69,351.62,c),
(167.71,367.37,o),
(167.17,376.03,o),
(166.63,384.68,c),
(163.81,384.37,o),
(160.99,384.06,o),
(158.17,383.75,c),
(160.02,371.56,o),
(161.16,359.19,o),
(164.34,347.35,cs),
(164.92,345.2,o),
(173.79,345.27,o),
(178.83,344.31,cs),
(178.84,344.3,ls)
);
},
{
closed = 1;
nodes = (
(429.48,102.02,o),
(447.35,105.29,o),
(454.22,111.73,cs),
(454.21,111.74,ls),
(461.24,118.33,o),
(460.64,133.05,o),
(463.38,144.22,c),
(461.34,144.13,o),
(459.3,144.03,o),
(457.26,143.94,c),
(451.56,136.87,o),
(445.85,129.8,o),
(438.12,120.22,c),
(433.82,137.57,o),
(430.92,149.22,o),
(428.03,160.87,c),
(426.28,160.51,o),
(424.52,160.16,o),
(422.77,159.8,c),
(422.77,123.15,l),
(414.99,132.62,o),
(409.83,138.9,o),
(404.66,145.18,c),
(402.01,143.45,o),
(399.37,141.72,o),
(396.73,139.98,c),
(404.97,128.45,o),
(411.11,113.56,o),
(422.22,106.58,cs)
);
},
{
closed = 1;
nodes = (
(350.64,211.36,o),
(367.12,219.79,o),
(368.95,228.89,cs),
(373.31,250.56,o),
(370.35,273.71,o),
(370.35,296.26,c),
(363.65,284.07,o),
(362.93,271.72,o),
(361.23,259.51,cs),
(359.65,248.17,o),
(357.03,236.97,o),
(354.87,225.7,c),
(352.23,226.23,o),
(349.6,226.76,o),
(346.96,227.29,c),
(343.42,258.89,l),
(342.26,258.81,o),
(341.1,258.74,o),
(339.94,258.66,c),
(338.19,247.35,o),
(336.44,236.05,o),
(334.69,224.82,c),
(318.63,224.82,l),
(317.79,222.52,o),
(316.94,220.22,o),
(316.1,217.91,c),
(323.91,214.07,o),
(333.38,205.41,o),
(339.18,207.41,cs)
);
},
{
closed = 1;
nodes = (
(330.65,281.25,o),
(337.64,286.93,o),
(343.35,293.69,cs),
(348.1,299.31,o),
(351.34,306.2,o),
(355.25,312.53,c),
(353.49,314.1,o),
(351.72,315.68,o),
(349.96,317.25,c),
(342.51,307.47,o),
(335.07,297.69,o),
(324.93,284.38,c),
(322.13,297.09,o),
(319.9,307.24,o),
(317.66,317.4,c),
(313.12,311.04,o),
(310.25,304.75,o),
(311.79,299.83,cs),
(314.51,291.15,o),
(319.92,283.31,o),
(324.21,275.12,c)
);
},
{
closed = 1;
nodes = (
(453.58,189.77,o),
(461.39,205.16,o),
(469.19,220.56,c),
(465.89,221.87,o),
(462.6,223.18,o),
(459.3,224.49,c),
(456.91,214.63,o),
(455.82,204.17,o),
(451.59,195.18,cs),
(449.49,190.72,o),
(438.74,185.19,o),
(436.83,186.64,cs),
(425.06,195.55,o),
(414.69,206.33,o),
(403.87,216.48,c),
(401.26,213.13,o),
(398.66,209.79,o),
(396.06,206.44,c),
(412.63,195.75,o),
(429.21,185.06,o),
(445.78,174.38,c)
);
},
{
closed = 1;
nodes = (
(482.84,124.55,o),
(546.5,123.87,o),
(575.17,158.12,c),
(569.63,158.99,o),
(565.04,159.72,o),
(560.45,160.46,c),
(565.39,174.22,o),
(570.32,187.97,o),
(575.26,201.73,cs),
(556.4,152.48,o),
(507.56,159.37,o),
(476.26,200.03,c),
(473.53,179.47,o),
(481.99,166.79,o),
(496.11,162.37,cs),
(513.06,157.06,o),
(531.75,157.29,o),
(549.68,155.12,c),
(470.67,155.12,l)
);
},
{
closed = 1;
nodes = (
(524.49,197.02,ls),
(549.76,196.38,o),
(559.28,219.3,o),
(548.57,255.12,c),
(544.54,238.81,o),
(541.2,225.31,o),
(536.9,207.94,c),
(534.56,226.86,o),
(532.77,241.3,o),
(530.99,255.72,c),
(529.55,255.45,o),
(528.12,255.18,o),
(526.68,254.91,c),
(524.74,239.98,o),
(522.8,225.06,o),
(520.85,210.13,c),
(517.79,210.11,o),
(514.73,210.09,o),
(511.67,210.07,c),
(509.69,227.29,o),
(507.72,244.5,o),
(505.7,262.03,c),
(522.36,266.68,o),
(535.93,270.46,o),
(550.65,274.57,c),
(543.9,280.54,o),
(537.7,286.01,o),
(530.61,292.28,c),
(526.55,285.45,o),
(523.32,280.01,o),
(520.86,275.86,c),
(510.84,291.29,o),
(503.29,302.93,o),
(495.73,314.56,c),
(493.28,313.99,o),
(490.82,313.42,o),
(488.37,312.85,c),
(490.93,280.12,o),
(491.83,247.11,o),
(497.25,214.85,cs),
(498.52,207.27,o),
(514.86,197.24,o),
(524.49,197,cs)
);
}
);
width = 701;
}
);
note = five;
unicode = 53;
},
{
glyphname = six;
lastChange = "2024-06-01 14:57:49 +0000";
layers = (
{
layerId = "FB7D8E3D-7C75-4663-899C-C1BEB8CD7630";
shapes = (
{
closed = 1;
nodes = (
(403.04,-5.73,o),
(471.95,31.24,o),
(504.15,111.75,cs),
(515.81,140.88,o),
(514.06,171.1,o),
(503.28,200.42,cs),
(503.29,200.4,ls),
(500.91,189.56,o),
(501.41,178.74,o),
(500.83,167.98,cs),
(496.08,81.43,o),
(441.81,27.25,o),
(355.09,30.46,cs),
(307.46,32.22,o),
(260.26,45.14,o),
(208.02,53.83,c),
(230.24,62.87,o),
(247.25,74.83,o),
(264.68,75.48,cs),
(282.04,76.12,o),
(299.53,64.12,o),
(317.5,60.06,cs),
(335.22,56.06,o),
(353.87,51.94,o),
(371.66,53.38,cs),
(420.4,57.32,o),
(465.26,104.58,o),
(462.07,145.48,c),
(410.17,62.85,o),
(335.49,50.53,o),
(306.34,87.83,c),
(317.42,92.66,o),
(328.51,97.48,o),
(340.04,102.5,c),
(304.55,156.23,o),
(342.67,215.61,o),
(393.49,219.1,c),
(359.13,235.96,o),
(303,204.84,o),
(294.81,162.85,cs),
(287.76,126.69,o),
(270.5,99.14,o),
(236.38,84.03,cs),
(216.39,75.18,o),
(189.08,75.82,o),
(193.91,34.92,c),
(181.32,48.3,o),
(175.58,54.4,o),
(171.3,58.95,c),
(161.13,56.12,o),
(153.32,53.95,o),
(143,51.08,c),
(139,51.08,o),
(130.99,52.59,o),
(123.86,50.73,cs),
(113.46,48.01,o),
(103.49,43.27,o),
(93.68,38.66,cs),
(75.88,30.31,o),
(62.02,28.73,o),
(60.1,56.99,c),
(55.2,47.32,o),
(50.39,37.09,o),
(53.44,30.49,cs),
(56.38,24.13,o),
(67.74,17.6,o),
(74.86,18.16,cs),
(86.69,19.08,o),
(97.86,26.54,o),
(109.75,29.48,cs),
(119.21,31.83,o),
(131.02,35.27,o),
(138.82,31.73,cs),
(160.09,22.05,o),
(179.28,25.4,o),
(200.08,32.25,cs),
(209.35,35.3,o),
(220.96,33.46,o),
(230.97,31.33,cs),
(238.63,29.7,o),
(245.04,22.3,o),
(252.7,20.63,cs),
(273.91,16.02,o),
(295.5,13.19,o),
(316.89,9.43,cs)
);
},
{
closed = 1;
nodes = (
(80.19,69.41,o),
(103.47,78.42,o),
(122.23,79.87,c),
(121.91,82.02,o),
(121.6,84.18,o),
(121.28,86.34,c),
(83.77,94.44,o),
(64.58,109.61,o),
(63.73,131.84,c),
(54.52,112.98,o),
(48.11,88.66,o),
(67.05,77.3,cs)
);
},
{
closed = 1;
nodes = (
(108.95,188.63,o),
(112.59,197.61,o),
(109.59,201.71,cs),
(103.28,210.32,o),
(93.47,216.37,o),
(85.1,223.47,c),
(83.82,221.87,o),
(82.54,220.28,o),
(81.27,218.68,c),
(87.97,206.72,o),
(94.67,194.77,o),
(101.37,182.81,c),
(103.69,182.49,o),
(106.01,182.18,o),
(108.33,181.86,c)
);
},
{
closed = 1;
nodes = (
(132.32,83.64,ls),
(150.75,90.25,o),
(165.86,94.47,o),
(179.9,100.98,cs),
(199.5,110.08,o),
(219.68,118.95,o),
(237.12,131.42,cs),
(261.73,149,o),
(267.15,173.73,o),
(252.88,205.32,c),
(254.62,156.51,o),
(232.54,130.71,o),
(193.27,118.35,c),
(201.53,131.97,o),
(209.78,145.59,o),
(218.04,159.21,c),
(207.91,156.61,o),
(198.73,151.31,o),
(193.72,143.39,cs),
(182.05,124.93,o),
(169.15,126.67,o),
(153.96,137.57,cs),
(146.25,143.1,o),
(138.33,148.33,o),
(130.51,153.7,c),
(139.61,129.57,o),
(156.64,117.89,o),
(179.82,115.36,c),
(166.45,112.51,o),
(153.08,109.66,o),
(137.76,106.39,c),
(136.41,100.76,o),
(134.64,93.39,o),
(132.3,83.63,cs)
);
},
{
closed = 1;
nodes = (
(247.42,206.65,l),
(248.95,214.63,o),
(250.48,222.62,o),
(253.14,236.51,c),
(286.42,207.46,o),
(310.2,229.41,o),
(338.92,243.35,cs),
(382.93,264.7,o),
(366.38,299.43,o),
(368.77,332.87,c),
(341.7,332.87,l),
(340.79,342.36,o),
(340.01,350.44,o),
(339.28,358.07,c),
(348.62,363.19,o),
(356.82,367.68,o),
(365.03,372.17,c),
(364.4,374.06,o),
(363.76,375.95,o),
(363.13,377.83,c),
(353.27,376.22,o),
(343.41,374.61,o),
(332.62,372.85,c),
(328.65,381.78,o),
(325.05,389.84,o),
(321.71,397.34,c),
(332.4,404.81,o),
(341.36,411.07,o),
(350.32,417.33,c),
(349.05,419.44,o),
(347.79,421.56,o),
(346.52,423.67,c),
(335.51,417.62,o),
(324.51,411.56,o),
(313.4,405.45,c),
(305.26,413.18,o),
(298.09,420,o),
(291.17,426.57,c),
(294.26,433.57,o),
(296.89,439.55,o),
(298.26,442.66,c),
(264.71,434.67,o),
(231.24,426.71,o),
(197.26,418.63,c),
(192.58,424.22,o),
(187.37,430.45,o),
(182.17,436.67,c),
(180.57,435.55,o),
(178.97,434.43,o),
(177.37,433.31,c),
(181.05,424.76,o),
(184.72,416.22,o),
(188.5,407.42,c),
(181.16,400.72,o),
(174.63,394.75,o),
(168.8,389.43,c),
(157.79,399.77,o),
(148.44,408.54,o),
(139.09,417.31,c),
(137.07,415.4,o),
(135.05,413.49,o),
(133.03,411.59,c),
(142.41,400.84,o),
(151.8,390.09,o),
(161.71,378.75,c),
(157.23,369.47,o),
(153.01,360.7,o),
(149.64,353.69,c),
(136.31,354.96,o),
(125.26,356.01,o),
(114.21,357.07,c),
(113.69,354.39,o),
(113.18,351.71,o),
(112.67,349.02,c),
(123,345.36,o),
(133.32,341.7,o),
(145.16,337.51,c),
(143.82,328.68,o),
(142.54,320.23,o),
(140.61,307.49,c),
(125.92,314.5,o),
(114.94,319.73,o),
(104,324.95,c),
(104,229.81,l),
(111.32,229.66,l),
(111.32,273.07,l),
(111.32,273.1,ls),
(129.12,262.88,o),
(141.14,255.98,o),
(153.59,248.83,c),
(153.59,265.98,o),
(153.31,284.31,o),
(153.65,302.64,cs),
(154.35,340.51,o),
(167.99,372.04,o),
(197.14,397.47,cs),
(231.68,427.6,o),
(293.15,422.2,o),
(312.9,370.24,cs),
(326.73,333.87,o),
(323.27,297.64,o),
(314.73,259.98,c),
(309.01,270.39,o),
(303.28,280.81,o),
(297.55,291.22,c),
(295.63,291.06,o),
(293.72,290.91,o),
(291.8,290.74,c),
(291.07,277.49,o),
(290.34,264.23,o),
(289.26,244.62,c),
(283.55,259.39,o),
(279.79,269.11,o),
(275.99,278.96,c),
(273.3,275.88,o),
(271.1,273.36,o),
(269.82,271.91,c),
(272.52,292.89,o),
(275.2,313.83,o),
(277.9,334.76,c),
(276.11,334.84,o),
(274.32,334.92,o),
(272.53,335,c),
(265.71,318.25,o),
(258.89,301.5,o),
(249.87,279.34,c),
(241.87,294.26,o),
(237.74,301.97,o),
(234.74,307.58,c),
(227.86,291.11,o),
(221.21,275.21,o),
(214.57,259.3,c),
(212.26,260.22,o),
(209.95,261.14,o),
(207.64,262.06,c),
(207.64,302.49,l),
(192.38,286.65,o),
(176.45,270.1,o),
(160.36,253.38,c),
(186.57,248.76,o),
(212.41,244.19,o),
(234.5,240.29,c),
(236.81,228.85,o),
(239.17,217.17,o),
(241.53,205.48,c)
);
},
{
closed = 1;
nodes = (
(130.59,275.5,o),
(121.99,276.05,o),
(111.91,276.68,c),
(111.91,302.62,l),
(121.54,301.93,o),
(129.56,301.36,o),
(140.3,300.6,c),
(140.3,274.89,l)
);
}
);
width = 565;
}
);
note = six;
unicode = 54;
},
{
glyphname = seven;
lastChange = "2024-06-01 14:57:49 +0000";
layers = (
{
layerId = "FB7D8E3D-7C75-4663-899C-C1BEB8CD7630";
shapes = (
{
closed = 1;
nodes = (
(317.73,57.63,o),
(322.67,70.6,o),
(326.58,75.79,c),
(305.18,84.62,o),
(287.61,91.88,o),
(270.04,99.13,c),
(276.52,112.61,o),
(280.11,122.78,o),
(276.75,126.28,cs),
(276.73,126.3,ls),
(270.45,132.86,o),
(259.38,134.52,o),
(251.7,140.14,cs),
(243.45,146.19,o),
(229.47,159.29,o),
(230.58,160.98,cs),
(243.07,179.88,o),
(231.41,179.5,o),
(217.49,182.84,cs),
(208.55,184.98,o),
(200.08,193.41,o),
(194.03,201.09,cs),
(191.68,204.06,o),
(196.56,212.74,o),
(199.9,225.5,c),
(191.14,228.6,o),
(178.73,231.08,o),
(168.51,237.21,cs),
(160.8,241.83,o),
(151.18,250.74,o),
(150.57,258.38,cs),
(148.56,283.91,o),
(148.23,283.65,o),
(126.5,295.95,cs),
(116.85,301.42,o),
(103.63,320.14,o),
(106.05,323.96,cs),
(116.45,340.37,o),
(103.78,354.48,o),
(97.88,358.61,cs),
(79.81,371.27,o),
(77.83,386.7,o),
(82.36,406.35,c),
(79.39,406.65,o),
(76.42,406.96,o),
(73.45,407.26,c),
(70.8,397.59,o),
(64.68,387.3,o),
(66.27,378.39,cs),
(69.12,362.39,o),
(74.03,345.6,o),
(82.6,331.99,cs),
(115.42,279.85,o),
(150.05,228.84,o),
(185.89,174.55,c),
(178.44,173.94,o),
(171.54,174.62,o),
(165.58,172.56,cs),
(158.04,169.95,o),
(146.43,166.43,o),
(144.98,161.03,cs),
(138.44,136.77,o),
(129.97,131.73,o),
(104.69,134.74,cs),
(96.89,135.67,o),
(87.41,125.93,o),
(79.37,120.15,cs),
(74.15,116.4,o),
(70.05,111.06,o),
(65.62,106.27,cs),
(61.14,101.44,o),
(56.87,96.42,o),
(52.51,91.48,c),
(59.06,89.67,o),
(66.87,84.64,o),
(71.94,86.63,cs),
(89.72,93.6,o),
(107.56,101.41,o),
(123.5,111.8,cs),
(148.4,128.03,o),
(171.75,146.62,o),
(194.05,162.96,c),
(224.93,129.95,o),
(253.48,98.41,o),
(283.4,68.21,cs),
(290.15,61.4,o),
(302.42,54.89,o),
(310.7,56.37,cs)
);
},
{
closed = 1;
nodes = (
(189.38,296.58,o),
(189.45,296.89,o),
(189.56,297.22,cs),
(189.59,297.25,o),
(189,296.78,o),
(189,296.78,c),
(189.08,296.59,o),
(189.18,296.44,o),
(189.27,296.25,c)
);
},
{
closed = 1;
nodes = (
(189.6,297.25,ls),
(189.6,297.29,o),
(189.59,297.34,o),
(189.59,297.38,cs),
(189.4,297.17,o),
(189.19,297,o),
(189,296.78,cs)
);
},
{
closed = 1;
nodes = (
(234.2,250.3,o),
(240.4,253.62,o),
(245.19,277.3,c),
(226.66,283.18,o),
(200.58,270.81,o),
(189.26,296.24,c),
(181.99,273.34,o),
(187.68,262.8,o),
(210.5,256.67,cs)
);
},
{
closed = 1;
nodes = (
(112.72,402.01,o),
(120.87,420.73,o),
(153.61,417.44,c),
(117.46,446.91,o),
(98.42,444.47,o),
(86.25,416.99,c),
(93.59,403.46,o),
(99.75,392.08,o),
(107.05,378.62,c)
);
},
{
closed = 1;
nodes = (
(326.14,287.22,o),
(337.66,288.36,o),
(347.19,303.09,c),
(322.09,313.11,o),
(297.03,323.21,o),
(271.86,333.03,cs),
(268.87,334.2,o),
(265.26,334.15,o),
(261.95,334.05,cs),
(245.12,333.59,o),
(228.24,333.48,o),
(211.48,332.11,cs),
(203.69,331.48,o),
(191.25,330.2,o),
(189.48,325.79,cs),
(186.21,317.65,o),
(189.18,307.01,o),
(189.59,297.38,c),
(212.5,322.28,o),
(240.57,316.58,o),
(268.38,309.48,cs),
(282.85,305.78,o),
(297.47,301.38,o),
(310.79,294.8,cs)
);
},
{
closed = 1;
nodes = (
(185.25,403.28,o),
(191.52,411.23,o),
(198.92,420.61,c),
(190.28,428.31,o),
(182.67,435.08,o),
(175.11,441.8,c),
(150.69,417.13,o),
(151.97,404.43,o),
(179.13,395.51,c)
);
},
{
closed = 1;
nodes = (
(236.8,195.68,o),
(245.51,193.67,o),
(251.12,196.96,cs),
(278.44,213.03,o),
(307.91,227.26,o),
(330.94,248.34,cs),
(357.98,273.1,o),
(381.9,270.18,o),
(409.41,253.94,cs),
(418.75,248.42,o),
(428.06,242.36,o),
(438.16,238.68,cs),
(465.5,228.74,o),
(493.1,219.46,o),
(520.99,211.23,cs),
(525.44,209.92,o),
(532.57,214.51,o),
(537.11,218.08,cs),
(539.25,219.77,o),
(539.6,228.31,o),
(538.35,228.94,cs),
(538.33,228.99,ls),
(533.08,231.64,o),
(526.98,232.9,o),
(521.06,233.81,cs),
(515.83,234.61,o),
(508.26,232.05,o),
(505.46,234.78,cs),
(488.8,251.08,o),
(469.9,257.9,o),
(446.36,261.14,cs),
(425.09,264.07,o),
(405.3,277.78,o),
(383.37,287.39,c),
(444.02,350.37,o),
(457.93,373.9,o),
(448.46,397.47,c),
(446.42,396.06,o),
(443.52,395.14,o),
(442.69,393.29,cs),
(431.52,368.42,o),
(425.01,340.13,o),
(392.47,332.38,cs),
(387.85,331.28,o),
(384.45,324.25,o),
(380.91,319.65,cs),
(373.67,310.26,o),
(368.03,299.16,o),
(359.34,291.44,cs),
(341.36,275.46,o),
(322.16,260.79,o),
(302.78,246.51,cs),
(294.15,240.15,o),
(283.51,231.19,o),
(274.39,231.85,cs),
(249.71,233.63,o),
(240.25,217.25,o),
(222.74,194.85,c)
);
},
{
closed = 1;
nodes = (
(417.78,378.74,o),
(424.4,389.37,o),
(432.8,402.83,c),
(422.91,410.66,o),
(411.74,419.5,o),
(406.36,423.76,c),
(391.33,417.4,o),
(383.44,412.8,o),
(374.94,410.7,cs),
(353.01,405.29,o),
(330.81,400.99,o),
(308.42,396.18,c),
(313.76,372.31,o),
(324.34,375.15,o),
(337.84,380.3,cs),
(337.82,380.31,ls),
(364.47,390.49,o),
(393.14,407.39,o),
(409.72,365.83,c)
);
}
);
width = 592;
}
);
note = seven;
unicode = 55;
},
{
glyphname = eight;
lastChange = "2024-06-01 14:57:49 +0000";
layers = (
{
layerId = "FB7D8E3D-7C75-4663-899C-C1BEB8CD7630";
shapes = (
{
closed = 1;
nodes = (
(75.97,17.57,o),
(88.34,21.38,o),
(100.93,24.22,cs),
(124.41,29.51,o),
(148.3,33.29,o),
(171.38,39.91,cs),
(176.86,41.48,o),
(179.83,51.83,o),
(183.95,58.14,c),
(177.27,58.68,o),
(170.26,60.78,o),
(164,59.41,cs),
(152.9,56.98,o),
(142.25,52.45,o),
(131.42,48.8,c),
(130.4,51.38,o),
(129.38,53.95,o),
(128.36,56.52,c),
(159.57,70.33,o),
(190.78,84.14,o),
(215.69,95.16,c),
(228.54,81.98,o),
(235.73,72.41,o),
(245.16,66.3,cs),
(247.86,64.55,o),
(262.42,73.03,o),
(262.29,76.46,cs),
(261.84,88.06,o),
(257.24,99.5,o),
(253.86,112.37,c),
(270.6,126.37,o),
(270.25,125.76,o),
(289.26,114.79,cs),
(310.12,102.75,o),
(331.71,91.99,o),
(352.98,80.67,c),
(354.2,83.07,o),
(355.43,85.47,o),
(356.65,87.86,c),
(344.86,95.29,o),
(333.06,102.73,o),
(321.27,110.16,c),
(339.23,109.09,o),
(354.55,111.53,o),
(358.02,141.43,c),
(334.77,118.19,o),
(325.7,132.08,o),
(318.05,149.33,c),
(296.02,137.2,o),
(311.12,125.97,o),
(316.34,114.99,c),
(305.69,120.17,o),
(295.04,125.34,o),
(282.52,131.43,c),
(298.31,146.22,o),
(310.31,159.18,o),
(324.18,169.67,cs),
(330.45,174.42,o),
(340.89,177.13,o),
(348.62,175.84,cs),
(380.65,170.49,o),
(412.28,162.81,o),
(444.26,157.09,cs),
(451.34,155.82,o),
(459.24,159.08,o),
(466.76,160.26,c),
(466.52,162.65,o),
(466.27,165.04,o),
(466.03,167.43,c),
(459.93,168.36,o),
(453.81,169.2,o),
(447.73,170.23,cs),
(417.33,175.37,o),
(381.97,172.63,o),
(357.83,187.77,cs),
(328.96,205.87,o),
(322.42,188.13,o),
(308.55,174.14,cs),
(271.07,136.34,o),
(269,136.22,o),
(232.96,174.92,cs),
(222.2,186.47,o),
(213.2,199.79,o),
(204.28,212.91,cs),
(195.22,226.22,o),
(187.25,240.28,o),
(178.8,254.01,c),
(176.88,252.74,o),
(174.97,251.46,o),
(173.05,250.19,c),
(189.54,203.62,o),
(219.02,165.69,o),
(259.41,133.34,c),
(248.37,126.24,o),
(238.28,114.77,o),
(231.97,116.57,cs),
(209.75,122.89,o),
(196.55,107.75,o),
(180.37,99.9,cs),
(159.33,89.68,o),
(139.13,77.7,o),
(117.89,67.94,cs),
(106.76,62.82,o),
(94.11,61.08,o),
(82.3,57.3,cs),
(73.59,54.51,o),
(59.65,52.78,o),
(57.76,47.25,cs),
(53.9,35.99,o),
(56.6,22.49,o),
(56.6,12.33,c)
);
},
{
closed = 1;
nodes = (
(178.14,-25.86,o),
(184.37,-17.54,o),
(191.59,-11.41,cs),
(202.93,-1.78,o),
(214.2,8.49,o),
(231.51,-8.71,c),
(238.61,5.64,o),
(245.59,17.38,o),
(249.63,30.05,cs),
(250.37,32.38,o),
(236.93,43.52,o),
(233.85,42.13,cs),
(233.84,42.12,ls),
(199.11,26.49,o),
(165.12,9.2,o),
(131.44,-7.39,c),
(138.8,-38.82,o),
(142.9,-41.5,o),
(169.85,-29.54,cs)
);
},
{
closed = 1;
nodes = (
(95.02,85.99,o),
(107.38,88.5,o),
(114.3,94.7,cs),
(124.42,103.78,o),
(130.71,117.13,o),
(139.73,130.27,c),
(157.99,111.15,o),
(173.6,101.58,o),
(189.94,121.52,cs),
(198.52,132,o),
(200.03,143.94,o),
(183.53,152.4,c),
(179.33,144.78,o),
(175.59,138,o),
(171.96,131.43,c),
(142.86,152.91,o),
(121.85,117.35,o),
(93.64,122.65,c),
(101.11,133.32,o),
(107.6,142.58,o),
(115.69,154.12,c),
(99.57,163.93,o),
(73.96,165.93,o),
(84.16,194.79,c),
(73.28,195.51,o),
(64.59,196.09,o),
(52.51,196.89,c),
(59.75,181.15,o),
(67.94,169.39,o),
(70.39,156.54,cs),
(73.62,139.57,o),
(71.31,121.6,o),
(73.55,104.33,cs),
(73.54,104.34,ls),
(74.41,97.62,o),
(80.96,86.55,o),
(85.27,86.38,cs)
);
},
{
closed = 1;
nodes = (
(296.04,-46.84,o),
(330.25,-60.07,o),
(322.38,-23.55,cs),
(321.77,-20.72,o),
(327.15,-15.46,o),
(330.86,-13.01,cs),
(353.23,1.72,o),
(352.3,13.55,o),
(329.29,27.69,cs),
(329.28,27.67,ls),
(311.27,38.74,o),
(294.77,52.25,o),
(273.29,67.8,c),
(272,59.94,o),
(270.06,50.21,o),
(268.87,40.38,cs),
(267.77,31.31,o),
(271,18.95,o),
(266.17,13.6,cs),
(249.66,-4.68,o),
(259.91,-23.18,o),
(263.62,-40.87,cs),
(265.01,-47.51,o),
(280.15,-58.02,o),
(281.97,-56.74,cs)
);
},
{
closed = 1;
nodes = (
(357.68,49.49,o),
(317.79,79.17,o),
(279.58,107.6,c),
(293.94,70.72,o),
(368.6,13.42,o),
(398.13,19.38,c)
);
},
{
closed = 1;
nodes = (
(285.52,187.67,o),
(294.81,199.25,o),
(287.58,220.37,c),
(279.22,210.03,o),
(273.78,203.31,o),
(266.14,193.86,c),
(261.72,204.22,o),
(258.8,211.07,o),
(255.87,217.93,c),
(252.86,217.55,o),
(249.85,217.17,o),
(246.84,216.8,c),
(247.65,206.28,o),
(245.97,194.54,o),
(250.29,185.74,cs),
(252.56,181.11,o),
(267.54,177.63,o),
(272.89,180.61,cs)
);
},
{
closed = 1;
nodes = (
(399.48,-50.25,o),
(407.31,-47.56,o),
(415.36,-46.46,cs),
(443.65,-42.61,o),
(466.97,-17.12,o),
(499.08,-27.93,cs),
(503.57,-29.44,o),
(514.93,-22.73,o),
(516.95,-17.46,cs),
(530.39,17.48,o),
(557.11,49.03,o),
(546.53,91.22,c),
(538.86,94.44,o),
(530.76,97.84,o),
(522.85,101.15,c),
(528.64,125.84,o),
(524.3,128.37,o),
(492.2,122.77,c),
(490.92,100.09,o),
(489.71,78.61,o),
(488.54,58.1,c),
(511.02,51.62,o),
(495.92,100.96,o),
(525.89,81.96,c),
(515.23,52.58,o),
(504.98,24.33,o),
(494.55,-4.39,c),
(486.53,9.29,o),
(478.9,22.29,o),
(471.27,35.3,c),
(468.68,33.96,o),
(466.08,32.61,o),
(463.49,31.27,c),
(465.81,23.28,o),
(468.12,15.3,o),
(470.44,7.34,c),
(464.82,9.5,o),
(457.87,14.88,o),
(454.12,13.19,cs),
(428.13,1.45,o),
(402.8,-11.76,o),
(378.83,-23.72,c),
(383.35,-33.17,o),
(386.95,-40.71,o),
(392.35,-52.01,c)
);
},
{
closed = 1;
nodes = (
(376.91,212.18,o),
(377.2,213.57,o),
(377.48,214.96,c),
(361.58,221.58,o),
(345.68,228.2,o),
(329.2,235.07,c),
(351.74,255.78,o),
(372.76,275.1,o),
(393.78,294.41,c),
(391.39,297.05,o),
(388.99,299.69,o),
(386.6,302.33,c),
(380.69,297.62,o),
(374.66,293.06,o),
(368.91,288.16,cs),
(353.62,275.15,o),
(338.96,261.33,o),
(322.95,249.3,cs),
(318.16,245.71,o),
(307.35,243.63,o),
(303.36,246.51,cs),
(271.08,269.73,o),
(239.76,294.29,o),
(208.18,318.48,cs),
(204.99,320.92,o),
(201.98,323.61,o),
(198.89,326.19,c),
(196.9,324.46,o),
(194.92,322.72,o),
(192.93,320.99,c),
(205.76,304.57,o),
(218.59,288.15,o),
(232.15,270.79,c),
(219.77,255.43,o),
(208.94,257.14,o),
(196.67,277.12,cs),
(196.66,277.11,ls),
(194.87,265.44,o),
(193.73,251.24,o),
(199.32,247.73,cs),
(219.54,235.02,o),
(232.34,250.75,o),
(245.91,266.54,c),
(257.68,246.52,o),
(292.09,252.95,o),
(295.47,226.73,c),
(322.38,221.44,o),
(349.5,216.12,o),
(376.62,210.79,c)
);
},
{
closed = 1;
nodes = (
(354.49,286.15,o),
(359.29,299.77,o),
(355.24,306.34,c),
(346.17,301.13,o),
(338.33,294.97,o),
(329.48,292.72,cs),
(327.28,292.16,o),
(321.86,304.27,o),
(317.93,310.56,cs),
(317.94,310.55,ls),
(315.56,310.79,o),
(313.18,311.02,o),
(310.8,311.26,c),
(310.42,302.26,o),
(306.79,287.36,o),
(310.31,285.41,cs),
(319.47,280.35,o),
(333.91,276.46,o),
(342.32,280.42,cs)
);
},
{
closed = 1;
nodes = (
(328.06,327.17,o),
(328.37,329.12,o),
(328.69,331.08,c),
(320.37,335.24,o),
(312.06,339.41,o),
(302.42,344.23,c),
(321.5,357.99,o),
(346.29,363.75,o),
(352.54,394.09,c),
(328.32,379.65,o),
(308.19,358.33,o),
(288.09,358.36,cs),
(269.14,358.39,o),
(250.22,380.9,o),
(230.26,394.2,c),
(225.84,371.26,o),
(247.82,363.13,o),
(258.95,349.25,c),
(255.81,345.19,o),
(253.08,341.67,o),
(250.38,338.18,c),
(277.7,333.6,o),
(302.72,329.4,o),
(327.75,325.21,c)
);
},
{
closed = 1;
nodes = (
(259.6,451.13,o),
(294.79,457.31,o),
(303.55,485.06,c),
(281.23,482.28,o),
(258.93,479.51,o),
(232.78,476.25,c)
);
},
{
closed = 1;
nodes = (
(261.59,524.21,o),
(265.35,534.09,o),
(270.3,547.12,c),
(251.52,540.16,o),
(237.7,535.04,o),
(223.89,529.93,c),
(223.99,527.62,o),
(224.09,525.32,o),
(224.19,523.01,c),
(234.34,519.62,o),
(244.49,516.24,o),
(256.98,512.07,c)
);
}
);
width = 601;
}
);
note = eight;
unicode = 56;
},
{
glyphname = nine;
lastChange = "2024-06-01 14:57:49 +0000";
layers = (
{
layerId = "FB7D8E3D-7C75-4663-899C-C1BEB8CD7630";
shapes = (
{
closed = 1;
nodes = (
(271.88,153.95,o),
(279.64,156.24,o),
(282.32,161.23,cs),
(282.33,161.24,ls),
(327.68,245.68,o),
(372.06,330.63,o),
(417.66,414.92,cs),
(423.39,425.51,o),
(434.54,433.3,o),
(443.67,441.86,cs),
(456.15,453.57,o),
(469.11,464.77,o),
(481.86,476.19,c),
(479.89,478.76,o),
(477.93,481.33,o),
(475.96,483.9,c),
(453.36,469.87,o),
(430.75,455.84,o),
(403.45,438.9,c),
(403.22,436.98,o),
(404.42,428.89,o),
(401.23,423.31,cs),
(374.73,377.02,o),
(346.25,331.83,o),
(320.74,285.02,cs),
(300.05,247.08,o),
(282.33,207.49,o),
(264.18,168.23,cs),
(262.06,163.63,o),
(265.58,156.42,o),
(266.49,150.41,c)
);
},
{
closed = 1;
nodes = (
(146.2,-17.61,o),
(216.25,-15.07,o),
(286.28,-12.77,cs),
(290.17,-12.64,o),
(293.8,-5.01,o),
(297.56,-0.7,c),
(277.55,14.48,o),
(244.7,-2.15,o),
(229.63,26.24,cs),
(229.63,26.26,ls),
(229.23,27.02,o),
(220.64,25.54,o),
(218.5,22.94,cs),
(199.92,0.34,o),
(175.42,14.15,o),
(153.83,9.86,c),
(151.58,30.87,o),
(140.02,39.25,o),
(119.15,34.99,cs),
(117.58,34.67,o),
(115.66,34.34,o),
(114.32,34.94,cs),
(90.3,45.82,o),
(76.43,29.9,o),
(63.65,14.53,cs),
(45.75,-6.97,o),
(49.03,-17.35,o),
(76.15,-17.42,cs)
);
},
{
closed = 1;
nodes = (
(298.25,-1,o),
(298.33,-0.84,o),
(298.41,-0.7,c),
(298.18,-0.63,o),
(297.94,-0.56,o),
(297.71,-0.5,cs),
(297.65,-0.56,o),
(297.6,-0.64,o),
(297.55,-0.7,c),
(297.76,-0.86,o),
(297.98,-0.96,o),
(298.18,-1.13,c)
);
},
{
closed = 1;
nodes = (
(341.4,43.32,o),
(354.51,53.24,o),
(362.04,66.37,cs),
(377.78,93.8,o),
(369.27,108.89,o),
(338.22,114.94,cs),
(326.78,117.17,o),
(315.52,120.34,o),
(304.16,123.03,cs),
(267.91,131.63,o),
(231.66,140.2,o),
(188.81,150.35,c),
(194.15,124.78,o),
(198.21,105.36,o),
(203.04,82.3,c),
(210.54,93.12,o),
(214.96,99.49,o),
(219.38,105.86,c),
(220.59,105.35,o),
(221.81,104.84,o),
(223.04,104.32,c),
(220.35,93.61,o),
(217.65,82.89,o),
(214.95,72.18,c),
(216.16,71.42,o),
(217.37,70.66,o),
(218.59,69.9,c),
(227.66,79.83,o),
(236.73,89.76,o),
(245.8,99.69,c),
(247.21,98.81,o),
(248.63,97.93,o),
(250.04,97.04,c),
(244.76,86.32,o),
(239.48,75.6,o),
(234.2,64.88,c),
(236.76,62.69,o),
(239.33,60.51,o),
(241.89,58.32,c),
(248.65,69.29,o),
(255.41,80.25,o),
(262.17,91.21,c),
(264.11,89.48,o),
(266.05,87.75,o),
(268,86.02,c),
(264.25,76.44,o),
(260.5,66.87,o),
(256.74,57.29,c),
(258.69,55.7,o),
(260.65,54.11,o),
(262.6,52.52,c),
(271.39,62.68,o),
(280.18,72.83,o),
(292.56,87.12,c),
(288.01,71.47,o),
(284.86,60.65,o),
(281.72,49.84,c),
(283.26,49.03,o),
(284.8,48.22,o),
(286.34,47.41,c),
(297.44,60.01,o),
(308.55,72.62,o),
(319.65,85.22,c),
(323.57,83.04,l),
(317.61,69.72,o),
(311.66,56.39,o),
(305.69,43.07,c),
(312.56,43.32,o),
(314.56,47.02,o),
(317.1,50.32,cs),
(319.5,53.45,o),
(322.46,56.15,o),
(328.92,63.03,c),
(327.02,53.98,o),
(326.07,50.28,o),
(325.51,46.53,cs),
(324.99,43.02,o),
(324.9,39.45,o),
(324.62,35.9,c),
(326.69,34.58,o),
(328.75,33.26,o),
(330.82,31.95,c)
);
},
{
closed = 1;
nodes = (
(412.38,-12.02,o),
(432.25,-12.14,o),
(451.9,-10.37,cs),
(456.64,-9.94,o),
(464.4,-1.14,o),
(464.04,3.28,cs),
(463.6,8.74,o),
(455.81,18.25,o),
(451.79,17.94,cs),
(436.32,16.78,o),
(427.18,26.79,o),
(415.18,31.99,cs),
(398.75,39.1,o),
(375.8,39.37,o),
(358.46,33.79,cs),
(341.53,28.35,o),
(329.35,9.48,o),
(307.18,14.3,cs),
(305.43,14.68,o),
(301.44,4.79,o),
(298.41,-0.71,c),
(307.51,-3.28,o),
(316.49,-7.08,o),
(325.74,-7.93,cs),
(347.96,-9.98,o),
(370.3,-11.02,o),
(392.61,-11.55,cs)
);
}
);
width = 534;
}
);
note = nine;
unicode = 57;
},
{
glyphname = colon;
lastChange = "2024-06-01 14:57:49 +0000";
layers = (
{
layerId = "FB7D8E3D-7C75-4663-899C-C1BEB8CD7630";
shapes = (
{
closed = 1;
nodes = (
(217.53,139.74,o),
(228.15,155.38,o),
(227.79,170.77,cs),
(226.97,205.73,o),
(192.27,209.66,o),
(169.65,223.51,c),
(174.75,231.98,o),
(179.15,239.27,o),
(184.08,247.46,c),
(159.38,252.72,o),
(151.34,268.23,o),
(151.8,287.85,cs),
(152.41,313.71,o),
(154.92,339.55,o),
(157.29,365.34,cs),
(158.98,383.72,o),
(159.56,399.65,o),
(135.42,404.64,cs),
(124.51,406.9,o),
(114.9,415.28,o),
(104.63,420.75,cs),
(86.53,430.4,o),
(75.91,453.34,o),
(81.9,471.74,cs),
(85.7,483.43,o),
(90.68,494.73,o),
(95.16,506.27,c),
(103.2,504.84,o),
(111.62,503.34,o),
(122.98,501.32,c),
(111.09,524.54,o),
(101.15,543.95,o),
(90.74,564.28,c),
(88.22,550.12,o),
(87.46,534.38,o),
(82.38,520.2,cs),
(75.6,501.29,o),
(62.83,484.36,o),
(57.23,465.23,cs),
(42.5,414.87,o),
(74.02,374.34,o),
(127.58,374.31,c),
(123.6,343,o),
(117.01,313.29,o),
(116.77,283.52,cs),
(116.5,250.18,o),
(125.67,219.01,o),
(158.63,200.7,cs),
(173.11,192.66,o),
(190.52,185.21,o),
(199.02,172.44,cs),
(206.8,160.77,o),
(204.38,142.29,o),
(206.46,126.8,c)
);
},
{
closed = 1;
nodes = (
(235.92,18.97,o),
(220.03,27.89,o),
(204.07,36.7,cs),
(178.37,50.89,o),
(176.55,57.83,o),
(190.48,84.44,cs),
(190.48,84.46,ls),
(194.92,92.95,o),
(198,102.15,o),
(201.7,111.02,c),
(199.37,111.85,o),
(197.04,112.69,o),
(194.7,113.52,c),
(156.26,74.82,o),
(149.93,47.83,o),
(173.61,23.54,cs),
(197.78,-1.26,o),
(234,-7.71,o),
(251.97,10.03,c)
);
},
{
closed = 1;
nodes = (
(341.09,32.19,o),
(365.17,37.51,o),
(374.83,56.68,c),
(296.18,85.17,o),
(308.34,71,o),
(316.21,150.55,cs),
(316.2,150.54,ls),
(284.09,95.66,o),
(285.54,61.82,o),
(318.5,44.24,cs)
);
},
{
closed = 1;
nodes = (
(330.94,161.11,o),
(333.66,161.94,o),
(335.14,162.34,c),
(343.1,209.44,o),
(327.71,232.53,o),
(288.11,235.23,cs),
(265.96,236.74,o),
(243.99,240.66,o),
(219.8,243.77,c),
(224.03,226,o),
(239.07,211.73,o),
(256.53,211.38,cs),
(293.89,210.63,o),
(318.05,195.83,o),
(330.89,161.27,cs)
);
},
{
closed = 1;
nodes = (
(257.35,277.84,o),
(256.22,281.72,o),
(255.66,285.68,cs),
(251.05,318.52,o),
(241.65,351.72,o),
(243.86,384.11,cs),
(245.18,403.56,o),
(241.35,417.04,o),
(232.25,431.54,cs),
(209.23,468.23,o),
(217.64,503.27,o),
(237.41,537.85,cs),
(245.5,552,o),
(253.46,560.27,o),
(265.81,541.01,cs),
(269.3,535.58,o),
(276.56,532.56,o),
(287.4,524.47,c),
(279.84,542.26,o),
(276,553.81,o),
(270.09,564.17,cs),
(266.71,570.08,o),
(260.69,576.38,o),
(254.52,578.37,cs),
(242.97,582.09,o),
(198.12,554.49,o),
(196.63,542.13,cs),
(193.4,515.4,o),
(193.04,488.33,o),
(190.36,461.52,cs),
(189.2,449.9,o),
(181.2,437.81,o),
(183.2,427.23,cs),
(191.27,384.35,o),
(201.27,341.79,o),
(212.09,299.5,cs),
(217.68,277.61,o),
(236.23,268.25,o),
(258.21,273.97,c)
);
},
{
closed = 1;
nodes = (
(357.03,321.3,o),
(370.48,324.65,o),
(380.48,321.04,cs),
(406.78,311.55,o),
(429.15,316.67,o),
(457.57,334.86,c),
(391.7,342.72,o),
(329.55,331.78,o),
(272.63,369.83,c),
(273.27,360.08,o),
(272.63,355.87,o),
(273.92,352.39,cs),
(284.37,324.12,o),
(314.41,310.68,o),
(345.8,318.5,cs)
);
},
{
closed = 1;
nodes = (
(357.8,448.7,o),
(357.27,461.24,o),
(357.88,461.3,cs),
(383.48,463.62,o),
(383.54,487.54,o),
(392.5,502.92,cs),
(396.83,510.37,o),
(395.21,521.3,o),
(396.28,530.66,c),
(369.01,530.66,l),
(363.61,587.71,o),
(340.67,614.89,o),
(295.05,614.73,cs),
(268.87,614.64,o),
(261.87,609.6,o),
(259.77,589.34,c),
(311.7,605.51,o),
(345.64,585.3,o),
(348.56,533.09,cs),
(348.55,533.1,ls),
(331.75,543.98,o),
(316.66,553.73,o),
(301.59,563.49,c),
(300.02,561.01,o),
(298.46,558.52,o),
(296.9,556.04,c),
(305.33,530.68,o),
(329.19,528.25,o),
(352.3,524.71,c),
(365.33,502.39,o),
(358.16,483.74,o),
(343.69,464.77,cs),
(339.47,459.24,o),
(340.18,447.99,o),
(342.42,440.49,cs),
(343.27,437.66,o),
(354.83,438.03,o),
(357.8,437.54,c)
);
}
);
width = 511;
}
);
note = colon;
unicode = 58;
},
{
glyphname = semicolon;
lastChange = "2024-06-01 14:57:49 +0000";
layers = (
{
layerId = "FB7D8E3D-7C75-4663-899C-C1BEB8CD7630";
shapes = (
{
closed = 1;
nodes = (
(235.92,77.71,o),
(298.71,109.19,o),
(361.78,139.98,cs),
(384.55,151.1,o),
(406.98,162.93,o),
(431.99,175.68,c),
(438.99,202.59,o),
(434.31,243.21,o),
(420.05,269.03,cs),
(413.39,281.07,o),
(404.89,288.15,o),
(392.22,277.53,cs),
(346.64,239.33,o),
(342.93,238.72,o),
(297.41,262.74,c),
(291.36,281.75,o),
(286.83,295.95,o),
(281.55,312.56,c),
(282.03,313.08,o),
(285.14,317.08,o),
(288.89,320.34,cs),
(303.28,332.83,o),
(307.82,353.23,o),
(297.57,363.75,cs),
(283.61,378.09,o),
(268.68,361.35,o),
(258.63,349.92,cs),
(243.98,333.27,o),
(231.36,314.82,o),
(217.14,296.18,c),
(209.12,316.44,o),
(201.47,335.77,o),
(193.82,355.09,c),
(191.23,354.16,o),
(188.64,353.23,o),
(186.06,352.31,c),
(186.06,318.41,l),
(185.02,316.28,o),
(183.98,314.16,o),
(182.94,312.03,c),
(153.11,355.08,o),
(118.93,384.18,o),
(70.35,355.9,c),
(82.41,337.82,o),
(95.3,318.49,o),
(111.9,293.59,c),
(117.3,306,o),
(122.15,317.15,o),
(126.61,327.4,c),
(133.84,316.14,o),
(141.48,304.26,o),
(147.87,294.29,c),
(143.42,279.46,o),
(139.2,265.38,o),
(134.88,250.94,c),
(125.6,252.17,o),
(114.28,253.67,o),
(102.96,255.17,c),
(101.7,242.07,o),
(100.44,228.97,o),
(98.63,210.15,c),
(51.63,194.64,o),
(47.74,153.58,o),
(55.91,107.11,cs),
(56.91,101.41,o),
(54.25,94.52,o),
(56.53,89.73,cs),
(60.12,82.19,o),
(66.46,75.96,o),
(71.64,69.18,c),
(76.39,76.62,o),
(84.86,83.89,o),
(85.2,91.53,cs),
(86.3,115.72,o),
(86.52,140.37,o),
(82.92,164.22,cs),
(80,183.5,o),
(89.11,190.46,o),
(103.87,194.11,cs),
(139.27,202.86,o),
(175.43,208.96,o),
(210.29,219.41,cs),
(234.89,226.79,o),
(251.05,216.51,o),
(272.11,199.92,c),
(242.92,189.48,o),
(217.21,180.28,o),
(190.02,170.56,c),
(185.65,135.9,o),
(181.07,99.51,o),
(176.42,62.67,c),
(159.91,61.47,o),
(145.04,60.39,o),
(130.17,59.31,c),
(130.12,57.11,o),
(130.06,54.9,o),
(130.01,52.7,c),
(144.11,51.16,o),
(160.74,44,o),
(171.91,49.01,cs)
);
},
{
closed = 1;
nodes = (
(228.64,369.94,o),
(233.05,378.07,o),
(238.38,387.92,c),
(225.61,392.9,o),
(214.94,397.07,o),
(200.21,402.82,c),
(209.21,386,o),
(215.45,374.33,o),
(223.18,359.88,c)
);
}
);
width = 488;
}
);
note = semicolon;
unicode = 59;
},
{
glyphname = less;
lastChange = "2024-06-01 14:57:49 +0000";
layers = (
{
layerId = "FB7D8E3D-7C75-4663-899C-C1BEB8CD7630";
shapes = (
{
closed = 1;
nodes = (
(147.28,-23.56,o),
(215,-21.91,o),
(282.7,-19.92,cs),
(289.8,-19.71,o),
(296.77,-15.21,o),
(303.81,-12.7,c),
(298.61,-6.83,o),
(294.51,1.85,o),
(288.01,4.39,cs),
(263.35,14.03,o),
(237.91,21.68,o),
(214.85,29.37,c),
(214.85,161.45,l),
(254.91,164.63,o),
(294.74,167.8,o),
(334.57,170.97,cs),
(334.56,170.96,ls),
(335.3,173.27,o),
(336.04,175.58,o),
(336.78,177.89,c),
(328.42,181.73,o),
(320.36,186.56,o),
(311.64,189.23,cs),
(272.14,201.32,o),
(228.52,181.93,o),
(190.32,204.88,cs),
(189.73,205.23,o),
(188.59,205.07,o),
(187.86,204.77,cs),
(153.39,190.44,o),
(118.66,176.67,o),
(84.82,160.99,cs),
(80.18,158.84,o),
(76.81,141.5,o),
(78.17,140.74,cs),
(97.99,129.68,o),
(89.56,111.51,o),
(90.59,96.05,cs),
(92.61,65.73,o),
(94.06,35.36,o),
(95.78,4.6,c),
(91.89,5.08,o),
(85.77,7.83,o),
(82.3,5.88,cs),
(71.82,-0.01,o),
(62.36,-7.73,o),
(52.5,-14.73,c),
(61.52,-18.04,o),
(70.57,-24.26,o),
(79.56,-24.18,cs)
);
},
{
closed = 1;
nodes = (
(148.51,238,ls),
(184.99,253.12,o),
(221.27,241.14,o),
(257.39,243.88,cs),
(265.37,244.48,o),
(272.92,250.57,o),
(280.68,254.13,c),
(276.22,261.19,o),
(272.45,268.83,o),
(267.14,275.17,cs),
(260.18,283.48,o),
(252,290.77,o),
(239.76,303.11,c),
(272.9,304.39,o),
(289.59,312.83,o),
(286.44,337.8,c),
(278.1,330.72,o),
(268.85,322.86,o),
(259.6,315,c),
(251.8,326.13,o),
(243.99,337.25,o),
(234.1,351.37,c),
(232.38,331.12,o),
(234.37,306.17,o),
(203.79,307.55,cs),
(203.06,307.59,o),
(201.75,304.91,o),
(201.48,303.36,cs),
(198.2,284.39,o),
(182.69,281.15,o),
(169.3,284.41,cs),
(162.91,285.96,o),
(159.81,301.13,o),
(155.16,310.24,c),
(144.75,308.7,o),
(132.12,306.82,o),
(119.49,304.95,c),
(123.51,318.39,o),
(127.54,331.84,o),
(132.66,348.94,c),
(127.73,348.71,o),
(116.54,350.82,o),
(114.74,347.63,cs),
(106.92,333.81,o),
(96.45,318.05,o),
(97.47,303.75,cs),
(98.32,291.94,o),
(113.94,281.18,o),
(126.49,265.66,c),
(123.02,248.68,o),
(132.14,231.19,o),
(148.52,237.98,cs)
);
},
{
closed = 1;
nodes = (
(175.94,317.47,o),
(206.53,322.74,o),
(218.43,349.48,cs),
(221.13,355.55,o),
(229.73,358.73,o),
(233.97,364.45,cs),
(240.31,372.97,o),
(245.19,382.57,o),
(250.7,391.71,c),
(248.64,392.93,o),
(246.58,394.16,o),
(244.53,395.38,c),
(239.31,392.5,o),
(234.08,389.61,o),
(227.24,385.82,c),
(226.69,394.31,o),
(226.3,400.25,o),
(225.65,410.32,c),
(212.81,399.38,o),
(202.88,390.93,o),
(196.81,385.76,c),
(194.23,371.89,o),
(194.03,352.49,o),
(189.91,351.62,cs),
(159.57,345.21,o),
(172.88,376.43,o),
(163.71,386.6,c),
(130.16,386.6,l),
(134.04,396.35,o),
(137.91,406.1,o),
(142.74,418.24,c),
(123.93,423.82,o),
(113.79,410.56,o),
(112.76,396.21,cs),
(112.02,385.83,o),
(121.62,366.66,o),
(129.02,365.38,cs),
(145.58,362.52,o),
(150.6,352.61,o),
(158.72,341.35,cs)
);
}
);
width = 389;
}
);
note = less;
unicode = 60;
},
{
glyphname = equal;
lastChange = "2024-06-01 14:57:49 +0000";
layers = (
{
layerId = "FB7D8E3D-7C75-4663-899C-C1BEB8CD7630";
shapes = (
{
closed = 1;
nodes = (
(533.78,64.92,o),
(540.69,68.86,o),
(539.99,86.99,cs),
(540,86.98,ls),
(537.11,161.4,o),
(534.94,235.84,o),
(532.25,310.27,cs),
(531.51,330.75,o),
(529.88,351.2,o),
(528.26,378.41,c),
(485.45,308.41,o),
(420.34,283.41,o),
(352.87,261.97,cs),
(282.11,239.48,o),
(220.31,201.79,o),
(169.8,147.55,cs),
(149.31,125.54,o),
(133.74,98.94,o),
(115.93,74.43,c),
(118.4,72.92,o),
(120.88,71.42,o),
(123.35,69.91,c),
(180.81,72.95,o),
(238.3,79.04,o),
(295.71,78.27,cs),
(369.21,77.29,o),
(442.69,71.42,o),
(516.07,66.18,cs)
);
},
{
closed = 1;
nodes = (
(97.45,95.75,o),
(107.09,379.53,o),
(92.49,399.88,c),
(61.93,363.43,o),
(37.71,114.18,o),
(63.15,83.18,c),
(64.57,97.96,o),
(65.87,111.35,o),
(67.16,124.74,c),
(69.11,124.53,o),
(71.05,124.31,o),
(73,124.1,c),
(74.62,109.15,o),
(76.25,94.2,o),
(78.18,76.42,c)
);
},
{
closed = 1;
nodes = (
(437.12,94.5,o),
(436.29,106.02,o),
(435.21,120.97,c),
(427.8,119.24,o),
(420.48,117.54,o),
(405.27,113.99,c),
(438.65,139.45,o),
(411.49,150.45,o),
(398.8,167.99,c),
(422.34,173.13,o),
(455.86,160.5,o),
(459.57,200.43,c),
(462.06,193.05,o),
(468.32,184.46,o),
(466.39,178.51,cs),
(458.64,154.52,o),
(473.07,153.96,o),
(486.24,154.72,c),
(483.35,137.83,o),
(480.49,121.19,o),
(477.39,103.08,cs),
(477.4,103.07,ls),
(456.92,116.89,o),
(453.88,91.18,o),
(438.3,78.18,c)
);
},
{
closed = 1;
nodes = (
(159.63,479.5,o),
(167.83,480.2,o),
(176.03,480.9,c),
(174.16,492.84,o),
(172.3,504.78,o),
(170.43,516.72,cs),
(170.44,516.71,l),
(162.55,515.67,l),
(158.45,506.01,o),
(154.34,496.34,o),
(146.72,478.4,c)
);
},
{
closed = 1;
nodes = (
(250.2,371.68,o),
(373.02,375.72,o),
(500.64,379.91,c),
(454.3,409.84,o),
(160.24,397.44,o),
(127.37,367.61,c)
);
},
{
closed = 1;
nodes = (
(489.5,516.24,l),
(477.83,518.03,l),
(474.16,507.66,o),
(470.49,497.29,o),
(466.82,486.92,c),
(474.38,486.89,o),
(481.94,486.87,o),
(489.5,486.85,c)
);
}
);
width = 593;
}
);
note = equal;
unicode = 61;
},
{
glyphname = greater;
lastChange = "2024-06-01 14:57:49 +0000";
layers = (
{
layerId = "FB7D8E3D-7C75-4663-899C-C1BEB8CD7630";
shapes = (
{
closed = 1;
nodes = (
(223.44,30.8,o),
(295.85,55.5,o),
(332.06,102.19,cs),
(333.12,103.57,o),
(332.37,106.36,o),
(332.58,111.1,cs),
(332.57,111.11,ls),
(319.14,107.24,o),
(307.31,103.87,o),
(295.5,100.41,cs),
(247.91,86.47,o),
(202.75,91.89,o),
(160.33,117.74,cs),
(129.28,136.67,o),
(105.16,193.03,o),
(114.27,227.22,cs),
(118.63,243.58,o),
(124.96,257.58,o),
(147.57,245.43,cs),
(175.95,230.19,o),
(204.65,236.46,o),
(231.34,251.33,cs),
(238.67,255.42,o),
(243.46,264.08,o),
(253.12,274.73,c),
(203.27,276.53,o),
(159.91,281.74,o),
(140.51,326.14,cs),
(130.27,349.57,o),
(140.44,374.65,o),
(161.3,396.39,c),
(168.14,383.07,o),
(175.15,372.52,o),
(179.14,360.93,cs),
(184.79,344.52,o),
(187.35,327.05,o),
(193.04,310.67,cs),
(195.05,304.86,o),
(202.36,300.9,o),
(207.25,296.1,c),
(211.21,301.04,o),
(216.32,305.43,o),
(218.95,311,cs),
(233.65,342.22,o),
(223.02,371.15,o),
(207.56,402.3,c),
(215.5,400.8,o),
(222.96,401.66,o),
(225.61,398.49,cs),
(235.6,386.58,o),
(242.93,372.34,o),
(253.49,361.06,cs),
(258.71,355.49,o),
(272.73,349.63,o),
(275.96,352.25,cs),
(287.49,361.66,o),
(296.11,374.64,o),
(305.83,386.27,c),
(299.83,391.48,l),
(287.37,384.08,o),
(274.9,376.68,o),
(259.92,367.79,c),
(257.95,409.5,o),
(233.52,431.47,o),
(203.96,450.68,cs),
(183.66,463.87,o),
(171.03,495.72,o),
(185.14,511.72,cs),
(207.52,537.11,o),
(200.53,563.36,o),
(197.56,589.65,cs),
(196.08,602.7,o),
(187.12,624.4,o),
(179.34,625.41,cs),
(158.46,628.13,o),
(157.61,605.75,o),
(154.78,591.25,cs),
(146.61,549.37,o),
(164.38,506.06,o),
(148.84,464.16,cs),
(147.38,460.24,o),
(152.39,454.2,o),
(151.46,449.76,cs),
(148.49,435.58,o),
(148.68,416.08,o),
(139.53,408.67,cs),
(98.61,375.55,o),
(85.82,340.96,o),
(101.17,286.76,c),
(54.43,260.7,o),
(45.01,220.01,o),
(57.58,171.04,cs),
(58.98,165.59,o),
(61.89,158.31,o),
(59.65,154.51,cs),
(48.31,135.3,o),
(58.34,119.75,o),
(71.43,110.75,cs),
(102.73,89.22,o),
(134.73,67.02,o),
(169.6,52.78,cs)
);
},
{
closed = 1;
nodes = (
(332.62,482.84,o),
(339.55,488.5,o),
(351.72,494.95,c),
(342.07,503.04,o),
(334.46,511.8,o),
(332.48,510.67,cs),
(324.49,506.11,o),
(318.24,498.51,o),
(311.35,492.03,c),
(315.93,488.29,o),
(321.09,480.95,o),
(324.96,481.59,cs)
);
}
);
width = 404;
}
);
note = greater;
unicode = 62;
},
{
glyphname = question;
lastChange = "2024-06-01 14:57:49 +0000";
layers = (
{
layerId = "FB7D8E3D-7C75-4663-899C-C1BEB8CD7630";
shapes = (
{
closed = 1;
nodes = (
(330.5,54.39,o),
(331.74,55.48,o),
(332.98,56.57,c),
(316.64,89.44,o),
(300.31,122.31,o),
(284.49,154.14,c),
(323.03,170.45,o),
(358.46,185.44,o),
(393.9,200.44,c),
(392.57,203.81,o),
(391.23,207.18,o),
(389.9,210.56,c),
(353.35,200.06,o),
(316.54,190.37,o),
(280.37,178.69,cs),
(263.46,173.22,o),
(256.87,160.56,o),
(267.17,143.28,cs),
(278.72,123.92,o),
(289.57,104.09,o),
(302.1,85.38,cs),
(309.84,73.81,o),
(320.12,63.94,o),
(329.26,53.3,c)
);
},
{
closed = 1;
nodes = (
(88.76,113.28,o),
(134.45,117.75,o),
(175.01,129.19,cs),
(180.64,130.78,o),
(186.59,132.17,o),
(191.51,135.11,cs),
(202.31,141.56,o),
(212.55,148.96,o),
(223.02,155.97,c),
(218.54,166.42,l),
(188.83,158.29,o),
(158.66,151.47,o),
(129.62,141.39,cs),
(117.44,137.16,o),
(111.09,137.43,o),
(101.63,146.56,cs),
(89.06,158.68,o),
(74.45,170.89,o),
(52.5,162.12,c),
(87.53,138.82,o),
(87.21,138.88,o),
(79.43,98.13,cs),
(76.97,85.24,o),
(76.74,71.93,o),
(75.5,58.81,c),
(78.64,56.8,o),
(81.78,54.78,o),
(84.91,52.77,c)
);
},
{
closed = 1;
nodes = (
(286.28,-12.19,o),
(294,-4.59,o),
(303.83,1.55,c),
(294.41,9.34,o),
(289.2,16.81,o),
(283,17.74,cs),
(278.25,18.45,o),
(272.27,10.9,o),
(266.84,7.02,c),
(272.21,0.84,o),
(276.63,-7.12,o),
(283.37,-10.66,cs)
);
},
{
closed = 1;
nodes = (
(85.91,207.87,o),
(96.05,215.54,o),
(94.84,220.39,cs),
(94.85,220.38,ls),
(92.73,228.93,o),
(83.68,235.75,o),
(77.53,243.3,c),
(71.31,237.82,o),
(59.69,231.95,o),
(60.06,226.96,cs),
(60.7,218.26,o),
(68.73,210.1,o),
(76.83,196.33,c)
);
},
{
closed = 1;
nodes = (
(242,63.57,o),
(255.1,124,o),
(243.61,151.34,c),
(221.64,108.41,o),
(221.46,66.61,o),
(218.22,25.91,c)
);
},
{
closed = 1;
nodes = (
(399.41,-27.95,o),
(407.79,-20.51,o),
(421.86,-11.11,c),
(410.27,-2.55,o),
(401.98,7.4,o),
(397.75,5.89,cs),
(397.74,5.88,ls),
(389.12,2.82,o),
(380.65,-5.37,o),
(376.42,-13.63,cs),
(374.82,-16.75,o),
(387.23,-32.14,o),
(389.62,-31.31,cs)
);
},
{
closed = 1;
nodes = (
(209.27,225.97,o),
(183.74,255.92,o),
(155.24,281.81,cs),
(141.74,294.08,o),
(120.42,289.24,o),
(98.36,275.6,c),
(108.68,271.67,o),
(113.12,268.26,o),
(117.06,268.77,cs),
(139.72,271.67,o),
(151.1,258.12,o),
(163.45,241.99,cs),
(179.21,221.4,o),
(198.25,203.31,o),
(215.88,184.15,c)
);
},
{
closed = 1;
nodes = (
(114.45,330.22,o),
(122.63,337.84,o),
(121.17,342.33,cs),
(119,348.98,o),
(110,353.4,o),
(103.91,358.77,c),
(99.61,352.66,o),
(91.95,346.54,o),
(91.99,340.45,cs),
(92.02,334.81,o),
(100.26,329.21,o),
(107.99,319.84,c)
);
},
{
closed = 1;
nodes = (
(431.65,105.97,o),
(441.61,111.31,o),
(441.97,117.22,cs),
(442.41,124.47,o),
(434.81,132.21,o),
(427.43,145.66,c),
(417.83,133.25,o),
(408,125.86,o),
(409.04,120.61,cs),
(410.54,113.05,o),
(419.93,107.05,o),
(425.95,100.38,c)
);
},
{
closed = 1;
nodes = (
(269.89,215.1,o),
(278.35,242.14,o),
(288.33,268.61,cs),
(292.51,279.7,o),
(298.9,290.32,o),
(306.06,299.82,cs),
(315.72,312.64,o),
(327.1,324.17,o),
(337.75,336.26,c),
(335.46,338.35,o),
(333.18,340.44,o),
(330.9,342.53,c),
(318.48,331.29,o),
(306.06,320.05,o),
(294.12,309.25,c),
(284.59,322.04,o),
(275.97,333.61,o),
(267.36,345.17,c),
(264.33,344.19,o),
(261.31,343.22,o),
(258.28,342.24,c),
(286.58,312.95,o),
(271.69,284.18,o),
(263.12,254.79,cs),
(257.1,234.11,o),
(253.8,212.65,o),
(249.29,191.53,c),
(253.13,190.46,o),
(256.97,189.38,o),
(260.81,188.3,c)
);
},
{
closed = 1;
nodes = (
(382.9,293.79,o),
(390.04,299.28,o),
(391,305.7,cs),
(391.57,309.53,o),
(381.5,319.21,o),
(377.88,318.44,cs),
(371.97,317.18,o),
(364.66,310.22,o),
(363.21,304.36,cs),
(362.14,300.03,o),
(369.46,293.62,o),
(375.56,284.29,c)
);
},
{
closed = 1;
nodes = (
(482.97,237.34,o),
(489.87,245.16,o),
(501.98,254.04,c),
(491.29,260.07,o),
(484.34,267.02,o),
(480.33,265.61,cs),
(472.32,262.81,o),
(465.93,255.4,o),
(458.87,249.9,c),
(464.22,244.66,o),
(470.85,234.29,o),
(474.65,235.25,cs)
);
}
);
width = 555;
}
);
note = question;
unicode = 63;
},
{
glyphname = at;
lastChange = "2024-06-01 14:57:49 +0000";
layers = (
{
layerId = "FB7D8E3D-7C75-4663-899C-C1BEB8CD7630";
shapes = (
{
closed = 1;
nodes = (
(370.48,127.74,o),
(367.11,145.98,o),
(365.71,160.77,cs),
(362.41,195.68,o),
(356.97,230.39,o),
(353.1,265.26,cs),
(353.1,265.24,ls),
(352.46,270.98,o),
(353.4,280.15,o),
(357.05,282.58,cs),
(375.37,294.81,o),
(395.5,304.38,o),
(413.58,316.9,cs),
(421.86,322.63,o),
(426.91,333.03,o),
(433.42,341.31,c),
(423.21,344.27,o),
(412.55,350.72,o),
(402.89,349.46,cs),
(384.1,347.01,o),
(365.87,340.23,o),
(345.48,334.72,c),
(342.71,373.24,o),
(340.08,409.72,o),
(337.45,446.19,c),
(334.76,445.85,o),
(332.07,445.5,o),
(329.38,445.15,c),
(333.27,402.37,o),
(337.16,359.59,o),
(341.26,314.55,c),
(358.73,323.65,o),
(372.65,330.9,o),
(386.58,338.16,c),
(387.92,336.36,o),
(389.26,334.56,o),
(390.61,332.76,c),
(387.84,328.34,o),
(386.13,321.89,o),
(382.14,319.83,cs),
(345.87,301.04,o),
(338.86,270.84,o),
(346.98,234.06,cs),
(347.87,230.04,o),
(347.4,225.71,o),
(347.4,221.52,cs),
(347.43,189.16,o),
(347.42,156.81,o),
(347.42,123.73,c)
);
},
{
closed = 1;
nodes = (
(70.94,127.97,o),
(79.97,130.05,o),
(83.96,134.11,cs),
(98.51,148.9,o),
(112.19,164.67,o),
(125.01,181,cs),
(133.41,191.7,o),
(139.77,204.01,o),
(147.04,215.6,c),
(144.67,217.75,o),
(142.31,219.91,o),
(139.94,222.06,c),
(104.03,207.13,o),
(80.14,178.54,o),
(60.48,145.84,cs),
(58.37,142.32,o),
(62.33,130.37,o),
(65.47,129.5,cs)
);
},
{
closed = 1;
nodes = (
(195.88,-1.37,o),
(206.01,2.53,o),
(207.24,8.32,cs),
(217.83,58.11,o),
(226.8,108.23,o),
(236.26,158.26,c),
(227.01,160.49,l),
(200.49,114.5,o),
(187.33,63.58,o),
(177.17,11.84,cs),
(176.19,6.87,o),
(185.4,-0.1,o),
(189.88,-6.15,c)
);
},
{
closed = 1;
nodes = (
(304.88,-5.07,o),
(316.81,1.36,o),
(317.5,8.85,cs),
(320.27,38.71,o),
(320.57,68.92,o),
(319.59,98.94,cs),
(319.21,110.66,o),
(313.05,122.19,o),
(309.52,133.81,cs),
(309.53,133.8,ls),
(307.43,133.75,o),
(305.33,133.71,o),
(303.22,133.67,c),
(299.92,122.89,o),
(294.98,112.31,o),
(293.66,101.29,cs),
(290.08,71.43,o),
(287.07,41.42,o),
(286.07,11.4,cs),
(285.82,3.74,o),
(293.88,-4.19,o),
(298.12,-11.99,c)
);
},
{
closed = 1;
nodes = (
(93.37,302.89,o),
(116.42,316.07,o),
(144.53,331.29,c),
(116.8,341.83,o),
(67.45,331.67,o),
(56.08,316.55,cs),
(52.8,312.2,o),
(51.27,303.22,o),
(53.62,298.9,cs),
(55.98,294.56,o),
(65.94,289.7,o),
(69.51,291.42,cs)
);
},
{
closed = 1;
nodes = (
(223.73,215.97,o),
(246.09,235.48,o),
(268.69,255.2,c),
(260.8,267.54,o),
(254.12,277.96,o),
(243.86,294,c),
(226.53,259.1,o),
(211.68,229.21,o),
(196.84,199.32,c),
(201.37,196.46,l)
);
},
{
closed = 1;
nodes = (
(298.07,198.91,o),
(299.64,201.13,o),
(301.21,203.36,cs),
(301.22,203.35,ls),
(295.14,213.1,o),
(289.05,222.86,o),
(282.96,232.61,c),
(274.7,232.36,l),
(274.7,225.23,o),
(271.99,216.18,o),
(275.35,211.42,cs),
(280.01,204.82,o),
(289.24,201.45,o),
(296.5,196.69,c)
);
},
{
closed = 1;
nodes = (
(236.14,326.21,o),
(203.2,334.08,o),
(191.82,354.29,c),
(161.58,333,o),
(163.5,329.27,o),
(223.99,289.48,c)
);
},
{
closed = 1;
nodes = (
(326.67,199.04,o),
(328.49,199.86,o),
(330.3,200.67,c),
(328.43,223.08,o),
(326.56,245.5,o),
(324.38,271.73,c),
(312.96,262.14,o),
(305.03,255.5,o),
(296.28,248.15,c),
(306.48,230.34,o),
(315.67,214.28,o),
(324.86,198.22,c)
);
},
{
closed = 1;
nodes = (
(506.16,86.26,o),
(506.94,97.69,o),
(502.05,101.15,cs),
(479.22,117.31,o),
(454.84,131.27,o),
(431.01,146.02,c),
(427.55,142.42,o),
(424.08,138.82,o),
(420.62,135.23,c),
(442.41,116.57,o),
(463.73,97.32,o),
(486.37,79.76,cs),
(491.07,76.11,o),
(500.66,78.75,o),
(508,78.5,c)
);
},
{
closed = 1;
nodes = (
(186.13,401.69,o),
(188.63,403.88,o),
(191.13,406.07,c),
(169.13,432.55,o),
(147.64,459.48,o),
(124.59,485.01,cs),
(120.96,489.03,o),
(110.26,486.67,o),
(102.82,487.26,c),
(102.36,479.77,o),
(98.49,468.95,o),
(102.01,465.32,cs),
(126.46,440.09,o),
(148.52,411.27,o),
(183.62,399.5,c)
);
},
{
closed = 1;
nodes = (
(298.97,279.59,o),
(318.75,290.82,o),
(319.21,302.78,cs),
(319.22,302.79,ls),
(320.61,339.21,o),
(314.54,375.92,o),
(311.37,412.52,c),
(309.6,412.63,o),
(307.83,412.73,o),
(306.05,412.84,c),
(289,379.78,o),
(271.96,346.73,o),
(254.85,313.53,c),
(264.53,298.58,o),
(273.91,284.1,o),
(285.83,265.7,c)
);
},
{
closed = 1;
nodes = (
(237.1,402.92,o),
(242.19,403.76,o),
(247.27,404.6,c),
(243.56,447.23,o),
(240.52,489.94,o),
(235.32,532.39,cs),
(234.64,537.96,o),
(222.12,546.67,o),
(216.41,545.74,cs),
(210.57,544.79,o),
(201.15,532.7,o),
(202.25,527.35,cs),
(210.96,485.34,o),
(221.81,443.78,o),
(232.01,402.08,c)
);
},
{
closed = 1;
nodes = (
(555.4,227.27,o),
(561.53,235.22,o),
(567.07,239.15,c),
(562.78,244.32,o),
(558.87,253.57,o),
(554.13,254.02,cs),
(506.2,258.53,o),
(458.15,261.6,o),
(410.12,265.08,c),
(409.61,260.54,o),
(409.1,256.01,o),
(408.58,251.47,c),
(455.87,243.43,o),
(503.1,234.98,o),
(550.54,227.98,cs)
);
},
{
closed = 1;
nodes = (
(399.24,465.47,o),
(416.78,488.92,o),
(432.92,513.31,cs),
(432.92,513.29,ls),
(435.1,516.59,o),
(430.24,524.54,o),
(428.64,530.34,c),
(422.94,528.28,o),
(414.27,527.89,o),
(412.02,523.89,cs),
(398.03,499,o),
(385.47,473.29,o),
(372.44,447.86,c),
(375.67,445.81,o),
(378.9,443.76,o),
(382.13,441.72,c)
);
},
{
closed = 1;
nodes = (
(471.55,386.05,o),
(504.72,393.25,o),
(537.43,402.14,cs),
(537.42,402.15,ls),
(542.38,403.5,o),
(545.19,412.79,o),
(548.99,418.4,c),
(541.99,421,o),
(533.56,427.5,o),
(528.24,425.54,cs),
(497.27,414.17,o),
(467.04,400.81,o),
(436.55,388.12,c),
(437.21,384.85,o),
(437.87,381.57,o),
(438.53,378.3,c)
);
}
);
width = 620;
}
);
note = at;
unicode = 64;
},
{
glyphname = A;
lastChange = "2024-06-01 14:57:49 +0000";
layers = (
{
layerId = "FB7D8E3D-7C75-4663-899C-C1BEB8CD7630";
shapes = (
{
closed = 1;
nodes = (
(115.29,154.87,o),
(167.08,194.39,o),
(217.87,235.16,cs),
(222.69,239.03,o),
(221.11,250.86,o),
(223.41,264.33,cs),
(223.42,264.34,ls),
(226.3,267.75,o),
(233.28,276.01,o),
(240.26,284.26,c),
(237.65,287.05,o),
(235.05,289.84,o),
(232.45,292.64,c),
(193.89,267.21,o),
(155.34,241.79,o),
(116.78,216.36,c),
(118.44,213.58,o),
(120.11,210.79,o),
(121.76,208,c),
(200.11,249.9,l),
(201.47,248.64,o),
(202.83,247.38,o),
(204.19,246.12,c),
(153.64,203.46,o),
(103.09,160.8,o),
(52.54,118.14,c),
(58.98,114.02,o),
(61.92,113.81,o),
(63.66,115.15,cs)
);
},
{
closed = 1;
nodes = (
(155.4,110.01,o),
(218.89,195.3,o),
(211.58,221.56,c),
(178.01,176.59,o),
(146.9,134.94,o),
(115.8,93.28,c)
);
},
{
closed = 1;
nodes = (
(213.47,84.56,o),
(250.22,137.14,o),
(282.58,192.75,c),
(271.18,200.71,l),
(234.51,148.22,o),
(197.85,95.73,o),
(161.19,43.25,c),
(164.06,41.09,o),
(166.94,38.94,o),
(169.82,36.78,c)
);
},
{
closed = 1;
nodes = (
(220.75,46.03,o),
(232.7,60.92,o),
(242.69,77.02,cs),
(265.38,113.57,o),
(287.13,150.71,o),
(309.26,187.62,c),
(308.54,193.3,o),
(307.8,198.99,o),
(307.08,204.67,c),
(304.64,205.18,o),
(302.19,205.68,o),
(299.75,206.19,c),
(202.47,35.05,l),
(204.88,33.57,o),
(207.28,32.08,o),
(209.69,30.6,c)
);
},
{
closed = 1;
nodes = (
(311.46,99.37,o),
(328.31,148.86,o),
(329.3,201.64,c),
(326.35,202.7,o),
(323.41,203.76,o),
(320.46,204.82,c),
(316.84,199.25,o),
(313.22,193.68,o),
(309.6,188.11,c),
(305.08,165.17,o),
(300.22,142.3,o),
(296.15,119.28,cs),
(292.18,96.74,o),
(289.02,74.07,o),
(285.51,51.45,c),
(288.72,50.89,o),
(291.93,50.33,o),
(295.14,49.78,c)
);
},
{
closed = 1;
nodes = (
(353.07,84.2,o),
(361.17,146.7,o),
(353.01,208.06,c),
(348.56,207.57,o),
(344.1,207.08,o),
(339.65,206.59,c),
(342.02,144.94,o),
(339.05,82.85,o),
(359.04,22.66,c)
);
},
{
closed = 1;
nodes = (
(309.59,188.11,ls),
(309.6,188.14,o),
(309.6,188.17,o),
(309.61,188.2,cs),
(309.61,188.21,l),
(309.62,188.23,l),
(309.62,188.23,o),
(309.62,188.22,o),
(309.62,188.22,c),
(309.62,188.23,o),
(309.62,188.23,o),
(309.62,188.24,c),
(309.62,188.24,o),
(309.55,188.12,o),
(309.5,188.03,cs),
(309.42,187.89,o),
(309.34,187.76,o),
(309.26,187.62,c),
(309.26,187.62,o),
(309.26,187.61,o),
(309.26,187.6,c),
(309.26,187.6,o),
(309.3,187.67,o),
(309.32,187.69,cs),
(309.3,187.66,o),
(309.26,187.6,o),
(309.26,187.6,c)
);
},
{
closed = 1;
nodes = (
(427.71,34.9,o),
(429.95,35.66,o),
(432.19,36.43,c),
(413.95,91.05,o),
(395.71,145.68,o),
(377.47,200.31,c),
(374.02,199.13,o),
(370.58,197.95,o),
(367.13,196.78,c),
(378.73,139.87,o),
(397.99,85.6,o),
(425.46,34.13,c)
);
},
{
closed = 1;
nodes = (
(519.24,23.86,o),
(521.11,25.34,o),
(522.99,26.82,c),
(491.01,85.69,o),
(450.45,137.82,o),
(401.99,183.76,c),
(398.85,181.15,o),
(395.7,178.56,o),
(392.55,175.97,c),
(434.15,124.77,o),
(475.75,73.58,o),
(517.36,22.38,c)
);
},
{
closed = 1;
nodes = (
(236.87,351.76,o),
(246.04,355.99,o),
(252.76,356.92,c),
(249.77,362.96,o),
(248.37,371.2,o),
(243.54,374.67,cs),
(203.54,403.46,o),
(163.1,431.66,o),
(122.33,459.34,cs),
(111.78,466.5,o),
(99.58,471.21,o),
(88.14,477.04,c),
(86.32,474.29,o),
(84.51,471.55,o),
(82.69,468.8,c),
(132.66,430.58,o),
(182.45,392.1,o),
(232.98,354.64,cs)
);
},
{
closed = 1;
nodes = (
(419.33,209.71,o),
(426.75,210.4,o),
(430.47,214.16,cs),
(432.98,216.7,o),
(431.98,225.56,o),
(429.47,229.75,cs),
(417.18,250.23,o),
(403.85,270.1,o),
(391.17,289.75,c),
(395.07,295.42,o),
(398.48,299.25,o),
(400.6,303.69,cs),
(404.44,311.75,o),
(407.52,320.18,o),
(410.92,328.46,c),
(402.15,329.57,o),
(393.08,329.63,o),
(384.73,332.11,cs),
(377.88,334.15,o),
(369.16,337.58,o),
(366.13,343.07,cs),
(361.06,352.29,o),
(361.02,364.16,o),
(356.66,373.93,cs),
(353.36,381.32,o),
(346.62,387.17,o),
(341.41,393.7,c),
(336.46,387.03,o),
(329.5,381.05,o),
(326.95,373.56,cs),
(320.46,354.51,o),
(315.93,334.78,o),
(310.75,315.82,c),
(274.78,322,o),
(274.25,321.08,o),
(272.9,288.82,cs),
(272.86,288.83,ls),
(272.24,273.86,o),
(268.44,259.04,o),
(267.71,244.07,cs),
(267.22,234.05,o),
(266.53,217.53,o),
(271.37,215.2,cs),
(280,211.04,o),
(293.85,212.71,o),
(303.56,216.71,cs),
(338.13,230.96,o),
(371.35,232.49,o),
(404.23,212.83,cs),
(407.07,211.13,o),
(410.47,208.72,o),
(413.34,209.04,cs)
);
},
{
closed = 1;
nodes = (
(302.62,236.97,o),
(301.31,238.88,o),
(300,240.79,c),
(301.49,257.51,o),
(302.97,274.23,o),
(304.55,292.01,c),
(316.6,305.64,o),
(331.37,322.36,o),
(345.98,338.88,c),
(354.1,328.75,o),
(363.78,316.69,o),
(375.03,302.68,c),
(375.03,255.87,l),
(344.41,275.4,o),
(322.09,262.64,o),
(303.93,235.06,c)
);
},
{
closed = 1;
nodes = (
(257.65,377.03,o),
(271.35,380.4,o),
(271.5,381.88,cs),
(272.25,389.23,o),
(272.77,399.11,o),
(268.57,404,cs),
(255.58,419.15,o),
(240.99,433.09,o),
(225.95,446.27,cs),
(211.53,458.91,o),
(195.75,470.01,o),
(180.57,481.79,c),
(178.89,479.82,o),
(177.2,477.85,o),
(175.52,475.87,c),
(192.08,435.98,o),
(223.89,407.98,o),
(254.84,379.6,cs)
);
},
{
closed = 1;
nodes = (
(573.19,84.87,o),
(531.73,137.41,o),
(487.12,193.92,c),
(486.41,164.19,o),
(584.67,41.57,o),
(617.56,28.65,c)
);
},
{
closed = 1;
nodes = (
(289.65,420.7,o),
(290.91,432.63,o),
(285.56,439.05,cs),
(264.76,463.98,o),
(242.36,487.66,o),
(219.5,510.74,cs),
(210.69,519.63,o),
(199.05,525.71,o),
(188.7,533.07,c),
(187.17,531.55,o),
(185.65,530.03,o),
(184.12,528.52,c),
(189.29,518.63,o),
(193.04,507.6,o),
(199.89,499.06,cs),
(221.27,472.41,o),
(243.22,446.14,o),
(266.38,421.04,cs),
(271.84,415.13,o),
(282.93,414.41,o),
(291.43,411.3,c)
);
},
{
closed = 1;
nodes = (
(638.3,93.59,o),
(640.92,96.61,o),
(643.53,99.63,c),
(593.49,144.8,o),
(543.63,190.17,o),
(493.11,234.81,cs),
(488.37,238.99,o),
(479.55,238.55,o),
(472.62,240.25,c),
(471.53,237.34,o),
(470.44,234.43,o),
(469.35,231.53,c),
(524.8,184.55,o),
(580.24,137.56,o),
(635.68,90.57,c)
);
},
{
closed = 1;
nodes = (
(332.01,463.93,o),
(315.29,504.46,o),
(286.59,522.47,c),
(297.56,496.14,o),
(308.52,469.81,o),
(320.89,440.09,c)
);
},
{
closed = 1;
nodes = (
(671.54,195.09,o),
(671.79,196.48,o),
(672.05,197.87,c),
(499.9,271.95,l),
(500.58,274.27,o),
(501.26,276.58,o),
(501.94,278.9,c),
(603.44,278.9,l),
(603.62,281.21,o),
(603.79,283.52,o),
(603.97,285.83,c),
(598.06,287.63,o),
(592.24,290.61,o),
(586.24,291.03,cs),
(554.58,293.23,o),
(522.88,295.82,o),
(491.19,295.88,cs),
(482.55,295.9,o),
(473.9,287.62,o),
(465.26,283.14,c),
(471.31,275.59,o),
(475.84,264.26,o),
(483.67,261.11,cs),
(538.58,238.99,o),
(594.12,218.43,o),
(649.6,197.75,cs),
(656.39,195.22,o),
(664.04,194.99,o),
(671.29,193.7,c)
);
},
{
closed = 1;
nodes = (
(410.34,474.78,o),
(423.35,514.87,o),
(422.27,558.1,c),
(420.2,558.59,o),
(418.11,559.07,o),
(416.02,559.56,c),
(405.58,518.87,o),
(395.13,478.18,o),
(384.69,437.49,c),
(395.69,435.06,l)
);
},
{
closed = 1;
nodes = (
(549.97,324.99,o),
(593.64,332.01,o),
(637.31,339.04,c),
(602.15,355.05,o),
(517.17,342.09,o),
(502,317.28,c)
);
},
{
closed = 1;
nodes = (
(397.88,387.42,ls),
(443.88,443.1,o),
(480.54,505.12,o),
(517.88,566.69,c),
(514.78,568.82,o),
(511.68,570.95,o),
(508.59,573.08,c),
(467.7,514.12,o),
(426.8,455.16,o),
(385.91,396.19,c),
(389.91,393.26,o),
(393.9,390.34,o),
(397.89,387.41,cs)
);
},
{
closed = 1;
nodes = (
(520.54,402.5,o),
(562.16,448.3,o),
(603.78,494.11,c),
(601.86,496.13,o),
(599.95,498.14,o),
(598.04,500.16,c),
(595.18,498.8,o),
(591.65,498.1,o),
(589.55,495.98,cs),
(551.4,457.55,o),
(513.22,419.14,o),
(475.69,380.11,cs),
(471.81,376.07,o),
(472.01,368.11,o),
(470.33,361.97,c),
(473.19,360.22,o),
(476.05,358.46,o),
(478.92,356.7,c)
);
},
{
closed = 1;
nodes = (
(445.77,390.85,o),
(455.24,392.76,o),
(459.64,398.54,cs),
(485.42,432.42,o),
(510.28,467.02,o),
(534.89,501.77,cs),
(544.76,515.71,o),
(553.19,530.67,o),
(562.27,545.17,c),
(560.86,546.32,o),
(559.45,547.46,o),
(558.04,548.61,c),
(551.45,542.9,o),
(543.83,538.01,o),
(538.44,531.33,cs),
(505.99,491.05,o),
(473.72,450.6,o),
(442.34,409.48,cs),
(438.29,404.18,o),
(439.75,394.69,o),
(438.65,387.14,c)
);
},
{
closed = 1;
nodes = (
(536.84,347.82,o),
(545.57,369.98,o),
(558.43,378.05,cs),
(587.81,396.48,o),
(615.08,418.29,o),
(643.2,438.72,c),
(641.88,440.96,o),
(640.56,443.2,o),
(639.25,445.44,c),
(629.57,441.62,o),
(619.19,438.98,o),
(610.35,433.74,cs),
(588.76,420.98,o),
(567.08,408.12,o),
(547.02,393.16,cs),
(534.84,384.07,o),
(525.61,371.02,o),
(515.05,359.75,c)
);
}
);
width = 725;
}
);
note = A;
unicode = (65,192,193,194,195,196,197);
},
{
glyphname = B;
lastChange = "2024-06-01 14:57:49 +0000";
layers = (
{
layerId = "FB7D8E3D-7C75-4663-899C-C1BEB8CD7630";
shapes = (
{
closed = 1;
nodes = (
(323.23,55.78,o),
(300.26,132.91,o),
(293.38,215.39,c),
(294.88,209.61,o),
(296.15,203.75,o),
(297.9,198.05,cs),
(315.21,141.55,o),
(332.3,84.98,o),
(350.28,28.7,cs),
(352.87,20.61,o),
(359.82,13.93,o),
(364.75,6.59,c),
(364.6,11.59,o),
(362.54,19.88,o),
(364.62,21.1,cs),
(383.71,32.3,o),
(370.68,44.69,o),
(366.37,56.19,cs),
(361.69,68.7,o),
(354.44,80.3,o),
(350.36,92.96,cs),
(338.71,129.11,o),
(328.1,165.59,o),
(318.05,198.76,c),
(337.49,200.12,o),
(351.19,202.85,o),
(364.5,201.56,cs),
(381.25,199.95,o),
(398.73,197.49,o),
(413.99,190.97,cs),
(433.76,182.52,o),
(451.22,168.82,o),
(470.5,159,cs),
(487.29,150.45,o),
(503.99,152.46,o),
(514.52,169.62,cs),
(526.05,188.4,o),
(520.75,208.3,o),
(504.19,218.68,cs),
(504.18,218.67,ls),
(459.74,246.52,o),
(410.67,262.32,o),
(357.56,263.99,cs),
(344.28,264.41,o),
(330.28,264.73,o),
(317.97,269.01,cs),
(285.32,280.37,o),
(251.04,288.77,o),
(221.42,268.92,cs),
(201.14,255.33,o),
(181.09,252.32,o),
(159.1,249.15,cs),
(118.14,243.24,o),
(81.01,230.26,o),
(58.61,191.29,cs),
(48.02,172.88,o),
(51.59,157.74,o),
(66.36,144.22,cs),
(89.05,123.45,o),
(109.63,123.32,o),
(133.06,144.6,cs),
(153.46,163.14,o),
(172.09,183.74,o),
(193.31,201.23,cs),
(208.38,213.65,o),
(232.57,210.07,o),
(235.31,195.76,cs),
(239.46,174.06,o),
(245.17,148.9,o),
(238.13,129.63,cs),
(224.82,93.2,o),
(204.03,59.24,o),
(183.98,25.67,cs),
(176.73,13.53,o),
(162.66,5.48,o),
(146.8,-8.88,c),
(155.39,-8.14,o),
(162.42,-9.66,o),
(166.4,-6.85,cs),
(202.02,18.22,o),
(229.7,49.75,o),
(244.15,91.75,cs),
(250.96,111.55,o),
(258.73,131.03,o),
(267.54,154.62,c),
(275.61,135.58,o),
(281.26,119.89,o),
(288.71,105.11,cs),
(307.48,67.89,o),
(326.5,30.75,o),
(346.96,-5.55,cs),
(349.87,-10.71,o),
(361.38,-11.03,o),
(368.91,-13.59,c)
);
},
{
closed = 1;
nodes = (
(183.11,46.81,o),
(205.11,82.06,o),
(227.1,117.31,c),
(224.65,118.9,o),
(222.19,120.49,o),
(219.74,122.09,c),
(196.8,87.37,o),
(173.88,52.65,o),
(150.95,17.92,c),
(154.34,15.8,o),
(157.72,13.68,o),
(161.12,11.56,c)
);
},
{
closed = 1;
nodes = (
(191.27,296.95,o),
(149.67,311.75,o),
(110.93,304.05,c),
(143.27,292.54,o),
(169.2,283.31,o),
(199.17,272.65,c)
);
},
{
closed = 1;
nodes = (
(385.3,281.39,o),
(407.3,288.59,o),
(429.37,295.53,c),
(428.43,299.26,o),
(427.48,302.99,o),
(426.55,306.72,c),
(405.37,302.55,o),
(384.05,298.93,o),
(363.12,293.72,cs),
(359.15,292.73,o),
(356.74,285.42,o),
(353.61,281.02,c),
(356.79,278.92,o),
(360.66,274.41,o),
(363.05,275.09,cs)
);
},
{
closed = 1;
nodes = (
(204.06,369.37,o),
(230.9,395.02,o),
(257.47,420.41,c),
(286.12,396.28,o),
(304.58,362.86,o),
(344.66,357.8,c),
(326.48,379.87,o),
(308.31,401.95,o),
(287.96,426.67,c),
(315.39,431.88,o),
(337.24,436.02,o),
(359.08,440.17,c),
(358.96,444.43,o),
(358.83,448.69,o),
(358.71,452.95,c),
(332.74,456.24,o),
(306.77,459.52,o),
(280.49,462.85,c),
(293.63,492.76,o),
(306.72,522.55,o),
(319.81,552.34,c),
(317.43,553.56,o),
(315.04,554.78,o),
(312.66,556.01,c),
(278.86,537.4,o),
(270.85,498.32,o),
(247.49,468.55,c),
(222.32,491.2,o),
(197.97,513.11,o),
(173.61,535.02,c),
(170.92,532.34,o),
(168.24,529.66,o),
(165.55,526.97,c),
(184.45,502.88,o),
(203.35,478.79,o),
(225.35,450.75,c),
(122.16,450.75,l),
(154.65,413.65,o),
(193.35,422.31,o),
(229.85,420.99,c),
(212.01,393.49,o),
(182.28,377.87,o),
(172.18,348.09,c),
(173.87,346.63,o),
(175.55,345.18,o),
(177.23,343.73,c)
);
}
);
width = 573;
}
);
note = B;
unicode = 66;
},
{
glyphname = C;
lastChange = "2024-06-01 14:57:49 +0000";
layers = (
{
layerId = "FB7D8E3D-7C75-4663-899C-C1BEB8CD7630";
shapes = (
{
closed = 1;
nodes = (
(342.45,94.09,o),
(345.72,108.08,o),
(350.35,108.55,cs),
(369.18,110.46,o),
(366.08,123.46,o),
(365.85,134.22,cs),
(365.26,161.15,o),
(363.43,188.04,o),
(362.07,215.66,c),
(395.7,204.84,o),
(416.94,170.96,o),
(460.18,174,c),
(450.39,187.24,o),
(443.27,196.87,o),
(436.69,205.76,c),
(447.08,206.73,o),
(458.95,207.84,o),
(474.37,209.29,c),
(453.65,242.74,o),
(415.94,239.86,o),
(391.04,260.04,cs),
(391.06,260.05,ls),
(440.42,288.35,o),
(498.7,292.16,o),
(549.67,327.69,c),
(509.76,343.08,o),
(479.45,326.62,o),
(448.93,318.86,cs),
(417.24,310.8,o),
(386.42,299.31,o),
(355.22,289.32,c),
(381.05,318.51,o),
(409.32,343.47,o),
(435.29,370.63,cs),
(449.51,385.5,o),
(460.9,403.47,o),
(471.19,421.41,cs),
(473.94,426.21,o),
(470.04,438.14,o),
(465.28,442.84,cs),
(461.73,446.35,o),
(448.88,446.33,o),
(445.59,442.81,cs),
(441.2,438.13,o),
(441.42,428.56,o),
(440.98,421.01,cs),
(440.8,417.93,o),
(444.06,414.65,o),
(444.58,413.68,c),
(412.94,388.44,o),
(382.72,364.32,o),
(350.25,338.41,c),
(351.33,387.19,o),
(375.58,429.92,o),
(366.37,475.78,c),
(363.27,476.67,o),
(360.16,477.56,o),
(357.06,478.46,c),
(343.68,441.1,o),
(330.29,403.74,o),
(317.51,368.09,c),
(307.15,403.01,o),
(296.29,439.62,o),
(285.43,476.23,c),
(282.55,475.47,o),
(279.68,474.71,o),
(276.8,473.95,c),
(259.53,431.57,o),
(279.09,389.71,o),
(282.91,339.93,c),
(239.21,369.62,o),
(200.94,395.62,o),
(162.68,421.62,c),
(161.11,419.47,o),
(159.55,417.32,o),
(157.98,415.18,c),
(173.71,362.51,o),
(222.47,341.13,o),
(263.14,309.23,c),
(230.3,306.63,o),
(199.41,304.19,o),
(168.52,301.74,c),
(168.4,297.27,o),
(168.28,292.8,o),
(168.15,288.33,c),
(197.87,282.86,o),
(227.58,277.4,o),
(260.48,271.35,c),
(215.94,248.43,o),
(174.61,227.17,o),
(133.27,205.9,c),
(134.6,203.12,o),
(135.92,200.33,o),
(137.25,197.55,c),
(183.59,194.91,o),
(219.66,227.82,o),
(268.62,239.15,c),
(247.17,221.36,o),
(230.14,207.95,o),
(213.96,193.61,cs),
(198.12,179.56,o),
(183.12,164.55,o),
(167.76,149.96,c),
(170.65,146.29,o),
(173.55,142.61,o),
(176.44,138.94,c),
(217.46,167.13,o),
(258.48,195.32,o),
(300.83,224.44,c),
(300.62,189.12,o),
(282.12,155.73,o),
(296.95,113.97,c),
(305.92,134.22,o),
(312.11,148.18,o),
(318.98,163.7,c),
(324.89,136.78,o),
(312.5,107.08,o),
(337.22,83.64,c)
);
},
{
closed = 1;
nodes = (
(151.01,59.62,o),
(159.59,66.65,o),
(159.07,72.94,cs),
(158.43,80.77,o),
(150.28,87.98,o),
(145.37,95.46,c),
(138.76,89.2,o),
(128.03,83.67,o),
(126.74,76.46,cs),
(125.51,69.58,o),
(134.14,60.95,o),
(142.07,46.42,c)
);
},
{
closed = 1;
nodes = (
(73.62,165.29,o),
(79.03,172.68,o),
(88.77,180.44,c),
(78.87,186.54,o),
(71.91,193.92,o),
(67.98,192.56,cs),
(61.74,190.39,o),
(57.54,182.38,o),
(52.47,176.85,c),
(57.45,172.38,o),
(63.01,163.82,o),
(67.29,164.41,cs)
);
},
{
closed = 1;
nodes = (
(260.68,8.49,o),
(269.76,15.42,o),
(269.71,22.28,cs),
(269.66,29.42,o),
(260.8,36.5,o),
(250.84,50.61,c),
(243.16,35.27,o),
(234.96,26.45,o),
(236.53,20,cs),
(238.29,12.74,o),
(248.87,7.63,o),
(255.61,1.59,c)
);
},
{
closed = 1;
nodes = (
(94,297.81,o),
(100.52,304.97,o),
(110.15,315.55,c),
(101.5,324.21,o),
(95.87,329.85,o),
(90.25,335.48,c),
(83.34,328.45,o),
(71.31,321.69,o),
(70.93,314.33,cs),
(70.54,306.74,o),
(81.5,298.57,o),
(87.49,290.65,c)
);
},
{
closed = 1;
nodes = (
(449.53,8.95,o),
(459.38,16.46,o),
(458.82,23.1,cs),
(458.22,30.37,o),
(448.71,41.15,o),
(441.74,42.31,cs),
(441.75,42.32,ls),
(435.94,43.28,o),
(422.82,32.76,o),
(422.59,26.94,cs),
(422.27,18.89,o),
(431,10.49,o),
(439.72,-4.33,c)
);
},
{
closed = 1;
nodes = (
(146.97,422.99,o),
(153.07,430.21,o),
(153.21,437.55,cs),
(153.22,437.54,ls),
(153.32,442.73,o),
(145.37,448.07,o),
(141.01,453.34,c),
(135.69,447.16,o),
(127.29,441.55,o),
(126.02,434.63,cs),
(125.02,429.18,o),
(132.81,422.12,o),
(140.46,409.64,c)
);
},
{
closed = 1;
nodes = (
(325.1,251.99,o),
(309.81,257.53,o),
(294.51,263.07,c),
(294.21,265.62,o),
(293.91,268.17,o),
(293.6,270.73,c),
(306.14,278.63,o),
(318.52,286.81,o),
(331.51,293.9,cs),
(332.55,294.47,o),
(341.11,286.06,o),
(340.36,284.3,cs),
(336.78,275.91,o),
(331.19,268.38,o),
(326.45,260.75,c),
(330.21,258.94,o),
(336.52,255.91,o),
(342.83,252.87,c),
(342.02,250.73,o),
(341.21,248.59,o),
(340.4,246.44,c)
);
},
{
closed = 1;
nodes = (
(521.32,61.59,o),
(530.18,73.38,o),
(545.14,84.69,c),
(529.25,94.59,o),
(520.21,104.63,o),
(511.91,104.05,cs),
(504.8,103.55,o),
(492.33,89.79,o),
(493.38,83.88,cs),
(494.91,75.3,o),
(505.88,63.39,o),
(513.92,62.45,cs)
);
},
{
closed = 1;
nodes = (
(239.36,448.84,o),
(246.26,457.55,o),
(257.45,465.72,c),
(245.57,473.13,o),
(238.62,480.81,o),
(231.88,480.62,cs),
(226.44,480.47,o),
(221.26,470.84,o),
(215.97,465.42,c),
(222.09,459.89,o),
(227.58,451.38,o),
(234.57,449.87,cs)
);
},
{
closed = 1;
nodes = (
(573.46,211.5,o),
(581.87,218.78,o),
(581.03,224.76,cs),
(580.12,231.29,o),
(570.64,236.62,o),
(564.9,242.47,c),
(559.07,236.55,o),
(549.29,231.08,o),
(548.55,224.58,cs),
(547.87,218.57,o),
(556.86,211.46,o),
(565.56,199.29,c)
);
},
{
closed = 1;
nodes = (
(398.76,455.73,o),
(407.66,464.8,o),
(407.36,469.69,cs),
(407.02,475.16,o),
(398.25,483.78,o),
(392.63,484.21,cs),
(387.15,484.63,o),
(381.01,476.42,o),
(371.13,468.95,c),
(381.26,462.16,o),
(387.69,454.49,o),
(393.18,455.1,cs)
);
}
);
width = 634;
}
);
note = C;
unicode = (67,199);
},
{
glyphname = D;
lastChange = "2024-06-01 14:57:49 +0000";
layers = (
{
layerId = "FB7D8E3D-7C75-4663-899C-C1BEB8CD7630";
shapes = (
{
closed = 1;
nodes = (
(371.43,0.05,o),
(413.26,-27.1,o),
(449.18,16.35,cs),
(449.56,16.81,o),
(450.8,16.48,o),
(451.61,16.67,cs),
(508.86,30.38,o),
(544.85,72.25,o),
(579.17,115.26,cs),
(584.72,122.22,o),
(585.57,142.95,o),
(580.91,146.15,cs),
(566.4,156.13,o),
(570.67,167.07,o),
(573.01,178.97,cs),
(577.04,199.48,o),
(582.7,219.81,o),
(584.78,240.51,cs),
(584.78,240.49,ls),
(585.56,248.21,o),
(580.25,260.43,o),
(574,263.9,cs),
(567.43,267.55,o),
(555.84,264.78,o),
(547.53,261.8,cs),
(541.09,259.49,o),
(536.95,251.44,o),
(530.7,247.82,cs),
(495.33,227.35,o),
(459.48,207.71,o),
(424.21,187.06,cs),
(418.97,183.99,o),
(413.03,177.42,o),
(412.42,171.91,cs),
(407.69,129.15,o),
(404.19,86.25,o),
(399.95,39.36,c),
(353.26,45.62,o),
(307.57,66.12,o),
(259.16,85.66,c),
(259.16,137.88,o),
(261.16,189.52,o),
(257.97,240.84,cs),
(256.98,256.76,o),
(263.63,259.92,o),
(272.89,263.65,cs),
(289.43,270.32,o),
(306.64,275.33,o),
(326.06,281.87,c),
(345.63,265.02,o),
(371.64,254.57,o),
(398.25,272.63,cs),
(409.42,280.21,o),
(415.59,297.27,o),
(420.24,311.27,cs),
(421.94,316.41,o),
(412.7,325.19,o),
(405.17,337.8,c),
(396.24,297.99,o),
(374.71,287.61,o),
(352.98,304.96,cs),
(349.09,308.06,o),
(346.04,312.2,o),
(342.52,315.78,cs),
(329.36,329.16,o),
(320.35,329.64,o),
(310.53,310.51,cs),
(304.76,299.27,o),
(291.27,292,o),
(281.26,282.95,c),
(278.96,284.79,o),
(276.67,286.62,o),
(274.36,288.46,c),
(276.39,297,o),
(279.69,305.5,o),
(279.97,314.09,cs),
(280.13,319.04,o),
(276.64,325.91,o),
(272.58,328.82,cs),
(262.78,335.85,o),
(251.68,341.07,o),
(236.13,349.81,c),
(233.97,346.06,o),
(225.19,337.82,o),
(226.18,331,cs),
(227.78,320,o),
(235.82,309.94,o),
(240.97,299.8,c),
(200.79,287.69,o),
(181.7,265.19,o),
(180.55,219.4,cs),
(179.77,187.96,o),
(183.49,156.42,o),
(185.27,123.64,c),
(152.14,141.54,o),
(118.28,161.06,o),
(83.12,177.9,cs),
(75.22,181.68,o),
(62.84,176.09,o),
(52.51,174.81,c),
(55.37,165.3,o),
(57.41,155.43,o),
(61.45,146.46,cs),
(63.26,142.45,o),
(68.88,139.89,o),
(73.15,137.29,cs),
(156.15,86.68,o),
(239.28,35.51,o),
(334.05,10.08,cs)
);
}
);
width = 637;
}
);
note = D;
unicode = 68;
},
{
glyphname = E;
lastChange = "2024-06-01 14:57:49 +0000";
layers = (
{
layerId = "FB7D8E3D-7C75-4663-899C-C1BEB8CD7630";
shapes = (
{
closed = 1;
nodes = (
(324.25,7.46,o),
(348.51,25.41,o),
(372.03,39,cs),
(376.84,41.78,o),
(375.62,55.02,o),
(377.18,63.43,c),
(369.56,64.73,o),
(361.87,67.31,o),
(354.33,66.93,cs),
(347.96,66.61,o),
(341.72,60.81,o),
(335.5,60.94,cs),
(335.49,60.93,ls),
(263.52,62.5,o),
(191.55,64.55,o),
(119.61,67.14,cs),
(114.01,67.34,o),
(106.13,71.11,o),
(103.52,75.65,cs),
(94.63,91.11,o),
(101.8,128.87,o),
(114.83,143.45,cs),
(127.4,157.51,o),
(123.68,168.54,o),
(104.71,173.41,cs),
(99.45,174.76,o),
(94.21,176.14,o),
(83.83,178.84,c),
(101.71,212.11,o),
(118.31,242.4,o),
(134.14,273.07,cs),
(136.62,277.87,o),
(138.01,288.16,o),
(135.81,289.58,cs),
(126.37,295.67,o),
(115.51,299.73,o),
(104.76,303.24,cs),
(104.07,303.47,o),
(97.03,292.58,o),
(97.74,287.53,cs),
(103.14,248.69,o),
(83.22,215.71,o),
(65.29,186.88,cs),
(49.73,161.86,o),
(50.88,151.58,o),
(73.95,139.24,c),
(70.89,119.54,o),
(74.52,94.27,o),
(63.71,83.54,cs),
(42.44,62.42,o),
(55.49,49.99,o),
(69.77,42.36,cs),
(98.87,26.82,o),
(129.58,9.42,o),
(161.34,4.88,cs),
(206.35,-1.54,o),
(253.42,-1.07,o),
(298.65,4.38,cs)
);
},
{
closed = 1;
nodes = (
(215.52,94.96,o),
(248.82,103.8,o),
(282.23,111.52,cs),
(288.53,112.98,o),
(294.27,116.9,o),
(300.27,119.68,c),
(299.38,121.37,o),
(298.5,123.07,o),
(297.62,124.77,c),
(241.08,124.77,o),
(184.54,125.06,o),
(128.01,124.26,cs),
(128,124.25,ls),
(123.16,124.18,o),
(113.8,115.45,o),
(114.5,113.18,cs),
(116.64,106.16,o),
(121.74,95.98,o),
(127.32,94.81,cs),
(145.08,91.11,o),
(164.04,87.59,o),
(181.67,90.11,cs)
);
},
{
closed = 1;
nodes = (
(300.61,193.6,o),
(307.49,197.36,o),
(314.21,199.14,c),
(314.11,202.38,o),
(314,205.63,o),
(313.9,208.87,c),
(297.2,211.2,o),
(280.49,213.49,o),
(263.79,215.87,cs),
(221.79,221.84,o),
(179.87,228.51,o),
(137.73,233.17,cs),
(131.11,233.9,o),
(123.49,225.61,o),
(116.33,221.49,c),
(122.48,216.84,o),
(128.27,208.75,o),
(134.84,208.06,cs),
(134.84,208.08,ls),
(187.82,202.53,o),
(240.93,198.13,o),
(294.06,194.1,cs)
);
},
{
closed = 1;
nodes = (
(187.95,240.46,o),
(199.23,247.81,o),
(204.96,256.36,cs),
(210.39,264.46,o),
(209.37,276.88,o),
(211.18,287.4,c),
(208.54,288.05,o),
(205.91,288.71,o),
(203.28,289.37,c),
(198.06,283.45,o),
(192.84,277.53,o),
(191.02,275.47,c),
(179.44,277.81,o),
(165.96,282.97,o),
(164.28,280.4,cs),
(164.27,280.39,ls),
(159.45,273.05,o),
(156.14,261.59,o),
(158.52,253.63,cs),
(160.56,246.8,o),
(172.39,237.19,o),
(177.89,238.34,cs)
);
},
{
closed = 1;
nodes = (
(351.47,139.41,o),
(355.88,138.95,o),
(357.91,141.04,cs),
(365.12,148.46,o),
(371.64,156.57,o),
(378.41,164.42,c),
(370.92,170.39,o),
(363.42,176.35,o),
(355.92,182.32,c),
(354.91,180.91,o),
(353.89,179.51,o),
(352.87,178.1,c),
(347.89,178.1,o),
(342.66,179.06,o),
(337.95,177.92,cs),
(337.97,177.92,ls),
(324,174.52,o),
(311.26,167.38,o),
(315.85,150.89,cs),
(320.27,135,o),
(332.02,128.13,o),
(348.68,137.79,cs)
);
},
{
closed = 1;
nodes = (
(169.5,293.37,o),
(231.08,310.5,o),
(242.14,322.73,c),
(226.38,337.32,o),
(163.44,338.13,o),
(151.73,322.3,cs),
(148.78,318.32,o),
(152.13,304.03,o),
(156.72,301.21,cs)
);
},
{
closed = 1;
nodes = (
(210.19,375.45,o),
(214.19,380.03,o),
(219.83,383.5,c),
(216.12,388.49,o),
(214.73,392.09,o),
(213.2,392.15,cs),
(201.98,392.61,o),
(190.65,392.99,o),
(179.54,391.79,cs),
(177.42,391.56,o),
(176.06,384.21,o),
(174.35,380.14,c),
(185.03,378.5,o),
(195.67,376.09,o),
(206.4,375.62,cs)
);
},
{
closed = 1;
nodes = (
(325.26,262.19,o),
(336.47,269.28,o),
(348.05,275.24,c),
(347.3,283.27,l),
(342.38,285.9,o),
(335.95,291.93,o),
(332.81,290.54,cs),
(320.97,285.3,o),
(310.19,277.65,o),
(299.01,270.9,c),
(303.78,266.39,o),
(310.08,257.22,o),
(313.05,258.19,cs)
);
},
{
closed = 1;
nodes = (
(180.37,422.61,o),
(186.03,431.4,o),
(184.99,439.31,cs),
(180.82,470.97,o),
(183.74,500.99,o),
(199.79,528.94,cs),
(213.54,552.89,o),
(220.92,554.33,o),
(242.64,538.18,cs),
(250.24,532.53,o),
(257.52,526.44,o),
(264.95,520.55,c),
(266.8,523.04,o),
(268.66,525.53,o),
(270.51,528.03,c),
(253.87,539.69,o),
(238.03,558.68,o),
(220.32,560.64,cs),
(206.6,562.16,o),
(187.22,545.08,o),
(176.17,531.52,cs),
(153.6,503.84,o),
(153.44,469.35,o),
(159.23,435.82,cs),
(160.61,427.8,o),
(171.35,421.4,o),
(177.79,414.25,cs),
(177.78,414.23,ls)
);
}
);
width = 431;
}
);
note = E;
unicode = (69,200,201,202,203);
},
{
glyphname = F;
lastChange = "2024-06-01 14:57:49 +0000";
layers = (
{
layerId = "FB7D8E3D-7C75-4663-899C-C1BEB8CD7630";
shapes = (
{
closed = 1;
nodes = (
(290.15,70.3,o),
(384.04,66.64,o),
(477.24,93.3,cs),
(540.02,111.26,o),
(588.71,149.71,o),
(627.27,201.32,cs),
(632.13,207.83,o),
(631.07,218.77,o),
(632.76,227.65,c),
(623.62,225.94,o),
(613.07,226.52,o),
(605.69,221.97,cs),
(594.46,215.05,o),
(585.01,204.99,o),
(575.56,195.51,cs),
(544.21,164.07,o),
(507.47,141.62,o),
(465.18,128.35,cs),
(362.79,96.24,o),
(259.78,105.57,o),
(157.07,125.68,cs),
(123.07,132.34,o),
(89.97,143.63,o),
(56.46,152.8,c),
(52.5,147.22,l),
(65.06,137.99,o),
(76.35,125.13,o),
(90.42,120.26,cs),
(125.09,108.25,o),
(160.66,98.17,o),
(196.54,90.45,cs)
);
},
{
closed = 1;
nodes = (
(394.86,119.24,o),
(467.52,142.29,o),
(506.82,205.57,cs),
(512.53,214.77,o),
(513.96,226.63,o),
(517.37,237.26,c),
(513.44,239.77,o),
(509.51,242.28,o),
(505.59,244.78,c),
(502.63,238.88,o),
(500.3,232.57,o),
(496.62,227.16,cs),
(448.26,156.03,o),
(359.59,165.24,o),
(305.68,194.96,cs),
(295.11,200.79,o),
(288.48,213.93,o),
(280.34,223.95,cs),
(274.69,230.91,o),
(269.55,238.29,o),
(264.19,245.48,c),
(257.92,236.82,o),
(246.5,228.16,o),
(246.49,219.49,cs),
(246.46,202.97,o),
(237.9,197.9,o),
(225.72,192.77,cs),
(178.39,172.84,o),
(133.86,190.78,o),
(112.39,237.93,cs),
(108.89,245.61,o),
(101.68,251.58,o),
(96.18,258.35,c),
(82.73,225.51,o),
(91.56,200.87,o),
(113.38,181.12,cs),
(113.37,181.14,ls),
(161.26,137.81,o),
(209.54,150.94,o),
(251.3,180.41,c),
(276.09,167.49,o),
(295.69,154.2,o),
(317.3,146.58,cs)
);
},
{
closed = 1;
nodes = (
(167.2,338.29,o),
(153.66,351.3,o),
(138.88,362.73,cs),
(136.81,364.33,o),
(124.41,358.52,o),
(124.14,355.5,cs),
(122.63,338.18,o),
(162.36,315.37,o),
(182.13,324.9,c)
);
},
{
closed = 1;
nodes = (
(269.52,281.97,o),
(286.29,288.92,o),
(303.27,295.35,cs),
(321.08,302.1,o),
(340.33,306.14,o),
(356.66,315.4,cs),
(374.36,325.43,o),
(390.11,339.37,o),
(405.12,353.31,cs),
(408.5,356.45,o),
(405.3,366.69,o),
(405.14,373.66,c),
(399.12,371.27,o),
(392.07,370.13,o),
(387.29,366.22,cs),
(379.04,359.48,o),
(373.51,346.94,o),
(364.52,344.01,cs),
(332.98,333.75,o),
(300.67,325.47,o),
(268.17,318.86,cs),
(258.28,316.85,o),
(240.09,319.71,o),
(237.51,325.55,cs),
(232.83,336.15,o),
(234.43,351.49,o),
(238.19,363.32,cs),
(242.02,375.34,o),
(251.64,385.51,o),
(260.97,399.98,c),
(228.25,396.53,o),
(209.38,378.69,o),
(202.36,348.38,cs),
(192.38,305.27,o),
(219.63,287.02,o),
(250.81,274.5,c)
);
},
{
closed = 1;
nodes = (
(540.54,196.76,o),
(551.49,210.12,o),
(564.25,224.4,c),
(553.08,243.26,o),
(546.94,258.15,o),
(536.87,269.58,cs),
(521.44,287.1,o),
(503.46,302.42,o),
(486.27,318.35,cs),
(467.37,335.86,o),
(459.65,355.84,o),
(467.98,381.62,cs),
(470.06,388.04,o),
(466.13,396.41,o),
(464.96,403.88,c),
(457.28,400.42,o),
(447.35,398.93,o),
(442.32,393.16,cs),
(421.62,369.45,o),
(425.88,327.45,o),
(452,302.2,cs),
(471.82,283.04,o),
(494.03,266.36,o),
(514.46,247.79,cs),
(514.44,247.8,ls),
(529.87,233.78,o),
(537.57,218.6,o),
(516.64,201.81,cs),
(513.32,199.15,o),
(513.52,192.12,o),
(512.09,187.11,c),
(517.58,186.23,o),
(525.68,182.61,o),
(528.12,184.93,cs)
);
}
);
width = 685;
}
);
note = F;
unicode = 70;
},
{
glyphname = G;
lastChange = "2024-06-01 14:57:49 +0000";
layers = (
{
layerId = "FB7D8E3D-7C75-4663-899C-C1BEB8CD7630";
shapes = (
{
closed = 1;
nodes = (
(272.7,128.87,l),
(280.57,122.74,o),
(287,117.73,o),
(293.43,112.72,c),
(296.22,120.71,o),
(302.39,129.21,o),
(301.25,136.58,cs),
(293.34,187.65,o),
(322.64,242.28,o),
(286.39,290.74,cs),
(281.41,297.4,o),
(282.27,310.98,o),
(276.62,313.85,cs),
(271.04,316.68,o),
(260.63,309.98,o),
(251.74,307.28,c),
(251.26,315.26,o),
(250.73,324.28,o),
(250.17,333.59,c),
(313.09,319.6,o),
(333.02,323.86,o),
(345.42,358.36,c),
(332.29,356.61,o),
(322.65,355.26,o),
(312.99,354.04,cs),
(287.04,350.74,o),
(264.03,356.13,o),
(249.62,379.79,cs),
(239.07,397.1,o),
(221.29,406.56,o),
(206.1,399.36,cs),
(187.99,390.78,o),
(192.31,369.26,o),
(198.13,351.89,cs),
(199.96,346.42,o),
(202.08,339.42,o),
(206.35,336.67,cs),
(206.35,336.69,ls),
(229.43,321.85,o),
(227.34,298.34,o),
(227.85,276.21,cs),
(228.34,254.47,o),
(228.15,232.51,o),
(225.66,210.95,cs),
(220.47,165.95,o),
(239.98,129.38,o),
(262.82,93.64,cs),
(263.78,92.14,o),
(267.21,92.22,o),
(272.7,90.62,c)
);
},
{
closed = 1;
nodes = (
(179.56,80.19,o),
(182.87,83.62,o),
(182.84,87.02,cs),
(182.28,145.36,o),
(164.37,198.52,o),
(132.57,246.92,cs),
(128.92,252.46,o),
(118.14,256.82,o),
(111.24,256.12,cs),
(77.5,252.69,o),
(50.2,218.39,o),
(52.67,184.79,cs),
(54.77,156.13,o),
(82.06,141.47,o),
(107.18,155.24,cs),
(117.8,161.06,o),
(128.85,166.08,o),
(142.3,172.75,c),
(152.65,139.43,o),
(162.36,108.17,o),
(174.25,69.85,c)
);
},
{
closed = 1;
nodes = (
(258.45,-2.36,o),
(211.89,6.79,o),
(172.67,40.28,cs),
(166.78,45.31,o),
(153.66,41.88,o),
(143.88,42.36,c),
(146.4,32.96,o),
(148.36,23.35,o),
(151.72,14.27,cs),
(153.02,10.76,o),
(157.49,8.4,o),
(160.55,5.55,cs),
(226.2,-55.86,o),
(354.93,-46.77,o),
(428.38,18.04,cs),
(433.72,22.75,o),
(435.68,31.29,o),
(439.21,38.05,c),
(437.18,39.94,o),
(435.15,41.82,o),
(433.13,43.7,c),
(425.12,39.82,o),
(417.46,34.8,o),
(409.06,32.24,cs),
(375.06,21.9,o),
(341.38,7.81,o),
(306.55,3.54,cs)
);
},
{
closed = 1;
nodes = (
(289.95,405.66,ls),
(296.52,405.27,o),
(303.64,414.33,o),
(310.51,419.16,c),
(310.14,421.38,o),
(309.77,423.61,o),
(309.4,425.83,c),
(278.38,419.66,o),
(274.11,438.12,o),
(273.27,460.05,cs),
(272.39,483.03,o),
(271.19,506,o),
(270.13,528.97,c),
(267.15,529.59,o),
(264.16,530.21,o),
(261.18,530.83,c),
(257.08,507.41,o),
(250.89,484.1,o),
(249.68,460.53,cs),
(248.95,446.39,o),
(253.22,430.14,o),
(260.6,418.12,cs),
(265.27,410.51,o),
(279.64,406.25,o),
(289.96,405.65,cs)
);
}
);
width = 492;
}
);
note = G;
unicode = 71;
},
{
glyphname = H;
lastChange = "2024-06-01 14:57:49 +0000";
layers = (
{
layerId = "FB7D8E3D-7C75-4663-899C-C1BEB8CD7630";
shapes = (
{
closed = 1;
nodes = (
(453,17,o),
(476,33,o),
(499,50,cs),
(507,56,o),
(515,64,o),
(518,73,cs),
(522,85,o),
(520,98,o),
(521,117,c),
(496,95,o),
(479,80,o),
(461,64,c),
(443,82,o),
(430,96,o),
(416,110,cs),
(403,125,o),
(389,140,o),
(375,154,c),
(412,251,o),
(410,313,o),
(366,334,c),
(380,284,o),
(375,238,o),
(348,195,cs),
(316,144,o),
(245,134,o),
(201,176,cs),
(161,213,o),
(153,261,o),
(176,313,cs),
(177,315,o),
(177,318,o),
(177,321,cs),
(171,349,o),
(165,377,o),
(158,404,cs),
(155,414,o),
(146,422,o),
(141,431,c),
(138,430,o),
(136,429,o),
(134,428,c),
(135,409,o),
(136,389,o),
(138,361,c),
(121,371,o),
(108,377,o),
(97,386,cs),
(85,397,o),
(77,412,o),
(64,423,cs),
(56,430,o),
(43,432,o),
(32,436,c),
(27,424,o),
(18,411,o),
(19,399,cs),
(21,367,o),
(55,338,o),
(91,334,cs),
(106,332,o),
(121,330,o),
(132,329,c),
(127,298,o),
(117,271,o),
(119,244,cs),
(126,156,o),
(193,99,o),
(282,106,cs),
(310,108,o),
(316,96,o),
(324,75,cs),
(333,49,o),
(342,22,o),
(356,0,cs),
(376,-30,o),
(413,-33,o),
(434,-7,cs)
);
},
{
closed = 1;
nodes = (
(381,42,o),
(369,67,o),
(358,92,cs),
(354,103,o),
(351,115,o),
(348,126,c),
(360,120,o),
(374,116,o),
(383,108,cs),
(397,96,o),
(408,81,o),
(420,68,c),
(414,50,o),
(409,34,o),
(404,18,c),
(401,17,o),
(397,17,o),
(393,17,c)
);
}
);
width = 561;
}
);
note = H;
unicode = 72;
},
{
glyphname = I;
lastChange = "2024-06-01 14:57:49 +0000";
layers = (
{
layerId = "FB7D8E3D-7C75-4663-899C-C1BEB8CD7630";
shapes = (
{
closed = 1;
nodes = (
(303.04,3.17,o),
(315.26,4.36,o),
(316.42,23.61,cs),
(317.58,42.95,o),
(321.05,62.15,o),
(323.51,81.41,c),
(402.39,19.63,o),
(496,0.33,o),
(534.11,43.27,c),
(506.98,53.1,o),
(481.93,62.82,o),
(456.44,71.19,cs),
(437.76,77.32,o),
(415.64,77.34,o),
(400.05,87.64,cs),
(400.02,87.65,ls),
(357.59,115.68,o),
(313.67,144.93,o),
(316.46,205.64,cs),
(316.72,211.44,o),
(318.83,219.88,o),
(322.84,222.08,cs),
(327.52,224.66,o),
(336.76,223.8,o),
(341.14,220.55,cs),
(344.74,217.88,o),
(345.94,209.18,o),
(344.9,203.79,cs),
(343.72,197.69,o),
(338.87,192.29,o),
(335.44,186.29,c),
(367.12,151.91,o),
(402.14,124.21,o),
(447.49,111.84,cs),
(470.96,105.44,o),
(492.81,106.59,o),
(517.91,128.28,c),
(486.3,149.99,o),
(457.04,170.09,o),
(427.78,190.18,c),
(461.7,196.17,o),
(497.08,177.23,o),
(535.97,206.63,c),
(477.2,218.78,o),
(436.36,249.33,o),
(397.96,290.43,c),
(432.71,281.84,o),
(462.15,264.32,o),
(496.86,275.42,c),
(462.54,307.27,o),
(424.62,333.11,o),
(391.3,363.92,cs),
(364.09,389.08,o),
(342.02,419.9,o),
(318.69,449.02,cs),
(316.09,452.26,o),
(320.03,460.74,o),
(321,466.84,c),
(321.84,465.51,o),
(322.66,464.18,o),
(323.48,462.85,c),
(323.99,463.46,o),
(324.92,464.07,o),
(324.95,464.7,cs),
(325.52,483.44,o),
(327.96,502.4,o),
(325.94,520.87,cs),
(324.03,538.36,o),
(307.97,546.24,o),
(294.23,539.55,cs),
(278.24,531.77,o),
(261.87,519,o),
(252.97,504.04,cs),
(243.29,487.8,o),
(250.55,470.23,o),
(273.8,463.23,c),
(269.07,447.28,o),
(268.91,429.64,o),
(260.02,420.61,cs),
(244.74,405.09,o),
(240.83,386.97,o),
(251.77,373.61,cs),
(268.43,353.28,o),
(258.43,336.07,o),
(252.22,318.8,cs),
(249.81,312.09,o),
(236.68,309.22,o),
(228.43,304.6,c),
(226.43,314.15,o),
(222.53,323.82,o),
(223.12,333.21,cs),
(223.48,338.96,o),
(230.71,344.29,o),
(235.81,351.08,c),
(212.55,353.02,o),
(197.21,340.77,o),
(195.81,316,cs),
(194.81,298.41,o),
(186.49,292.75,o),
(172.16,289.82,cs),
(154.99,286.3,o),
(137.78,283,o),
(120.72,279,cs),
(113.39,277.28,o),
(106.42,274.06,o),
(93.26,269.38,c),
(126.14,248.69,o),
(153.44,258.28,o),
(180.13,264.07,cs),
(207.54,270.02,o),
(234.64,277.4,o),
(265.74,285.11,c),
(262.77,273.61,o),
(263.28,259.94,o),
(256.71,252.83,cs),
(227.9,221.66,o),
(194.24,197.11,o),
(151.17,188.75,cs),
(135.58,185.73,o),
(119.94,182.89,o),
(104.55,179.08,cs),
(100.63,178.11,o),
(97.54,173.75,o),
(94.07,170.94,c),
(98.16,167.82,o),
(102.16,162.11,o),
(106.34,161.97,cs),
(151.07,160.51,o),
(195.05,163.28,o),
(234.63,190.91,c),
(233.31,195.08,o),
(230.33,199.36,o),
(231.26,202.49,cs),
(233.86,211.25,o),
(238.06,219.53,o),
(241.63,228,c),
(248.84,223.78,o),
(257.8,221.05,o),
(262.91,215.05,cs),
(275.39,200.37,o),
(271.52,157.94,o),
(255.15,147.82,cs),
(199.33,113.3,o),
(149.31,67.49,o),
(81.09,56.28,cs),
(71.9,54.77,o),
(63.26,49.88,o),
(52.52,45.87,c),
(89.46,15.66,o),
(144.41,35.21,o),
(270.92,119.12,c),
(270.92,89.45,o),
(271.21,58.08,o),
(270.78,26.71,cs),
(270.6,13.65,o),
(271.73,2.95,o),
(288.63,3.07,cs)
);
},
{
closed = 1;
nodes = (
(117.48,443.77,o),
(120.1,468.75,o),
(122.98,496.12,c),
(101.93,486.17,o),
(92.36,462.06,o),
(98.88,434.16,cs),
(100.62,426.7,o),
(108.03,420.56,o),
(114.14,411.99,c)
);
},
{
closed = 1;
nodes = (
(172.8,429.59,o),
(177.86,435.21,o),
(178.26,438.43,cs),
(180.9,459.69,o),
(183.05,481.04,o),
(184.48,502.41,cs),
(184.75,506.51,o),
(181.46,514.15,o),
(179.15,514.42,cs),
(174.35,514.98,o),
(166.02,513.02,o),
(164.6,509.73,cs),
(158.83,496.37,o),
(155.11,482.11,o),
(151.63,471.27,c),
(153.86,457.43,o),
(154.26,447.22,o),
(157.56,438.06,cs),
(158.99,434.1,o),
(166.16,431.4,o),
(171.24,430.02,cs)
);
},
{
closed = 1;
nodes = (
(323.73,337.1,o),
(317.24,344.66,o),
(310.06,350.56,cs),
(310.05,350.57,ls),
(315.66,355.53,o),
(321.93,365.08,o),
(326.75,364.39,cs),
(334.51,363.29,o),
(341.31,355.45,o),
(353.21,347.19,c),
(342.35,340,o),
(335.26,332.3,o),
(331.94,333.68,cs)
);
},
{
closed = 1;
nodes = (
(230.5,476.58,o),
(236.94,504.46,o),
(244.15,535.62,c),
(219.56,524.14,o),
(204.02,486.26,o),
(210.79,459.39,cs),
(212.31,453.35,o),
(219.05,448.62,o),
(222.94,443.85,cs),
(222.93,443.84,ls)
);
},
{
closed = 1;
nodes = (
(312.66,473.92,o),
(304.39,480.81,o),
(293.44,489.94,c),
(294.38,499.33,o),
(295.77,513.13,o),
(297.51,530.36,cs),
(297.5,530.35,ls),
(329.54,515.43,o),
(316.06,487.85,o),
(320.92,467.05,c)
);
},
{
closed = 1;
nodes = (
(383.79,476.25,o),
(389.48,521.71,o),
(376.59,535.82,cs),
(374.21,538.42,o),
(368.64,541.15,o),
(366.28,540.06,cs),
(362.6,538.37,o),
(357.68,533.17,o),
(358.01,529.95,cs),
(360.27,507.98,o),
(363.76,486.14,o),
(366.94,463.63,c)
);
},
{
closed = 1;
nodes = (
(426.67,460.36,o),
(425.92,520.88,o),
(407.29,530.61,cs),
(403.64,532.51,o),
(390.95,526.13,o),
(391.13,525,cs),
(395.46,498.64,o),
(401,472.47,o),
(406.57,445,c)
);
},
{
closed = 1;
nodes = (
(469.68,489.08,o),
(477.49,524.24,o),
(454.82,543.77,c),
(447.72,516.91,o),
(441.45,493.2,o),
(435.17,469.48,c),
(444.46,467.16,l)
);
}
);
width = 588;
}
);
note = I;
unicode = (73,204,205,206,207);
},
{
glyphname = J;
lastChange = "2024-06-01 14:57:49 +0000";
layers = (
{
layerId = "FB7D8E3D-7C75-4663-899C-C1BEB8CD7630";
shapes = (
{
closed = 1;
nodes = (
(67.42,199.04,o),
(77.56,202.21,o),
(80.29,208.57,cs),
(100.63,255.89,o),
(137.38,275.54,o),
(187.03,281.44,cs),
(237.05,287.38,o),
(284.34,308.09,o),
(302.79,357.54,cs),
(324.83,416.62,o),
(318.44,482.5,o),
(242.4,516.58,cs),
(199.6,535.76,o),
(144.68,523.94,o),
(116.23,486.27,cs),
(72.82,428.8,o),
(77.16,358.74,o),
(129.49,297.02,c),
(93.93,279.75,o),
(66.85,255.41,o),
(52.99,219.45,cs),
(50.52,213.05,o),
(57.89,202.85,o),
(60.71,194.4,c)
);
},
{
closed = 1;
nodes = (
(140.53,8.23,o),
(157.99,18.37,o),
(166.97,29.82,cs),
(181.52,48.39,o),
(183.03,71.96,o),
(169.18,93.3,cs),
(154.48,115.94,o),
(132.5,115.7,o),
(101.6,105.96,c),
(118.29,139.53,o),
(131.7,166.53,o),
(145.33,193.95,c),
(109.28,161.11,o),
(84.13,87.98,o),
(93.45,42.84,cs),
(97.28,24.29,o),
(106.87,6.43,o),
(126.34,7.47,cs)
);
},
{
closed = 1;
nodes = (
(103.1,28.81,o),
(101.57,48.32,o),
(101.82,73.24,c),
(118.03,60.98,o),
(149.49,87.56,o),
(146.16,49.15,cs),
(145.37,39.98,o),
(130.98,23.66,o),
(125.43,24.68,cs)
);
},
{
closed = 1;
nodes = (
(267.45,20.3,o),
(274.98,29,o),
(285.16,35.95,c),
(275.57,43.65,o),
(269.75,51.98,o),
(264.03,51.91,cs),
(258.13,51.84,o),
(252.33,43.6,o),
(246.49,38.93,c),
(251.89,32.83,o),
(256.38,23.74,o),
(263.04,21.67,cs)
);
},
{
closed = 1;
nodes = (
(213.51,178,o),
(220.42,185.6,o),
(231.53,192.88,c),
(218.58,200.91,o),
(211.37,207.55,o),
(203.08,209.42,cs),
(199.81,210.16,o),
(194.15,200.26,o),
(189.57,195.2,c),
(196.24,189.63,o),
(202.2,182.15,o),
(209.88,179.33,cs)
);
},
{
closed = 1;
nodes = (
(327.24,3.8,o),
(329.7,4.78,o),
(332.15,5.76,c),
(329.13,17.3,o),
(326.65,29.02,o),
(322.97,40.35,cs),
(315.76,62.55,o),
(306.92,84.28,o),
(300.82,106.76,cs),
(298.91,113.81,o),
(300.92,125.24,o),
(305.73,130.23,cs),
(327.17,152.49,o),
(350.85,172.58,o),
(372.39,194.75,cs),
(378.28,200.81,o),
(379.52,211.38,o),
(382.9,219.89,c),
(373.55,217.55,o),
(361.81,217.97,o),
(355.26,212.36,cs),
(331.91,192.32,o),
(310.31,170.22,o),
(286.61,147.51,cs),
(286.62,147.5,ls),
(277.71,172.17,o),
(270.08,196.98,o),
(259.4,220.42,cs),
(256.51,226.76,o),
(244.4,228.89,o),
(236.52,232.95,c),
(235.49,224.91,o),
(231.41,215.69,o),
(233.99,209.06,cs),
(242.43,187.32,o),
(252.38,166.03,o),
(263.51,145.53,cs),
(271.77,130.31,o),
(268.14,120.11,o),
(256.95,108.3,cs),
(236.85,87.09,o),
(218.37,64.34,o),
(199.22,42.23,c),
(205.55,36.12,l),
(229.79,58,o),
(254.03,79.88,o),
(279.91,103.23,c),
(287.47,84.62,o),
(293.9,67.49,o),
(301.35,50.83,cs),
(308.62,34.58,o),
(316.93,18.81,o),
(324.78,2.82,c)
);
},
{
closed = 1;
nodes = (
(319.55,200.04,o),
(326.21,208.06,o),
(338.1,216.95,c),
(326.17,224.5,o),
(317.64,233.24,o),
(313.96,231.54,cs),
(306.25,227.98,o),
(301.1,218.89,o),
(294.9,212.08,c),
(300.52,207.13,o),
(307.18,197.37,o),
(311.53,198.31,cs)
);
},
{
closed = 1;
nodes = (
(145.8,305.77,o),
(111.38,348.14,o),
(111.58,398.45,cs),
(111.83,460.21,o),
(151.78,513.17,o),
(198.15,513.18,cs),
(247.96,513.19,o),
(293.37,464.1,o),
(293.23,410.38,cs),
(293.08,353.92,o),
(243.3,304.49,o),
(187.31,305.22,cs)
);
},
{
closed = 1;
nodes = (
(191.97,361.56,o),
(209.76,365.54,o),
(219.88,373.12,cs),
(237.21,386.09,o),
(245.02,406.12,o),
(237.06,428.8,cs),
(234.44,436.27,o),
(232.27,444.46,o),
(227.56,450.51,cs),
(222.08,457.58,o),
(214.15,467.64,o),
(207.1,467.78,cs),
(176.96,468.39,o),
(153.36,443.05,o),
(152.03,403.84,cs),
(151.88,390.85,o),
(157.7,370.44,o),
(179.89,364.69,cs)
);
},
{
closed = 1;
nodes = (
(191.71,397.12,o),
(179.74,406.28,o),
(181.14,412.4,cs),
(183.61,423.22,o),
(194.21,432.18,o),
(201.41,441.92,c),
(208.79,435.61,o),
(216.16,429.31,o),
(228.3,418.94,c),
(215.31,406.38,o),
(206.48,397.85,o),
(197.65,389.32,c)
);
},
{
closed = 1;
nodes = (
(574.49,6.23,o),
(608.21,55.27,o),
(604.44,116.43,cs),
(600.08,186.94,o),
(517.77,283.83,o),
(448.23,299.37,cs),
(438.83,301.47,o),
(428.55,299.66,o),
(416.02,299.66,c),
(419.94,295.54,o),
(420.79,293.91,o),
(422.08,293.41,cs),
(429.88,290.42,o),
(438.06,288.28,o),
(445.61,284.79,cs),
(519.55,250.67,o),
(567.98,195.56,o),
(581.37,113.91,cs),
(587.69,75.38,o),
(564.57,38.97,o),
(530.93,27.88,cs),
(499.84,17.63,o),
(465.22,29.14,o),
(448.89,55.17,cs),
(431.32,83.17,o),
(439.21,127.07,o),
(467.07,153.51,cs),
(482.03,167.71,o),
(501.08,182.93,o),
(520.12,172.37,cs),
(533.36,165.03,o),
(541.94,144.62,o),
(547.06,128.3,cs),
(556.94,96.84,o),
(549.87,89.04,o),
(520.59,88.93,c),
(515.66,101.31,o),
(512.79,111.24,o),
(507.55,119.72,cs),
(506.25,121.83,o),
(493.29,120.64,o),
(492.53,118.52,cs),
(488.56,107.42,o),
(484,95.31,o),
(484.9,83.97,cs),
(486.17,67.98,o),
(497.23,59,o),
(514.47,60,cs),
(537.16,61.32,o),
(567.14,81.09,o),
(567.77,98.89,cs),
(568.86,129.85,o),
(561.34,160.35,o),
(536.27,180.11,cs),
(513.11,198.36,o),
(486.61,189.64,o),
(463.11,176.62,cs),
(420.23,152.86,o),
(399.71,101.47,o),
(414.92,58.59,cs),
(431.05,13.1,o),
(472.66,-10.3,o),
(522.92,-2.14,cs)
);
},
{
closed = 1;
nodes = (
(378.81,327.14,o),
(384.98,329.41,o),
(387.88,333.83,cs),
(414.4,374.21,o),
(442.55,413.77,o),
(465.62,456.09,cs),
(478.61,479.92,o),
(477.85,509.07,o),
(463.16,533.55,cs),
(463.17,533.53,ls),
(457.12,543.61,o),
(443.87,555.59,o),
(433.64,555.83,cs),
(398.92,556.63,o),
(367.96,543.68,o),
(345.95,515.32,cs),
(328.57,492.92,o),
(334.71,441.48,o),
(356.6,422.7,cs),
(361.22,418.74,o),
(371.32,414.22,o),
(374.25,416.35,cs),
(391.86,429.15,o),
(408.97,442.99,o),
(423.82,458.78,cs),
(425.89,460.98,o),
(415.65,482.08,o),
(409.17,483.19,cs),
(400.71,484.64,o),
(390.33,474.9,o),
(380.78,469.97,c),
(386.08,462.78,o),
(391.39,455.59,o),
(400.23,443.61,c),
(391.81,439.96,o),
(379.11,429.47,o),
(370.65,432.18,cs),
(361.7,435.05,o),
(354.11,449.64,o),
(350.6,460.6,cs),
(340.41,492.44,o),
(361.87,523.48,o),
(398.38,532.76,cs),
(437.28,542.64,o),
(451.19,530.25,o),
(447.97,490.02,cs),
(443.99,440.15,o),
(417.32,400.56,o),
(391.13,360.6,cs),
(383.85,349.5,o),
(376.69,338.32,o),
(369.47,327.18,c)
);
},
{
closed = 1;
nodes = (
(489.06,353.9,o),
(496.65,361.89,o),
(508.41,368.74,c),
(498.16,377.15,o),
(492.01,385.99,o),
(487.01,385.38,cs),
(479.84,384.51,o),
(473.5,376.75,o),
(466.82,371.93,c),
(472.13,365.88,o),
(476.8,355.9,o),
(482.94,354.9,cs)
);
},
{
closed = 1;
nodes = (
(536.34,354.48,o),
(543.36,361.1,o),
(542.13,363.51,cs),
(538.47,370.67,o),
(531.57,376.16,o),
(525.93,382.3,c),
(521.23,377.57,o),
(511.91,371.65,o),
(512.76,368.36,cs),
(514.61,361.19,o),
(521.64,355.35,o),
(529.7,344.89,c)
);
},
{
closed = 1;
nodes = (
(577.77,387.24,o),
(584.36,396.39,o),
(596.88,406.24,c),
(583.04,413.11,o),
(575.6,419.95,o),
(569.36,418.99,cs),
(563.6,418.1,o),
(554.1,407.33,o),
(555.21,403.57,cs),
(557.2,396.85,o),
(565.62,388.23,o),
(571.95,387.72,cs)
);
}
);
width = 657;
}
);
note = J;
unicode = 74;
},
{
glyphname = K;
lastChange = "2024-06-01 14:57:49 +0000";
layers = (
{
layerId = "FB7D8E3D-7C75-4663-899C-C1BEB8CD7630";
shapes = (
{
closed = 1;
nodes = (
(208.31,3.06,o),
(219.91,4.23,o),
(225.16,10.62,cs),
(239.37,27.9,o),
(249.29,48.75,o),
(263.76,65.76,cs),
(297.73,105.7,o),
(329.24,152.96,o),
(394.51,127.75,cs),
(396.02,127.17,o),
(398.2,127.89,o),
(399.42,127.05,cs),
(403.77,124.08,o),
(409.73,121.58,o),
(411.7,117.34,cs),
(428.41,81.34,o),
(459.18,70.79,o),
(494.77,74.52,cs),
(534.19,78.65,o),
(552.75,110.79,o),
(571.44,140.61,cs),
(574.16,144.94,o),
(571.82,152.44,o),
(571.82,165.54,c),
(548.08,147.5,o),
(531.1,131.8,o),
(511.58,120.5,cs),
(489.46,107.7,o),
(466.67,111.06,o),
(439.64,133.29,c),
(499.72,142.02,o),
(524.86,189.21,o),
(557.98,224.57,cs),
(577.65,245.57,o),
(586.31,277.09,o),
(599.08,304.28,cs),
(604.32,315.44,o),
(608.81,327.4,o),
(610.79,339.47,cs),
(611.77,345.49,o),
(606.29,352.56,o),
(603.74,359.15,cs),
(603.72,359.12,ls),
(598.29,355.19,o),
(590.48,352.45,o),
(587.82,347.13,cs),
(571.59,314.72,o),
(556.53,281.73,o),
(541.44,249.69,c),
(540.9,251.76,o),
(539.39,255.68,o),
(538.9,259.72,cs),
(535.85,284.96,o),
(538.16,312.39,o),
(528.72,334.91,cs),
(518.89,358.33,o),
(517.38,380.06,o),
(517.64,404.1,cs),
(517.77,416.71,o),
(512.27,430.44,o),
(505.92,441.78,cs),
(499.42,453.39,o),
(488.79,462.67,o),
(479.96,472.97,c),
(476.94,471.06,o),
(473.93,469.15,o),
(470.92,467.25,c),
(476.95,448.64,o),
(482.98,430.03,o),
(491.33,404.23,c),
(452.39,437.47,o),
(415.05,448.53,o),
(373.75,433.9,cs),
(359.5,428.86,o),
(345.61,418.92,o),
(335.32,407.75,cs),
(326.02,397.66,o),
(334.55,381.01,o),
(345.33,386.64,cs),
(362.54,395.64,o),
(376.3,388.58,o),
(390.99,386.83,cs),
(428.39,382.36,o),
(465.64,376.03,o),
(494.6,348.35,cs),
(505.42,338,o),
(512.63,326.79,o),
(504.6,315.19,c),
(480.45,332.66,o),
(458.07,349.27,o),
(435.09,364.98,cs),
(432.12,367.01,o),
(425.35,365.58,o),
(421.62,363.47,cs),
(419.76,362.42,o),
(419.07,354.62,o),
(420.89,352.59,cs),
(429.58,342.86,o),
(438.04,328.63,o),
(448.94,326.07,cs),
(470.16,321.09,o),
(486.99,308.78,o),
(484.19,290.57,cs),
(480.61,267.24,o),
(465.7,245.66,o),
(455.69,223.32,c),
(454.3,224.15,o),
(452.9,224.99,o),
(451.54,225.83,c),
(456.09,244.77,o),
(478.8,260.07,o),
(462.95,288.62,c),
(457.28,278.03,o),
(454.09,271.64,o),
(450.5,265.49,cs),
(446.43,258.51,o),
(442,251.75,o),
(437.19,244.03,c),
(425.78,252.45,o),
(415.93,259.72,o),
(406.1,266.96,c),
(424.17,293.39,o),
(420.62,308.42,o),
(399.5,315.21,c),
(397.63,303.8,o),
(395.63,291.61,o),
(393.63,279.42,c),
(391.17,279.83,o),
(388.71,280.23,o),
(386.25,280.63,c),
(390.44,310.14,o),
(388.26,313.15,o),
(362.25,312.61,c),
(362.97,317.65,o),
(365.21,322.93,o),
(364.08,327.36,cs),
(360.89,339.98,o),
(358.83,361.01,o),
(351.84,363.01,cs),
(331.11,368.94,o),
(334.72,346.91,o),
(329.6,335.19,cs),
(328.89,333.56,o),
(327.85,332.08,o),
(326.25,329.31,c),
(310.21,383.25,o),
(304.71,385.09,o),
(257.73,355.08,cs),
(251.9,351.36,o),
(244.98,349.35,o),
(237.86,346.23,c),
(233.17,372.95,o),
(227.16,386.35,o),
(219.84,386.43,cs),
(201.58,386.62,o),
(179.76,368.77,o),
(176.29,350.18,c),
(190.59,358.42,o),
(204.56,366.47,o),
(219.99,375.36,c),
(220.6,369.81,o),
(220.54,367.33,o),
(221.18,365.05,cs),
(224.3,353.79,o),
(224.42,338.41,o),
(231.88,332.72,cs),
(237.61,328.35,o),
(253.36,334.66,o),
(263.41,339.06,cs),
(274.51,343.92,o),
(284.19,352.01,o),
(294.34,358.59,c),
(324.82,316.99,o),
(323.06,279.23,o),
(286.17,241.44,c),
(284.68,258.13,o),
(284.48,270.86,o),
(282.15,283.2,cs),
(280.28,293.13,o),
(278.45,306.07,o),
(271.7,311.12,cs),
(266.46,315.03,o),
(252.29,311.12,o),
(244.55,306.53,cs),
(234.06,300.3,o),
(225.61,290.41,o),
(216.86,281.52,cs),
(209.51,274.06,o),
(202.98,265.78,o),
(191.01,252.04,c),
(187.27,268.93,o),
(185.04,278.8,o),
(182.9,288.69,cs),
(180.49,299.87,o),
(176.23,308.5,o),
(162.55,301.99,cs),
(147.68,294.91,o),
(134.09,263.64,o),
(138.43,240.34,c),
(148.51,257.4,o),
(156.77,271.38,o),
(167.56,289.65,c),
(168.7,278.6,o),
(167.77,272.84,o),
(170,268.85,cs),
(174.99,259.9,o),
(180.74,245.83,o),
(187.68,244.89,cs),
(196.53,243.69,o),
(207.73,252.25,o),
(216.24,258.77,cs),
(222.6,263.65,o),
(225.34,273.08,o),
(231.43,278.53,cs),
(241.67,287.68,o),
(253.3,295.27,o),
(263.14,302.61,c),
(268.27,274.12,o),
(272.49,250.72,o),
(276.7,227.32,c),
(278.14,227.77,o),
(279.58,228.22,o),
(281.02,228.67,c),
(278.18,219.04,o),
(275.34,209.41,o),
(272.15,198.59,c),
(306.3,191.87,o),
(313.45,220.59,o),
(331.05,231.33,c),
(344.34,231.08,o),
(357.3,236.38,o),
(369.59,235.11,cs),
(382.49,233.78,o),
(398.85,229.41,o),
(406.06,220.31,cs),
(412.72,211.91,o),
(411.89,194.91,o),
(409.23,182.83,cs),
(407.67,175.76,o),
(396.09,170.89,o),
(389.02,165.03,c),
(387.4,166.75,o),
(385.78,168.46,o),
(384.16,170.18,c),
(390.2,185.79,o),
(413.07,197.72,o),
(397.45,221.36,c),
(340.51,163.26,o),
(251.32,147.94,o),
(218.42,62.57,c),
(188.94,115.11,o),
(145.24,134.76,o),
(91.75,136.91,cs),
(85.91,137.14,o),
(80.12,138.91,o),
(74.3,138.95,cs),
(67.03,139.01,o),
(59.76,138.01,o),
(52.49,137.47,c),
(54.96,129.16,o),
(54.91,117.72,o),
(60.47,113.26,cs),
(69.66,105.87,o),
(82.22,102.25,o),
(93.79,98.38,cs),
(111.09,92.6,o),
(132.52,92.48,o),
(145.41,81.78,cs),
(164.4,66.01,o),
(177.98,43.45,o),
(192.61,22.89,cs),
(197.07,16.61,o),
(197.38,7.39,o),
(199.6,-0.49,c)
);
}
);
width = 663;
}
);
note = K;
unicode = 75;
},
{
glyphname = L;
lastChange = "2024-06-01 14:57:49 +0000";
layers = (
{
layerId = "FB7D8E3D-7C75-4663-899C-C1BEB8CD7630";
shapes = (
{
closed = 1;
nodes = (
(557.55,10.6,o),
(533.72,37.11,o),
(520.69,79.39,cs),
(520.71,79.39,ls),
(519.7,82.69,o),
(508.88,84.56,o),
(502.7,84.36,cs),
(485.97,83.82,o),
(474.07,87.28,o),
(470.83,106.76,cs),
(467.56,126.41,o),
(463.2,146.13,o),
(456.53,164.83,cs),
(454.27,171.16,o),
(443.52,174.46,o),
(436.65,179.15,c),
(433.15,172.52,o),
(427.89,166.23,o),
(426.6,159.19,cs),
(424.86,149.76,o),
(426.17,139.76,o),
(426.17,127.66,c),
(420.63,129.9,o),
(417.54,130.69,o),
(414.92,132.27,cs),
(334.56,180.91,o),
(247.24,195.17,o),
(154.76,186.62,cs),
(142.58,185.49,o),
(129.83,192.15,o),
(117.17,194.08,cs),
(109.84,195.2,o),
(102.17,194.08,o),
(94.66,193.97,c),
(98.07,186.8,o),
(99.71,177.61,o),
(105.19,172.79,cs),
(133.38,147.99,o),
(162.5,124.26,o),
(191.41,100.29,cs),
(199.24,93.8,o),
(207.48,87.79,o),
(215.52,81.56,c),
(217.18,83.34,o),
(218.84,85.12,o),
(220.49,86.9,c),
(157.25,160.24,l),
(158.3,163.11,o),
(159.36,165.99,o),
(160.42,168.87,c),
(203.1,163.63,o),
(245.94,159.36,o),
(288.41,152.82,cs),
(320.18,147.93,o),
(341.96,131.14,o),
(359.57,101.41,cs),
(392.65,45.57,o),
(418.28,37.92,o),
(471.02,52.2,cs),
(478.9,54.33,o),
(486.99,55.7,o),
(494.82,57.39,c),
(520.23,-8.08,o),
(583.54,-9.07,o),
(608.4,19.09,c)
);
},
{
closed = 1;
nodes = (
(162.32,345.21,o),
(111.77,361.22,o),
(60,374.36,c),
(57.49,372.88,o),
(54.99,371.39,o),
(52.48,369.91,c),
(58.14,362.92,o),
(62.49,353.73,o),
(69.75,349.42,cs),
(84.52,340.63,o),
(100.89,334.55,o),
(116.55,327.23,cs),
(145.01,313.93,o),
(174.53,307.38,o),
(206.45,312.88,c)
);
},
{
closed = 1;
nodes = (
(208.75,389,o),
(215.89,390.78,o),
(219.44,393.06,cs),
(221.95,394.68,o),
(224.21,401.83,o),
(222.86,403.51,cs),
(201.98,429.51,o),
(219.13,452.61,o),
(229.06,476.37,c),
(208.99,476.28,o),
(203.26,470.49,o),
(197.46,441.41,cs),
(193.95,423.78,o),
(188.68,404.79,o),
(206.26,390.95,cs)
);
},
{
closed = 1;
nodes = (
(511.74,214.64,o),
(513.39,218.72,o),
(515.04,222.81,c),
(495.61,232.62,o),
(476.97,244.68,o),
(456.6,251.8,cs),
(408.74,268.52,o),
(360.31,283.77,o),
(311.52,297.55,cs),
(299.17,301.03,o),
(284.64,296.77,o),
(271.12,296.07,c),
(270.86,292.04,o),
(270.6,288.01,o),
(270.33,283.99,c),
(350.25,259.51,o),
(430.17,235.03,o),
(510.09,210.55,c)
);
},
{
closed = 1;
nodes = (
(474.6,287,o),
(475.3,289.64,o),
(476,292.28,c),
(408.71,319.41,o),
(338.85,336.89,o),
(267.28,347.94,c),
(266.02,343.17,o),
(264.76,338.4,o),
(263.5,333.64,c),
(473.9,284.36,l)
);
},
{
closed = 1;
nodes = (
(403.75,344.56,o),
(404.19,347.43,o),
(404.62,350.3,c),
(372.12,370.12,o),
(334.92,371.4,o),
(298.13,373.61,cs),
(295.5,373.77,o),
(291.18,367.31,o),
(290.16,363.29,cs),
(289.66,361.33,o),
(294.66,355.86,o),
(297.66,355.44,cs),
(332.83,350.48,o),
(368.09,346.17,o),
(403.31,341.69,c)
);
}
);
width = 661;
}
);
note = L;
unicode = 76;
},
{
glyphname = M;
lastChange = "2024-06-01 14:57:49 +0000";
layers = (
{
layerId = "FB7D8E3D-7C75-4663-899C-C1BEB8CD7630";
shapes = (
{
closed = 1;
nodes = (
(202.86,-32.23,o),
(240.46,-38.68,o),
(278.33,-22.18,cs),
(289.63,-17.26,o),
(303.39,-16.21,o),
(315.98,-16.38,cs),
(351.18,-16.87,o),
(385.46,-16.26,o),
(404.77,8.67,c),
(427.99,2.82,o),
(447.95,-5.47,o),
(468.27,-6.5,cs),
(493.35,-7.78,o),
(500.27,5.66,o),
(503.36,30.33,cs),
(506.16,52.64,o),
(498.16,65.54,o),
(480.57,75.42,cs),
(480.57,75.44,ls),
(476.01,78,o),
(470.94,79.62,o),
(466.1,81.68,c),
(464.09,76.56,o),
(459.81,71.12,o),
(460.49,66.39,cs),
(462.32,53.73,o),
(466.26,41.37,o),
(469.42,28.69,c),
(428.64,26.55,o),
(417.91,32.51,o),
(402.63,65.24,c),
(405.44,69.04,o),
(408.24,73.17,o),
(411.41,77.01,cs),
(425.62,94.26,o),
(424.58,106.11,o),
(402.75,117.64,cs),
(367.59,136.21,o),
(368.31,137.54,o),
(333.8,110.91,cs),
(328.64,106.93,o),
(323.3,103.17,o),
(317.82,99.15,c),
(292.21,161.2,o),
(305.2,258.46,o),
(357.24,394.77,c),
(413.14,352.09,o),
(459.51,301.39,o),
(501.55,245.86,c),
(475.17,312.03,o),
(442.63,373.6,o),
(379.46,417.03,c),
(457.93,451.98,o),
(526.94,410.79,o),
(599.41,403.31,c),
(571.93,433.74,o),
(533.17,441.25,o),
(498.05,455.06,cs),
(459.35,470.29,o),
(420.05,465.41,o),
(380.29,450.55,c),
(389.83,499.68,o),
(437.91,513.17,o),
(468.7,549.6,c),
(428.61,552.06,o),
(405.07,534.07,o),
(385.92,514.78,cs),
(367.27,495.99,o),
(355.52,470.35,o),
(340.66,447.59,c),
(273.05,492.24,o),
(160.5,518.11,o),
(128.3,489.82,c),
(185.16,476.62,o),
(242.11,472.08,o),
(296.29,440.01,c),
(286.96,438.53,o),
(283.85,438.16,o),
(280.79,437.53,cs),
(225.35,426.02,o),
(169.77,415.17,o),
(114.64,402.32,cs),
(104.24,399.9,o),
(95.71,389.48,o),
(86.31,382.75,c),
(87.84,379.93,o),
(89.36,377.11,o),
(90.89,374.29,c),
(164.94,390.18,o),
(238.63,408.9,o),
(322.01,410.4,c),
(268.49,360.18,o),
(225.61,311.48,o),
(191.3,256.24,c),
(193.45,254.46,o),
(195.61,252.68,o),
(197.76,250.9,c),
(236.44,287.69,o),
(275.13,324.48,o),
(313.81,361.27,c),
(284.91,266.35,o),
(262.22,173.93,o),
(299.53,72.88,c),
(270.97,87.27,o),
(273.89,67.06,o),
(271.26,54.55,cs),
(260.76,4.6,o),
(243.96,-7.83,o),
(194.58,-1.02,cs),
(186.3,0.12,o),
(177.88,2.7,o),
(169.77,1.97,cs),
(163.33,1.39,o),
(157.25,-3.23,o),
(151.02,-6.06,c),
(155.76,-11.94,o),
(159.55,-21.63,o),
(165.37,-23.06,cs)
);
},
{
closed = 1;
nodes = (
(107.16,219.72,o),
(113.95,234.57,o),
(122.38,244.5,c),
(120.44,245.99,o),
(118.5,247.48,o),
(116.55,248.97,cs),
(116.55,248.95,ls),
(96.14,239.01,o),
(77.54,244.34,o),
(60.77,264.93,c),
(47.15,250.16,o),
(52.21,235.67,o),
(62.35,226.9,cs),
(70.97,219.43,o),
(87.12,213.04,o),
(96.59,216.2,cs)
);
},
{
closed = 1;
nodes = (
(133.1,16,o),
(153.66,16.49,o),
(169.94,33.92,c),
(148.33,38.91,o),
(127.93,38.66,o),
(111.21,21.28,c)
);
},
{
closed = 1;
nodes = (
(207.42,123.4,o),
(216.57,139.18,o),
(219.83,155.23,c),
(204.26,155.22,o),
(190.17,154.61,o),
(176.18,155.52,cs),
(170.44,155.9,o),
(164.92,159.56,o),
(159.3,161.73,c),
(158.35,154,o),
(153.81,142.39,o),
(157.16,139.29,cs),
(165.97,131.12,o),
(178.66,121.07,o),
(188.99,121.91,cs)
);
},
{
closed = 1;
nodes = (
(302.49,53.29,o),
(347.03,89.61,o),
(393.39,86.67,c),
(376.24,66.66,o),
(362.34,47.94,o),
(378.6,19.46,c),
(350,17.42,o),
(326.58,15.73,o),
(302.93,14.03,c)
);
},
{
closed = 1;
nodes = (
(512.67,124.53,o),
(527.03,133.7,o),
(519.54,155.8,c),
(499.56,136.84,o),
(481.49,132.27,o),
(468.15,163.69,c),
(464.72,161.76,o),
(461.29,159.82,o),
(457.86,157.87,c),
(460.69,146.79,o),
(460.2,132.03,o),
(467.27,125.67,cs),
(474.46,119.21,o),
(490.49,116.95,o),
(500.13,120.25,cs)
);
},
{
closed = 1;
nodes = (
(412.22,246.22,o),
(421.67,262.95,o),
(412.93,286.65,c),
(406.26,281.46,o),
(402.11,278.93,o),
(398.83,275.56,cs),
(381.89,258.1,o),
(369.72,260.76,o),
(361.5,282.97,cs),
(359.34,288.84,o),
(353.36,293.29,o),
(349.14,298.38,c),
(344.53,292.05,o),
(334.84,284.14,o),
(336.24,279.68,cs),
(340.6,265.74,o),
(346.12,248.8,o),
(356.94,241.22,cs),
(366.78,234.33,o),
(386.86,232.95,o),
(397.51,238.52,cs)
);
},
{
closed = 1;
nodes = (
(592.52,256.23,o),
(598.69,269.76,o),
(606.64,279.66,c),
(604.28,281.85,o),
(601.91,284.03,o),
(599.55,286.22,c),
(591.06,280.56,o),
(582.58,274.9,o),
(573.31,268.74,c),
(564.22,276.28,o),
(555.62,283.41,o),
(547.01,290.55,c),
(544.58,289.5,o),
(542.16,288.45,o),
(539.73,287.4,c),
(543.31,277.05,o),
(544.11,263.47,o),
(551.27,257.24,cs),
(558.46,250.99,o),
(574.38,247.28,o),
(582.2,251.14,cs)
);
}
);
width = 659;
}
);
note = M;
unicode = 77;
},
{
glyphname = N;
lastChange = "2024-06-01 14:57:49 +0000";
layers = (
{
layerId = "FB7D8E3D-7C75-4663-899C-C1BEB8CD7630";
shapes = (
{
closed = 1;
nodes = (
(523.08,-50.7,o),
(573.05,-43.64,o),
(609.95,3.52,cs),
(616.14,11.42,o),
(616.54,23.85,o),
(619.61,34.19,c),
(609.49,31.81,o),
(597.28,32.22,o),
(589.64,26.52,cs),
(589.67,26.51,ls),
(568.24,10.49,o),
(546.12,-0.76,o),
(518.61,-0.43,cs),
(424.98,0.69,o),
(346.48,46.92,o),
(262.26,81.29,c),
(265.79,86.07,o),
(267.55,87.77,o),
(268.5,89.85,cs),
(273.24,100.27,o),
(277.76,110.79,o),
(282.35,121.28,c),
(272.06,118.91,o),
(260.77,118.46,o),
(251.69,113.74,cs),
(234.27,104.7,o),
(219.36,99.73,o),
(200.9,113.39,cs),
(179.59,129.16,o),
(156.02,142,o),
(132.77,154.93,cs),
(127.25,158,o),
(116.85,159.16,o),
(112.8,155.98,cs),
(109.15,153.11,o),
(108.82,142.12,o),
(111.19,136.46,cs),
(114.26,129.13,o),
(120.42,122.01,o),
(127.07,117.46,cs),
(141.3,107.74,o),
(155.36,97.6,o),
(169.61,87.85,c),
(152.82,75.72,o),
(142.28,69.35,o),
(133.6,61.1,cs),
(130,57.68,o),
(127.75,48.66,o),
(129.75,44.58,cs),
(132.14,39.71,o),
(142.3,33.28,o),
(144.67,34.73,cs),
(154.15,40.54,o),
(163.93,47.9,o),
(169.58,57.14,cs),
(173.25,63.14,o),
(170.45,73.16,o),
(170.32,87.35,c),
(186.18,76.52,o),
(202.32,66.18,o),
(219.28,57.5,cs),
(298.76,16.81,o),
(378.16,-24.79,o),
(467.64,-40.79,cs)
);
},
{
closed = 1;
nodes = (
(248.02,128.37,o),
(268.69,148.12,o),
(268.8,167.85,c),
(247.29,161.39,o),
(225.62,154.87,o),
(199.25,146.94,c),
(198.51,132.35,o),
(209.75,126.8,o),
(225.75,127.46,cs)
);
},
{
closed = 1;
nodes = (
(236.53,168.86,o),
(250.55,172.65,o),
(253.71,177.31,cs),
(267.59,197.77,o),
(280.2,219.2,o),
(291.39,241.23,cs),
(292.88,244.16,o),
(283.86,257.36,o),
(279.3,257.58,cs),
(279.31,257.57,ls),
(256.7,258.68,o),
(221.39,223.04,o),
(220.96,194.23,c),
(223.38,189.77,o),
(227.6,179.1,o),
(234.7,170.95,cs)
);
},
{
closed = 1;
nodes = (
(67.17,341.86,o),
(72.56,365.96,o),
(81.69,388.54,cs),
(90.72,410.88,o),
(103.54,431.7,o),
(114.7,453.18,c),
(117.04,450.29,o),
(119.37,447.4,o),
(121.72,444.51,cs),
(121.71,444.49,ls),
(131.09,441.25,o),
(140.48,438,o),
(149.87,434.76,c),
(153.08,445.79,o),
(160.92,458.24,o),
(158.09,467.42,cs),
(155.68,475.24,o),
(141.19,483.75,o),
(131.74,484.11,cs),
(109.8,484.96,o),
(93.75,471.81,o),
(85.96,451.4,cs),
(77.37,428.9,o),
(69.53,405.96,o),
(63.55,382.66,cs),
(58.3,362.22,o),
(56.08,340.99,o),
(52.52,320.12,c),
(55.06,319.56,o),
(57.6,318.99,o),
(60.14,318.43,c)
);
},
{
closed = 1;
nodes = (
(389.16,37.54,ls),
(414.35,23.94,o),
(433.16,38.48,o),
(449.38,54.13,cs),
(457.7,62.16,o),
(460.52,75.9,o),
(465.84,87.05,c),
(455.08,84.11,o),
(444.39,80.91,o),
(433.54,78.33,cs),
(425.01,76.31,o),
(413.65,71.1,o),
(408.42,74.6,cs),
(403.13,78.14,o),
(401.09,91.2,o),
(402.69,99.07,cs),
(404.39,107.46,o),
(411.27,115.29,o),
(417.24,122.2,cs),
(426.64,133.1,o),
(437.16,143.02,o),
(447.21,153.36,c),
(445.41,154.91,o),
(443.61,156.46,o),
(441.8,158.01,c),
(387.79,134.91,o),
(384.95,135.06,o),
(373.99,161.58,c),
(400.97,172.94,o),
(434.99,191.12,o),
(429.73,217.91,cs),
(424.27,245.75,o),
(439.96,282.13,o),
(412.54,304.92,c),
(409.38,304.14,o),
(406.21,303.37,o),
(403.05,302.6,c),
(403.05,279.35,o),
(404.94,255.87,o),
(402.17,232.95,cs),
(400.96,222.97,o),
(391.94,209.5,o),
(383.23,206.22,cs),
(375.76,203.41,o),
(362.04,210.86,o),
(354.02,217.38,cs),
(343.22,226.16,o),
(336.21,239.56,o),
(325.58,248.65,cs),
(320.6,252.9,o),
(310.95,251.69,o),
(303.42,252.95,c),
(304.36,246.07,o),
(304.59,239,o),
(306.36,232.34,cs),
(315.76,196.72,o),
(353.43,174.98,o),
(354.41,134.93,cs),
(354.49,131.53,o),
(360.1,128.59,o),
(361.37,124.84,cs),
(363.97,117.15,o),
(367.95,108.64,o),
(366.78,101.19,cs),
(362.03,70.98,o),
(369.16,48.34,o),
(389.17,37.53,cs)
);
},
{
closed = 1;
nodes = (
(148.93,269.12,o),
(152.81,274.15,o),
(157.06,278.84,cs),
(161.9,284.17,o),
(166.19,290.87,o),
(172.25,294.04,cs),
(191.24,303.96,o),
(210.95,312.5,o),
(231.58,322.13,c),
(261.14,302.68,o),
(296.32,301.13,o),
(308.36,322.26,c),
(283.95,329.67,o),
(256.38,333.81,o),
(250.89,365.35,c),
(268.65,358.29,o),
(286.11,350.28,o),
(304.34,344.77,cs),
(309.55,343.2,o),
(316.95,348.91,o),
(323.34,351.27,c),
(319.29,355.71,o),
(315.92,361.15,o),
(311.07,364.38,cs),
(299.32,372.19,o),
(280.94,376.25,o),
(276.14,386.79,cs),
(269.39,401.6,o),
(268.4,422.03,o),
(272.7,437.96,cs),
(276.19,450.87,o),
(313.43,452.91,o),
(325.48,444.04,cs),
(335.55,436.63,o),
(349.19,441.8,o),
(350.69,453.47,cs),
(351.77,461.88,o),
(353.18,470.24,o),
(354.85,481.27,c),
(329.12,492.91,o),
(300.02,496.2,o),
(269.65,491.1,cs),
(251.67,488.09,o),
(222.68,493.39,o),
(246.4,459.46,cs),
(247.63,457.71,o),
(244.38,453.28,o),
(244.3,450.08,cs),
(243.66,424.91,o),
(243.28,399.73,o),
(242.82,374.55,c),
(236.16,372.3,o),
(224.18,370.89,o),
(223.68,367.69,cs),
(218.74,336.07,o),
(190.16,329.35,o),
(169.67,314.41,cs),
(159.82,307.23,o),
(147.66,302.99,o),
(138.58,295.09,cs),
(134.14,291.23,o),
(132.45,281.84,o),
(133.13,275.33,cs),
(133.56,271.27,o),
(140.74,267.92,o),
(144.89,264.25,c)
);
},
{
closed = 1;
nodes = (
(172.73,406.76,o),
(187.7,408.78,o),
(198.76,416.43,cs),
(204.92,420.69,o),
(204.59,434.34,o),
(207.18,443.76,c),
(199.19,445.37,o),
(186.94,451.02,o),
(183.98,447.88,cs),
(172.33,435.57,o),
(163.61,420.48,o),
(153.81,406.43,c),
(155.68,405.09,o),
(157.54,403.74,o),
(159.4,402.39,c)
);
},
{
closed = 1;
nodes = (
(476.15,194.86,o),
(488.93,217.52,o),
(501,238.92,c),
(508.55,232.82,o),
(513.78,228.58,o),
(519.01,224.35,c),
(525.16,232.6,o),
(535.25,240.39,o),
(536.35,249.28,cs),
(537.41,257.8,o),
(531.39,270.7,o),
(524.28,275.65,cs),
(518.47,279.7,o),
(501.84,278.42,o),
(498.01,273.4,cs),
(475.86,244.35,o),
(459.42,212.26,o),
(463.37,172.2,c)
);
},
{
closed = 1;
nodes = (
(581.9,118.32,o),
(599.28,128.81,o),
(612.9,142.94,cs),
(617.68,147.9,o),
(613.18,161.79,o),
(612.92,171.6,c),
(604.36,169.12,o),
(592,169.33,o),
(587.98,163.65,cs),
(576.53,147.48,o),
(568.49,128.91,o),
(559.1,111.28,cs),
(559.09,111.27,ls),
(561.39,109.65,o),
(563.7,108.02,o),
(566,106.4,c)
);
},
{
closed = 1;
nodes = (
(235.77,494.24,o),
(245.36,501.39,o),
(251.49,505.81,cs),
(252.51,506.55,o),
(249.46,516.45,o),
(245.98,519.25,cs),
(236.9,526.55,o),
(226.54,532.25,o),
(213.01,540.95,c),
(211.5,535.3,o),
(205.08,524.88,o),
(207.92,518.77,cs),
(212.26,509.44,o),
(221.99,501.05,o),
(231.46,496.37,cs),
(231.48,496.36,ls)
);
},
{
closed = 1;
nodes = (
(540.59,151.87,o),
(552.93,177.58,o),
(564.74,202.19,c),
(568.48,202.82,o),
(570.47,203.85,o),
(571.6,203.25,cs),
(588.56,194.34,o),
(601.63,201.89,o),
(604.08,217.47,cs),
(605.86,228.85,o),
(597.32,241.86,o),
(593.37,254.15,c),
(582.65,248.63,o),
(567.57,245.84,o),
(562.06,237.05,cs),
(562.07,237.04,ls),
(548.49,215.36,o),
(538.32,191.32,o),
(528.77,167.44,cs),
(523.91,155.28,o),
(523.35,141.4,o),
(520.84,128.29,c),
(523.31,127.58,o),
(525.77,126.87,o),
(528.24,126.16,c)
);
},
{
closed = 1;
nodes = (
(352.08,293.87,o),
(374.19,303.39,o),
(387.08,320.75,cs),
(403.71,343.17,o),
(423.71,345.67,o),
(442.58,344.19,c),
(459.43,328.16,o),
(471.42,308.96,o),
(488.11,303.08,cs),
(504.76,297.21,o),
(526.34,303.4,o),
(545.32,306.76,cs),
(559.15,309.2,o),
(571.66,316.11,o),
(570.54,327.49,c),
(537.8,333.43,o),
(508.97,338.66,o),
(478.55,344.18,c),
(476.35,357.74,o),
(473.15,369.61,o),
(453.01,363.61,cs),
(445.56,361.39,o),
(434.75,369.47,o),
(425.78,373.53,cs),
(414.18,378.78,o),
(403.37,386.21,o),
(391.36,389.95,cs),
(377.82,394.16,o),
(372.58,386.4,o),
(375.87,373.35,cs),
(375.86,373.34,ls),
(377.23,367.92,o),
(380.22,362.9,o),
(384.31,353.46,c),
(365.97,345.81,o),
(348.52,338.89,o),
(331.39,331.23,cs),
(324.61,328.2,o),
(318.55,323.56,o),
(312.16,319.65,c),
(317.6,313.89,o),
(322,305.41,o),
(328.67,302.85,cs)
);
},
{
closed = 1;
nodes = (
(388.18,407.07,o),
(389.15,419.64,o),
(377.11,433.92,c),
(373.29,434.17,o),
(369.47,434.44,o),
(365.65,434.7,c),
(365.06,422.16,o),
(364.46,409.61,o),
(363.87,397.07,c)
);
},
{
closed = 1;
nodes = (
(348.07,508.77,o),
(348.35,511.66,o),
(348.62,514.54,c),
(335.34,518.59,o),
(322.07,522.64,o),
(308.79,526.69,c),
(308.94,527.76,o),
(309.1,528.82,o),
(309.25,529.89,c),
(347.63,529.89,l),
(350.1,551.64,o),
(333.72,553.01,o),
(322.25,554.8,cs),
(309.18,556.85,o),
(295.33,553.87,o),
(279.84,552.96,c),
(284.29,560.75,o),
(287.91,567.1,o),
(292.23,574.66,c),
(287.87,576.72,o),
(281.97,580.46,o),
(281.31,579.69,cs),
(272.61,569.56,o),
(257.78,558.55,o),
(258.16,548.26,cs),
(258.69,533.91,o),
(268.02,510.83,o),
(278.39,507.78,cs),
(278.39,507.8,ls),
(299.85,501.47,o),
(324.47,505.89,o),
(347.8,505.89,c)
);
}
);
width = 672;
}
);
note = N;
unicode = (78,209);
},
